<?xml version="1.0" encoding="UTF-8"?>
<svg id="Capa_1" data-name="Capa 1" xmlns="http://www.w3.org/2000/svg" xmlns:xlink="http://www.w3.org/1999/xlink" viewBox="0 0 1080 1080">
  <defs>
    <style>
      .cls-1 {
        fill: #d4d5d8;
      }

      .cls-2 {
        fill: #8e8e8e;
      }

      .cls-3 {
        clip-path: url(#clippath);
      }

      .cls-4 {
        fill: none;
      }
    </style>
    <clipPath id="clippath">
      <rect class="cls-4" x="98.21" y="534.89" width="62.34" height="59.22" transform="translate(-438.14 449.09) rotate(-65.6)"/>
    </clipPath>
  </defs>
  <g>
    <path class="cls-2" d="m213.3,567.9l-3.45,10.45h-4.44l11.29-33.22h5.18l11.34,33.22h-4.58l-3.55-10.45h-11.78Zm10.89-3.35l-3.25-9.56c-.74-2.17-1.23-4.14-1.73-6.06h-.1c-.49,1.97-1.03,3.99-1.67,6.01l-3.25,9.61h10.01Z"/>
    <path class="cls-2" d="m267.36,578.35c-.94-.94-1.82-1.87-3.11-3.25-2.86,2.66-6.06,3.79-9.71,3.79-6.46,0-10.2-4.34-10.2-9.31,0-4.53,2.71-7.64,6.51-9.71v-.15c-1.72-2.17-2.76-4.58-2.76-6.95,0-4.04,2.91-8.18,8.43-8.18,4.14,0,7.34,2.76,7.34,7.05,0,3.5-2.02,6.26-7.29,8.87v.15c2.81,3.25,5.96,6.9,8.08,9.26,1.53-2.32,2.56-5.52,3.2-9.71h3.94c-.89,5.22-2.32,9.36-4.78,12.27,1.77,1.87,3.5,3.75,5.47,5.86h-5.13Zm-5.22-5.72c-1.97-2.17-5.67-6.21-9.36-10.45-1.77,1.13-4.29,3.25-4.29,6.75,0,3.79,2.81,6.7,6.8,6.7,2.86,0,5.27-1.28,6.85-3.01Zm-10.1-20.26c0,2.37,1.08,4.19,2.51,5.96,3.35-1.92,5.52-3.7,5.52-6.51,0-2.02-1.13-4.29-3.84-4.29s-4.19,2.27-4.19,4.83Z"/>
    <path class="cls-2" d="m290.72,578.35l-10.84-33.22h4.63l5.17,16.36c1.43,4.48,2.66,8.53,3.55,12.42h.1c.94-3.84,2.32-8.03,3.8-12.37l5.62-16.41h4.58l-11.88,33.22h-4.73Z"/>
    <path class="cls-2" d="m172.59,624.17c2.05,1.26,5.05,2.31,8.2,2.31,4.68,0,7.41-2.47,7.41-6.05,0-3.31-1.89-5.2-6.68-7.04-5.78-2.05-9.36-5.05-9.36-10.04,0-5.52,4.57-9.62,11.46-9.62,3.63,0,6.26.84,7.83,1.73l-1.26,3.73c-1.16-.63-3.52-1.68-6.73-1.68-4.84,0-6.68,2.89-6.68,5.31,0,3.31,2.16,4.94,7.04,6.83,5.99,2.31,9.04,5.2,9.04,10.41,0,5.47-4.05,10.2-12.4,10.2-3.42,0-7.15-1-9.04-2.26l1.16-3.84Z"/>
    <path class="cls-2" d="m222.47,629.74l-.37-3.21h-.16c-1.42,2-4.15,3.79-7.78,3.79-5.15,0-7.78-3.63-7.78-7.31,0-6.15,5.47-9.51,15.3-9.46v-.53c0-2.1-.58-5.89-5.78-5.89-2.37,0-4.84.74-6.62,1.89l-1.05-3.05c2.1-1.37,5.15-2.26,8.36-2.26,7.78,0,9.67,5.31,9.67,10.41v9.51c0,2.21.1,4.36.42,6.1h-4.21Zm-.68-12.98c-5.05-.1-10.78.79-10.78,5.73,0,3,2,4.42,4.36,4.42,3.31,0,5.41-2.1,6.15-4.26.16-.47.26-1,.26-1.47v-4.42Z"/>
    <path class="cls-2" d="m244.27,592.42h4.63v37.32h-4.63v-37.32Z"/>
    <path class="cls-2" d="m281.17,622.8c0,2.63.05,4.94.21,6.94h-4.1l-.26-4.15h-.1c-1.21,2.05-3.89,4.73-8.41,4.73-4,0-8.78-2.21-8.78-11.14v-14.88h4.63v14.09c0,4.84,1.47,8.09,5.68,8.09,3.1,0,5.26-2.16,6.1-4.21.26-.68.42-1.52.42-2.37v-15.61h4.63v18.5Z"/>
    <path class="cls-2" d="m316.32,592.42v30.75c0,2.26.05,4.84.21,6.57h-4.15l-.21-4.42h-.11c-1.42,2.84-4.52,4.99-8.67,4.99-6.15,0-10.88-5.2-10.88-12.93-.05-8.46,5.2-13.67,11.41-13.67,3.89,0,6.52,1.84,7.67,3.89h.1v-15.19h4.63Zm-4.63,22.23c0-.58-.05-1.37-.21-1.94-.68-2.94-3.21-5.36-6.68-5.36-4.78,0-7.62,4.21-7.62,9.83,0,5.15,2.52,9.41,7.52,9.41,3.1,0,5.94-2.05,6.78-5.52.16-.63.21-1.26.21-2v-4.42Z"/>
  </g>
  <g>
    <path class="cls-2" d="m91.77,649.43c-.42.21-1.26.42-2.35.42-2.5,0-4.39-1.58-4.39-4.49s1.88-4.66,4.64-4.66c1.11,0,1.8.24,2.11.39l-.28.94c-.43-.21-1.05-.37-1.79-.37-2.08,0-3.46,1.33-3.46,3.66,0,2.17,1.25,3.57,3.41,3.57.7,0,1.41-.15,1.87-.37l.24.91Z"/>
    <path class="cls-2" d="m101.07,646.48c0,2.36-1.63,3.39-3.17,3.39-1.73,0-3.06-1.27-3.06-3.28,0-2.13,1.4-3.39,3.16-3.39s3.07,1.33,3.07,3.28Zm-5.06.07c0,1.4.8,2.45,1.94,2.45s1.94-1.04,1.94-2.48c0-1.08-.54-2.45-1.91-2.45s-1.96,1.26-1.96,2.48Z"/>
    <path class="cls-2" d="m102.85,645.07c0-.66-.01-1.2-.05-1.73h1.01l.05,1.03h.04c.36-.61.95-1.17,2-1.17.87,0,1.53.53,1.8,1.28h.03c.2-.36.45-.63.71-.83.38-.29.8-.45,1.41-.45.84,0,2.09.55,2.09,2.77v3.75h-1.13v-3.61c0-1.22-.45-1.96-1.38-1.96-.66,0-1.17.49-1.37,1.05-.05.16-.09.37-.09.58v3.94h-1.13v-3.82c0-1.01-.45-1.75-1.33-1.75-.72,0-1.25.58-1.44,1.16-.07.17-.09.37-.09.57v3.85h-1.13v-4.65Z"/>
    <path class="cls-2" d="m113.97,645.43c0-.82-.03-1.48-.05-2.08h1.04l.05,1.09h.03c.47-.78,1.23-1.24,2.27-1.24,1.54,0,2.7,1.3,2.7,3.24,0,2.29-1.4,3.42-2.9,3.42-.84,0-1.58-.37-1.96-1h-.03v3.46h-1.15v-6.9Zm1.15,1.7c0,.17.03.33.05.47.21.8.91,1.36,1.74,1.36,1.23,0,1.94-1,1.94-2.46,0-1.28-.67-2.37-1.9-2.37-.79,0-1.53.57-1.75,1.44-.04.15-.08.32-.08.47v1.09Z"/>
    <path class="cls-2" d="m122.06,645.33c0-.75-.01-1.4-.05-1.99h1.01l.04,1.25h.05c.29-.86.99-1.4,1.77-1.4.13,0,.22.01.33.04v1.09c-.12-.03-.24-.04-.4-.04-.82,0-1.4.62-1.55,1.49-.03.16-.05.34-.05.54v3.4h-1.15v-4.39Z"/>
    <path class="cls-2" d="m132.85,646.48c0,2.36-1.63,3.39-3.17,3.39-1.73,0-3.06-1.27-3.06-3.28,0-2.13,1.4-3.39,3.16-3.39s3.07,1.33,3.07,3.28Zm-5.06.07c0,1.4.8,2.45,1.94,2.45s1.94-1.04,1.94-2.48c0-1.08-.54-2.45-1.91-2.45s-1.96,1.26-1.96,2.48Z"/>
    <path class="cls-2" d="m134.62,645.07c0-.66-.01-1.2-.05-1.73h1.01l.05,1.03h.04c.36-.61.95-1.17,2-1.17.87,0,1.53.53,1.8,1.28h.03c.2-.36.45-.63.71-.83.38-.29.8-.45,1.41-.45.84,0,2.09.55,2.09,2.77v3.75h-1.13v-3.61c0-1.22-.45-1.96-1.38-1.96-.66,0-1.17.49-1.37,1.05-.05.16-.09.37-.09.58v3.94h-1.13v-3.82c0-1.01-.45-1.75-1.33-1.75-.72,0-1.25.58-1.44,1.16-.07.17-.09.37-.09.57v3.85h-1.13v-4.65Z"/>
    <path class="cls-2" d="m146.39,646.74c.03,1.57,1.03,2.21,2.19,2.21.83,0,1.33-.15,1.77-.33l.2.83c-.41.18-1.11.4-2.12.4-1.96,0-3.13-1.29-3.13-3.21s1.13-3.44,2.99-3.44c2.08,0,2.63,1.83,2.63,3,0,.24-.03.42-.04.54h-4.48Zm3.4-.83c.01-.74-.3-1.88-1.61-1.88-1.17,0-1.69,1.08-1.78,1.88h3.39Z"/>
    <path class="cls-2" d="m154.66,641.51v1.83h1.66v.88h-1.66v3.44c0,.79.22,1.24.87,1.24.3,0,.53-.04.67-.08l.05.87c-.22.09-.58.16-1.03.16-.54,0-.97-.17-1.25-.49-.33-.34-.45-.91-.45-1.66v-3.48h-.99v-.88h.99v-1.53l1.13-.3Z"/>
    <path class="cls-2" d="m159.15,641.55c.01.39-.28.71-.74.71-.41,0-.7-.32-.7-.71s.3-.72.72-.72.71.32.71.72Zm-1.29,8.17v-6.38h1.16v6.38h-1.16Z"/>
    <path class="cls-2" d="m167.05,640.37v7.71c0,.57.01,1.21.05,1.65h-1.04l-.05-1.11h-.03c-.36.71-1.13,1.25-2.17,1.25-1.54,0-2.73-1.3-2.73-3.24-.01-2.12,1.3-3.42,2.86-3.42.97,0,1.63.46,1.92.97h.03v-3.81h1.16Zm-1.16,5.57c0-.14-.01-.34-.05-.49-.17-.74-.8-1.34-1.67-1.34-1.2,0-1.91,1.05-1.91,2.46,0,1.29.63,2.36,1.88,2.36.78,0,1.49-.51,1.7-1.38.04-.16.05-.32.05-.5v-1.11Z"/>
    <path class="cls-2" d="m175.41,646.48c0,2.36-1.63,3.39-3.17,3.39-1.73,0-3.06-1.27-3.06-3.28,0-2.13,1.4-3.39,3.16-3.39s3.07,1.33,3.07,3.28Zm-5.06.07c0,1.4.8,2.45,1.94,2.45s1.94-1.04,1.94-2.48c0-1.08-.54-2.45-1.91-2.45s-1.96,1.26-1.96,2.48Z"/>
    <path class="cls-2" d="m177.03,648.54c.34.22.95.46,1.53.46.84,0,1.24-.42,1.24-.95,0-.55-.33-.86-1.19-1.17-1.15-.41-1.69-1.04-1.69-1.8,0-1.03.83-1.87,2.2-1.87.65,0,1.21.18,1.57.39l-.29.84c-.25-.16-.71-.37-1.3-.37-.68,0-1.07.39-1.07.87,0,.53.38.76,1.21,1.08,1.11.42,1.67.97,1.67,1.92,0,1.12-.87,1.91-2.38,1.91-.7,0-1.34-.17-1.79-.44l.29-.88Z"/>
    <path class="cls-2" d="m191.66,649.48c-.3.16-.97.37-1.83.37-1.92,0-3.17-1.3-3.17-3.25s1.34-3.39,3.42-3.39c.68,0,1.29.17,1.61.33l-.26.9c-.28-.16-.71-.3-1.34-.3-1.46,0-2.25,1.08-2.25,2.41,0,1.48.95,2.38,2.21,2.38.66,0,1.09-.17,1.42-.32l.2.87Z"/>
    <path class="cls-2" d="m200.16,646.48c0,2.36-1.63,3.39-3.17,3.39-1.73,0-3.06-1.27-3.06-3.28,0-2.13,1.4-3.39,3.16-3.39s3.07,1.33,3.07,3.28Zm-5.06.07c0,1.4.8,2.45,1.94,2.45s1.94-1.04,1.94-2.48c0-1.08-.54-2.45-1.91-2.45s-1.96,1.26-1.96,2.48Z"/>
    <path class="cls-2" d="m201.93,645.07c0-.66-.01-1.2-.05-1.73h1.03l.07,1.05h.03c.32-.61,1.05-1.2,2.11-1.2.88,0,2.25.53,2.25,2.71v3.81h-1.16v-3.68c0-1.03-.38-1.88-1.48-1.88-.76,0-1.36.54-1.56,1.18-.05.15-.08.34-.08.54v3.83h-1.16v-4.65Z"/>
    <path class="cls-2" d="m213.93,641.51v1.83h1.66v.88h-1.66v3.44c0,.79.22,1.24.87,1.24.3,0,.53-.04.67-.08l.05.87c-.22.09-.58.16-1.03.16-.54,0-.97-.17-1.25-.49-.33-.34-.45-.91-.45-1.66v-3.48h-.99v-.88h.99v-1.53l1.13-.3Z"/>
    <path class="cls-2" d="m222.46,647.98c0,.66.01,1.24.05,1.74h-1.03l-.07-1.04h-.03c-.3.51-.97,1.19-2.11,1.19-1,0-2.2-.55-2.2-2.79v-3.73h1.16v3.53c0,1.21.37,2.03,1.42,2.03.78,0,1.32-.54,1.53-1.05.07-.17.11-.38.11-.59v-3.91h1.16v4.64Z"/>
    <path class="cls-2" d="m227.68,648.33c.51.32,1.26.58,2.06.58,1.17,0,1.86-.62,1.86-1.51,0-.83-.47-1.3-1.67-1.77-1.45-.51-2.34-1.27-2.34-2.52,0-1.38,1.15-2.41,2.87-2.41.91,0,1.57.21,1.96.43l-.32.94c-.29-.16-.88-.42-1.69-.42-1.21,0-1.67.72-1.67,1.33,0,.83.54,1.24,1.77,1.71,1.5.58,2.27,1.3,2.27,2.61,0,1.37-1.01,2.56-3.11,2.56-.86,0-1.79-.25-2.27-.57l.29-.96Z"/>
    <path class="cls-2" d="m239.63,649.72l-.09-.8h-.04c-.36.5-1.04.95-1.95.95-1.29,0-1.95-.91-1.95-1.83,0-1.54,1.37-2.38,3.83-2.37v-.13c0-.53-.15-1.48-1.45-1.48-.59,0-1.21.18-1.66.47l-.26-.76c.53-.34,1.29-.57,2.09-.57,1.95,0,2.42,1.33,2.42,2.61v2.38c0,.55.03,1.09.1,1.53h-1.05Zm-.17-3.25c-1.27-.03-2.7.2-2.7,1.44,0,.75.5,1.11,1.09,1.11.83,0,1.36-.53,1.54-1.07.04-.12.07-.25.07-.37v-1.11Z"/>
    <path class="cls-2" d="m244.19,640.37h1.16v9.35h-1.16v-9.35Z"/>
    <path class="cls-2" d="m253.08,647.98c0,.66.01,1.24.05,1.74h-1.03l-.07-1.04h-.03c-.3.51-.97,1.19-2.11,1.19-1,0-2.2-.55-2.2-2.79v-3.73h1.16v3.53c0,1.21.37,2.03,1.42,2.03.78,0,1.32-.54,1.53-1.05.07-.17.11-.38.11-.59v-3.91h1.16v4.64Z"/>
    <path class="cls-2" d="m260.63,640.37v7.71c0,.57.01,1.21.05,1.65h-1.04l-.05-1.11h-.03c-.36.71-1.13,1.25-2.17,1.25-1.54,0-2.73-1.3-2.73-3.24-.01-2.12,1.3-3.42,2.86-3.42.97,0,1.63.46,1.92.97h.03v-3.81h1.16Zm-1.16,5.57c0-.14-.01-.34-.05-.49-.17-.74-.8-1.34-1.67-1.34-1.2,0-1.91,1.05-1.91,2.46,0,1.29.63,2.36,1.88,2.36.78,0,1.49-.51,1.7-1.38.04-.16.05-.32.05-.5v-1.11Z"/>
    <path class="cls-2" d="m266.93,643.35l1.4,3.77c.15.42.3.92.41,1.3h.03c.12-.38.25-.87.41-1.33l1.26-3.74h1.23l-1.74,4.54c-.83,2.19-1.4,3.31-2.19,3.99-.57.5-1.13.7-1.42.75l-.29-.97c.29-.09.67-.28,1.01-.57.32-.25.71-.7.97-1.29.05-.12.09-.21.09-.28s-.03-.16-.08-.3l-2.36-5.88h1.26Z"/>
    <path class="cls-2" d="m276.33,640.96c.5-.1,1.29-.18,2.09-.18,1.15,0,1.88.2,2.44.65.46.34.74.87.74,1.57,0,.86-.57,1.61-1.5,1.95v.03c.84.21,1.83.91,1.83,2.23,0,.76-.3,1.34-.75,1.78-.62.57-1.62.83-3.07.83-.79,0-1.4-.05-1.78-.11v-8.73Zm1.15,3.64h1.04c1.21,0,1.92-.63,1.92-1.49,0-1.04-.79-1.45-1.95-1.45-.53,0-.83.04-1.01.08v2.86Zm0,4.25c.22.04.55.05.96.05,1.19,0,2.28-.44,2.28-1.73,0-1.21-1.04-1.71-2.29-1.71h-.95v3.39Z"/>
    <path class="cls-2" d="m284.83,641.55c.01.39-.28.71-.74.71-.41,0-.7-.32-.7-.71s.3-.72.72-.72.71.32.71.72Zm-1.29,8.17v-6.38h1.16v6.38h-1.16Z"/>
    <path class="cls-2" d="m287.87,646.74c.03,1.57,1.03,2.21,2.19,2.21.83,0,1.33-.15,1.77-.33l.2.83c-.41.18-1.11.4-2.12.4-1.96,0-3.14-1.29-3.14-3.21s1.13-3.44,2.99-3.44c2.08,0,2.63,1.83,2.63,3,0,.24-.03.42-.04.54h-4.48Zm3.4-.83c.01-.74-.3-1.88-1.61-1.88-1.17,0-1.69,1.08-1.78,1.88h3.39Z"/>
    <path class="cls-2" d="m294.76,645.07c0-.66-.01-1.2-.05-1.73h1.03l.07,1.05h.03c.32-.61,1.05-1.2,2.11-1.2.88,0,2.25.53,2.25,2.71v3.81h-1.16v-3.68c0-1.03-.38-1.88-1.48-1.88-.76,0-1.36.54-1.56,1.18-.05.15-.08.34-.08.54v3.83h-1.16v-4.65Z"/>
    <path class="cls-2" d="m302.72,646.74c.03,1.57,1.03,2.21,2.19,2.21.83,0,1.33-.15,1.77-.33l.2.83c-.41.18-1.11.4-2.12.4-1.96,0-3.14-1.29-3.14-3.21s1.13-3.44,2.99-3.44c2.08,0,2.63,1.83,2.63,3,0,.24-.03.42-.04.54h-4.48Zm3.4-.83c.01-.74-.3-1.88-1.61-1.88-1.17,0-1.69,1.08-1.78,1.88h3.39Z"/>
    <path class="cls-2" d="m309.45,648.54c.34.22.95.46,1.53.46.84,0,1.24-.42,1.24-.95,0-.55-.33-.86-1.19-1.17-1.15-.41-1.69-1.04-1.69-1.8,0-1.03.83-1.87,2.2-1.87.65,0,1.21.18,1.57.39l-.29.84c-.25-.16-.71-.37-1.3-.37-.69,0-1.07.39-1.07.87,0,.53.38.76,1.21,1.08,1.11.42,1.67.97,1.67,1.92,0,1.12-.87,1.91-2.38,1.91-.7,0-1.34-.17-1.79-.44l.29-.88Z"/>
    <path class="cls-2" d="m317.65,641.51v1.83h1.66v.88h-1.66v3.44c0,.79.22,1.24.87,1.24.3,0,.53-.04.67-.08l.05.87c-.22.09-.58.16-1.03.16-.54,0-.97-.17-1.25-.49-.33-.34-.45-.91-.45-1.66v-3.48h-.99v-.88h.99v-1.53l1.13-.3Z"/>
    <path class="cls-2" d="m324.37,649.72l-.09-.8h-.04c-.36.5-1.04.95-1.95.95-1.29,0-1.95-.91-1.95-1.83,0-1.54,1.37-2.38,3.83-2.37v-.13c0-.53-.15-1.48-1.45-1.48-.59,0-1.21.18-1.66.47l-.26-.76c.53-.34,1.29-.57,2.09-.57,1.95,0,2.42,1.33,2.42,2.61v2.38c0,.55.03,1.09.1,1.53h-1.05Zm-.17-3.25c-1.27-.03-2.7.2-2.7,1.44,0,.75.5,1.11,1.09,1.11.83,0,1.36-.53,1.54-1.07.04-.12.07-.25.07-.37v-1.11Z"/>
    <path class="cls-2" d="m327.34,645.33c0-.75-.01-1.4-.05-1.99h1.01l.04,1.25h.05c.29-.86.99-1.4,1.77-1.4.13,0,.22.01.33.04v1.09c-.12-.03-.24-.04-.39-.04-.82,0-1.4.62-1.56,1.49-.03.16-.05.34-.05.54v3.4h-1.15v-4.39Z"/>
  </g>
  <path class="cls-1" d="m199.33,542.31c0-.65.16-1.33-.21-1.94-.35-6.27-5.92-11.43-11.52-11.97-.76-.41-1.59-.2-2.38-.2-8.16-.02-16.33,0-24.49-.02-.79,0-1.62.22-2.38-.22-.73-.65-.43-1.52-.43-2.29-.02-7.58.04-15.16-.04-22.74-.03-2.32-.03-4.79-.76-6.94-2.05-6.03-5.59-8.62-12.51-9.68-.65-.72-1.51-.43-2.29-.43-5-.03-10-.01-15-.01.12.08.17.15.16.23,0,.02,0,.04-.01.06-.05.1-.1.15-.15.15v-.44c-5.29,0-10.59-.01-15.88.01-.77,0-1.64-.29-2.29.43-4.28.66-7.68,2.69-10.13,6.32-1.62,2.4-1.73,5.15-1.78,7.81-.14,8.4-.05,16.8-.06,25.21,0,2.69-.06,2.75-2.69,2.75-8.4,0-16.82.26-25.21-.08-6.3-.26-12.02,4.9-12.87,11.16-.16.26-.22.54-.22.84,0,11.26,0,22.51,0,33.77,0,.3.06.58.22.84.33,5.64,7.25,11.61,12.94,11.14,4.08-.33,8.21-.06,12.32-.06,1.62.34,3.25.34,4.87,0,2.64.63,5.34.21,8,.27,2.51.06,2.64-.23,2.64,2.26,0,8.62-.04,17.24.02,25.86.03,4.33,1.18,8.25,4.96,10.93,1.13.8,2.29,1.56,3.44,2.34h43.43c4.02-2.2,7.2-5.13,8.42-9.75.41-.76.2-1.59.2-2.38.02-9.2,0-18.39.02-27.59,0-.79-.21-1.62.22-2.38,9.27,0,18.54.02,27.81-.02,1.43,0,2.82.47,4.32-.06,4.99-1.76,8.71-6.51,9.08-11.88.37-.62.21-1.29.21-1.94.01-9.78.01-19.56,0-29.35Zm-129.03-6.25s-.01-.01-.02-.01c0,0,.02,0,.03,0,0,0,0,0,0,0Zm35.76,44.64s.06-.09.1-.13c.01.04.02.08.03.12-.04,0-.09.01-.13.01Zm2.21-3.98s0,0,0,0c0,0,0,0,.01-.01,0,0,0,.01,0,.01Zm2.64-35.45c.02-.12.04-.24.06-.35-.01.12-.03.24-.06.35Zm9.77-52.29c.13-.03.26-.05.39-.07.12.02.24.04.36.07-.25,0-.5,0-.75,0Zm2.58,75.4s-.02-.03-.03-.05c0-.02,0-.04,0-.06.04,0,.08.01.13.02-.03.03-.06.06-.09.09Zm1.04.44s-.03,0-.04.01c-.01-.02-.03-.04-.04-.06.03.01.07.02.1.03,0,0-.01.01-.02.02Zm1.66,1.7s0,0,0,0c0,0,0,.01,0,.01,0,0,0,0-.01,0Zm1.21-36.92c-.02-.06-.04-.12-.05-.19.07-.04.14-.07.21-.1-.04.1-.09.2-.15.3Zm.74-40.77c-.05.09-.1.13-.15.13v-.39c.1.06.16.13.16.19,0,.02,0,.05-.02.07Zm.65,39.64s-.09-.08-.13-.11c.07.01.15.03.23.05-.03.02-.06.04-.09.06Zm1.75,35.25s.07-.04.11-.06c0,.07,0,.13,0,.2-.04-.05-.08-.1-.12-.14Zm66.2,10.79c-.04-.31-.07-.61-.11-.92-.08-.27-.14-.54-.2-.81-.28-.55-.53-1.12-.41-1.79.03-.17.06-.34.09-.52.05.77.15,1.54.32,2.31.07.13.13.26.2.39.05.09.09.19.14.28.16.36.18.71-.02,1.06Z"/>
  <g class="cls-3">
    <path class="cls-2" d="m141.34,591.29c-9.95,6.73-17.53,4.79-22.91-1.03.65-1.33,1.41-2.73,2.3-4.17,5.85-9.43,26.16-20.27,26.41-20.39-.21.06-18.04,4.96-28.52,16.44-1.33,1.46-2.39,2.82-3.24,4.08-4.82-7.8-4.8-16.55,6.28-24.04,11.54-7.8,36.16-3.24,36.16-3.24,0,0-4.94,24.54-16.48,32.35Z"/>
    <path class="cls-2" d="m139.91,555.28c-5.92.1-12.31.9-17.17,3.3-1.36-9.42-1.77-19.04-1.76-19.31-.07.26-1.98,9.88-1.09,21.03-4.54,3.22-7.08,6.67-8.11,10.17-2.75-2.62-4.59-6.72-5-12.74-.88-13.15,14.56-31.09,14.56-31.09,0,0,17.5,15.53,18.58,28.63Z"/>
  </g>
  <polygon class="cls-2" points="359.97 539.56 359.97 566.55 400.24 566.55 400.24 583.69 359.97 583.69 359.97 629.16 339.39 629.16 339.39 522.26 403.56 522.26 403.56 539.56 359.97 539.56"/>
  <path class="cls-2" d="m454.55,522.26h-21.5l-38.47,106.9h21.46l11.05-31.61h32.8l11.37,31.61h21.92l-38.64-106.9Zm.2,58.74h-22.53l8.91-24.85.02-.06c.76-2.27,1.51-4.63,2.27-7.13.73,2.37,1.52,4.81,2.44,7.35l8.9,24.69Z"/>
  <path class="cls-2" d="m576.39,624.45c-2.05-3.6-4.68-13.82-7.89-26.78-2.2-9.07-6.12-15.61-11.72-19.54,3.8-2,7.09-4.6,9.67-7.68,4.29-5.11,6.55-11.49,6.55-18.44,0-8.73-3.37-16.35-9.5-21.47-7.32-6.24-17.52-9.02-33.09-9.02-9.96,0-20.08.81-27.06,2.15l-2.73.53v104.96h20.59v-43.54h9.46c10.81.4,15.2,4.54,18.04,16.99v.03c3.6,15,5.7,21.98,7.49,24.9l.99,1.61h21.9l-2.69-4.72Zm-23.97-70.95c0,9.79-7.89,15.88-20.58,15.88h-10.63v-30.86c2.32-.33,5.76-.6,10.14-.6,13.98.15,21.07,5.39,21.07,15.58Z"/>
  <path class="cls-2" d="m698.46,629.16h-20.3l-2.87-47.17c-.43-7.68-.92-16.4-1.25-24.81-2.28,6.48-4.79,13.29-7.59,20.52l-19.61,50.87h-15.28l-18-50.04c-2.62-7.34-4.83-13.81-6.71-19.68-.36,7.88-.81,16.2-1.31,24.22l-3.04,46.1h-19.99l7.9-106.9h23.15l18.98,50.79c3.22,9.02,5.75,16.57,7.79,23.31,2.11-6.67,4.75-14.24,8.16-23.35v-.04s19.79-50.71,19.79-50.71h23.14l7.06,106.9Z"/>
  <path class="cls-2" d="m761.54,522.26h-21.5l-38.47,106.9h21.46l11.06-31.61h32.8l11.37,31.61h21.92l-38.64-106.9Zm.2,58.74h-22.53l8.91-24.85.02-.06c.76-2.27,1.51-4.63,2.27-7.13.73,2.37,1.52,4.81,2.44,7.35l8.9,24.69Z"/>
  <path class="cls-2" d="m882.47,607.78l4.58,16.59-2.46,1.16c-5.24,2.47-15.78,5.12-29.65,5.12-16.13,0-29.94-4.83-39.94-13.98-10.52-9.61-16.07-23.47-16.07-40.07,0-8.13,1.44-15.75,4.27-22.67,2.79-6.81,6.87-12.79,12.13-17.77,5.26-4.99,11.57-8.85,18.74-11.5,7.28-2.68,15.31-4.04,23.86-4.04,15.8,0,24.56,3.7,26.86,4.84l2.48,1.22-5.25,16.75-3.65-1.67c-3.14-1.44-9.91-3.85-19.97-3.85-23.86,0-38.11,14.3-38.11,38.24s14.01,37.2,37.48,37.2c7.73,0,15.74-1.47,20.92-3.85l3.77-1.73Z"/>
  <rect class="cls-2" x="896.84" y="522.26" width="20.58" height="106.9"/>
  <path class="cls-2" d="m985.16,522.26h-21.5l-38.47,106.9h21.46l11.05-31.61h32.8l11.37,31.61h21.92l-38.64-106.9Zm.2,58.74h-22.53l8.91-24.85.02-.06c.76-2.27,1.51-4.63,2.27-7.13.73,2.37,1.52,4.81,2.44,7.35l8.9,24.69Z"/>
</svg>