<?xml version="1.0" encoding="UTF-8"?>
<svg id="Capa_1" data-name="Capa 1" xmlns="http://www.w3.org/2000/svg" viewBox="0 0 1080 1080">
  <defs>
    <style>
      .cls-1 {
        fill: none;
        stroke: #8e8e8e;
        stroke-miterlimit: 10;
        stroke-width: .32px;
      }

      .cls-2 {
        fill: #8e8e8e;
      }
    </style>
  </defs>
  <g>
    <path class="cls-1" d="m311.16,468.64c-.78-2.23-3.99-3.71-6.59-2.5-.51.24-1.06.44-1.49.76-1.54,1.14-3.26,2.16-4.53,3.51-4.76,5.09-9.24,10.36-12.86,16.16-2.12,3.39-4.19,6.8-6.32,10.18-2.17,3.45-4.39,6.87-6.61,10.3-.2.3-.48.56-.83.95-.1-.31-.17-.42-.18-.54-.35-3.14-.35-6.26.75-9.31.68-1.87,1.55-3.68,2.13-5.57,1.64-5.29.62-10.1-3.74-14.15-.7-.65-1.69-1.23-2.66-1.45-3.07-.71-6.2-.76-9.34-.25-2.51.4-4.34,1.54-5.29,3.7-.15.34-.39.65-.59.97-.1-.02-.2-.03-.29-.05,0-.44,0-.88,0-1.31,0-1.04.1-2.09-.02-3.13-.31-2.61-2.3-4.48-5.22-4.87-7.69-1.03-13.58.94-16.99,7.7-1.09,2.17-1.73,4.52-2.55,6.8-1.37,3.79-1.99,7.69-1.91,11.67.01.61,0,1.22-.06,1.83-.01.17-.19.34-.29.5-.19-.09-.46-.14-.56-.28-.51-.74-.99-1.49-1.45-2.25-1.89-3.2-3.69-6.45-5.69-9.6-1.29-2.03-2.44-4.09-3.25-6.31-1.93-5.28-3.87-10.56-5.79-15.84-1.78-4.9-3.74-9.75-5.24-14.71-1.52-5.02-4.05-9.57-7.07-13.95-1.1-1.59-2.59-2.85-4.54-3.65-1.06-.44-2.1-.49-3.17-.06-3.66,1.48-5.84,3.95-5.8,7.55.05,4.3.43,8.61,1.64,12.8.86,2.96,2.08,5.85,2.75,8.83,1.69,7.52,3.17,15.06,4.93,22.57,1.34,5.75,1.96,11.63,2.98,17.44.53,3.02,1.41,5.99,1.87,9.01.78,5.07,1.4,10.16,2,15.25.81,6.86,1.65,13.73,2.26,20.61.37,4.13,1.18,8.11,2.84,11.99.55,1.29.81,2.7,1.05,4.08.62,3.55,1.04,7.12,1.76,10.65.68,3.34,1.65,6.65,4.03,9.42,1.25,1.46,1.77,2.99,1.48,4.77-.03.2-.03.41-.05.61-.62,7.62-2.22,15.09-4.22,22.51-.56,2.05-1.03,4.13-1.52,6.2-.22.93.03,1.2,1.13,1.26.83.05,1.67.06,2.5.03,6.79-.18,13.5.28,20.18,1.52,3.42.64,6.96.91,10.46.96,3.91.06,7.82-.3,11.73-.54,1.25-.08,2.49-.37,3.73-.58,1.09-.18,1.71-.82,1.96-1.73.79-2.84,1.63-5.68,2.31-8.54,1.03-4.31,2.02-8.63,3.79-12.77,1.44-3.36,2.81-6.73,4.28-10.08.45-1.03,1.06-2.02,1.67-2.99.83-1.31,1.81-2.55,2.58-3.88,2.61-4.5,4.35-9.31,6.27-14.06,1.4-3.46,2.42-7.03,2.92-10.67.4-2.93.5-5.89.71-8.84.59-8.31,1.64-16.59.79-24.95-.15-1.51.24-3.19.89-4.61,1.15-2.54,2.55-5.02,4.07-7.41,3.73-5.84,6.97-11.88,9.8-18.1.62-1.36,1.39-2.68,2.23-3.95,2.15-3.25,4.41-6.45,6.56-9.71,1.6-2.43,2.99-4.95,3.62-7.73.16-.7.24-1.51,0-2.17Z"/>
    <g>
      <path class="cls-2" d="m253.02,481.4c.2-.32.44-.63.59-.97.95-2.15,2.78-3.29,5.29-3.7,3.14-.5,6.27-.45,9.34.25.97.22,1.96.8,2.66,1.45,4.36,4.05,5.38,8.86,3.74,14.15-.58,1.89-1.45,3.7-2.13,5.57-1.1,3.04-1.1,6.17-.75,9.31.01.12.08.24.18.54.34-.39.63-.65.83-.95,2.21-3.43,4.43-6.85,6.61-10.3,2.13-3.38,4.2-6.79,6.32-10.18,3.62-5.8,8.1-11.07,12.86-16.16,1.26-1.35,2.98-2.37,4.53-3.51.44-.32.98-.52,1.49-.76,2.6-1.21,5.82.27,6.59,2.5.23.66.15,1.47,0,2.17-.63,2.78-2.02,5.3-3.62,7.73-2.15,3.26-4.41,6.45-6.56,9.71-.84,1.27-1.61,2.59-2.23,3.95-2.83,6.22-6.07,12.26-9.8,18.1-1.53,2.39-2.92,4.86-4.07,7.41-.64,1.42-1.04,3.1-.89,4.61.84,8.35-.2,16.64-.79,24.95-.21,2.95-.31,5.91-.71,8.84-.5,3.65-1.52,7.21-2.92,10.67-1.92,4.74-3.66,9.56-6.27,14.06-.77,1.33-1.76,2.57-2.58,3.88-.61.97-1.22,1.95-1.67,2.99-1.46,3.35-2.84,6.73-4.28,10.08-1.78,4.14-2.76,8.46-3.79,12.77-.68,2.86-1.52,5.7-2.31,8.54-.25.91-.87,1.55-1.96,1.73-1.24.21-2.48.5-3.73.58-3.91.24-7.82.59-11.73.54-3.5-.05-7.04-.32-10.46-.96-6.68-1.25-13.39-1.7-20.18-1.52-.83.02-1.67.01-2.5-.03-1.1-.06-1.35-.33-1.13-1.26.48-2.07.96-4.14,1.52-6.2,2.01-7.42,3.61-14.89,4.22-22.51.02-.2.01-.41.05-.61.29-1.78-.23-3.31-1.48-4.77-2.38-2.77-3.35-6.08-4.03-9.42-.72-3.53-1.14-7.11-1.76-10.65-.24-1.38-.49-2.79-1.05-4.08-1.66-3.87-2.47-7.86-2.84-11.99-.61-6.88-1.45-13.74-2.26-20.61-.6-5.09-1.22-10.18-2-15.25-.46-3.02-1.34-5.99-1.87-9.01-1.03-5.81-1.64-11.69-2.98-17.44-1.76-7.51-3.24-15.06-4.93-22.57-.67-2.99-1.89-5.87-2.75-8.83-1.21-4.19-1.59-8.5-1.64-12.8-.04-3.61,2.14-6.07,5.8-7.55,1.07-.43,2.11-.38,3.17.06,1.95.8,3.44,2.06,4.54,3.65,3.02,4.38,5.56,8.93,7.07,13.95,1.5,4.96,3.46,9.82,5.24,14.71,1.92,5.28,3.86,10.56,5.79,15.84.81,2.22,1.96,4.28,3.25,6.31,2,3.15,3.8,6.4,5.69,9.6.45.77.94,1.52,1.45,2.25.1.14.37.19.56.28.1-.17.28-.33.29-.5.05-.61.07-1.22.06-1.83-.08-3.98.54-7.87,1.91-11.67.82-2.27,1.46-4.63,2.55-6.8,3.4-6.76,9.29-8.73,16.99-7.7,2.93.39,4.91,2.26,5.22,4.87.12,1.03.02,2.08.02,3.13,0,.44,0,.88,0,1.31.1.02.2.03.29.05Zm-24.56,111.41c0,.08,0,.17,0,.25-.6.06-1.2.17-1.79.16-4.27-.09-8.02-1.29-10.95-4.16-.35-.34-.78-.62-1.34-1.06-.08.56-.13.9-.18,1.25-.4,3.26-.66,6.55-1.24,9.79-1.12,6.27-2.63,12.47-4.61,18.57-.27.82-.22.87.76.86,1.84-.03,3.69-.04,5.53-.11,4.49-.17,8.92.17,13.3,1.06,4.02.82,8.09,1.4,12.24,1.31,4.03-.09,8.06-.21,12.09-.39,1.22-.06,2.43-.36,3.65-.55.83-.13,1.29-.58,1.48-1.31.54-2.06,1.11-4.11,1.68-6.16,1.31-4.67,2.52-9.36,4.01-13.99.8-2.48,2.12-4.84,3.2-7.25.19-.43.33-.88.47-1.24-2.92.37-5.72.79-8.53,1.05-2.86.26-5.66-.19-8.43-.81.26-.14.52-.16.77-.18,2.76-.18,5.52-.33,8.27-.53,2.2-.17,4.27-.68,6.18-1.76,3.1-1.74,5.22-4.16,6.87-7,2.25-3.87,3.75-7.99,5.42-12.06,1.46-3.55,2.73-7.16,3.3-10.91.49-3.28.72-6.59,1.03-9.89.78-8.4,1.63-16.8.85-25.25-.17-1.88-.04-3.79.9-5.54.92-1.73,1.87-3.44,2.87-5.14,3.3-5.6,6.62-11.19,9.93-16.79.22-.37.38-.76.6-1.22-.45-.05-.77-.06-1.07-.12-1.82-.37-3.65-.72-5.45-1.14-.44-.1-.82-.43-1.22-.66.05-.12.1-.23.15-.35,1.97.26,3.94.52,5.91.78-1.94-1.61-4.64-2.04-6.51-3.71.35-.12.67-.19.94-.11,1.06.3,2.12.62,3.15.98,1.15.4,2.27.86,3.41,1.28.61.23,1.09.09,1.49-.41.7-.87,1.45-1.71,2.15-2.59,3.52-4.39,6.67-8.99,9.14-13.92.61-1.22.92-2.56,1.28-3.87.23-.82-.16-1.54-.82-2.15-1.42-1.33-3.09-1.56-4.92-.58-2.2,1.18-3.95,2.79-5.49,4.6-1.08,1.26-2.14,2.53-3.2,3.8-3.18,3.78-6.49,7.47-9.02,11.65-3.92,6.46-7.94,12.88-11.96,19.29-.65,1.04-1.52,1.98-2.27,2.97-.36.47-.71.42-1.12.07-.63-.54-.83-1.2-.74-1.95.09-.79.16-1.57.24-2.36-.09-.01-.19-.03-.28-.04-.21.75-.4,1.5-.62,2.25-.18.61-.31,1.25-.6,1.83-.46.93-1.04,1.14-2.2,1.07-.31-.02-.76.13-.95.34-.37.41-.65.9-.88,1.39-1.09,2.38-2.25,4.75-3.21,7.17-1.18,2.98-2.99,5.55-5.65,7.65-.97.76-1.89,1.57-2.88,2.31-.62.46-.59.86.06,1.19.94.48,1.89,1,2.9,1.33,3.38,1.1,6.81,2.07,10.18,3.18,3.44,1.14,6.9,2.16,10.62,2.25.31,0,.64.07.92.19.27.12.48.35.9.67-.55.1-.85.21-1.15.2-1.46-.05-2.98.08-4.37-.25-4.28-1.01-8.51-2.18-12.76-3.31-3.42-.91-6.9-1.7-9.76-3.74-.12-.08-.46-.07-.59.03-1.15.83-2.02,1.86-2.65,3.03,1.17.63,2.37,1.15,3.39,1.87,2.81,1.99,6.02,3.26,9.34,4.4,2.57.88,5.07,1.93,7.59,2.92.36.14.65.42.97.63-.05.09-.1.17-.15.26-.5-.13-1.01-.22-1.5-.39-5.12-1.71-10.23-3.44-15.36-5.13-1.78-.58-3.59-1.07-5.39-1.6-.81-.24-1.29.06-1.65.71-.37.67.17.92.61,1.23.96.69,1.93,1.37,2.89,2.07.17.12.3.3.44.45-.05.05-.09.1-.14.14-1.48-.58-2.95-1.15-4.43-1.73-.06.05-.11.11-.17.16.92.88,1.87,1.74,2.75,2.65.88.91,1.71,1.86,2.56,2.8-.08.06-.16.12-.24.19-1.77-1.54-3.56-3.06-5.8-4.11.16.42.43.75.69,1.09,1.27,1.66,2.74,3.24,3.77,5.01,1.48,2.55,2.66,5.25,3.95,7.89,1.04,2.13,2.08,4.27,2.24,6.63.28,4.07.53,8.14.78,12.21.01.21-.04.43-.07.65-.07.03-.15.06-.22.09-.22-.23-.52-.43-.64-.7-.22-.47-.39-.96-.47-1.46-.29-2-.58-3.99-.79-5.99-.36-3.39-1.07-6.71-2.65-9.84-1.29-2.56-2.5-5.15-3.93-7.65-1.06-1.86-2.39-3.59-3.61-5.37-.15-.22-.4-.39-.61-.59-.11.04-.22.07-.32.11.11.42.11.9.34,1.26.65.98,1.49,1.87,2.07,2.88.45.8.61,1.72.9,2.59-.09.03-.19.05-.28.08-.83-1.51-1.42-3.15-3.06-4.48.55,1.3,1.02,2.4,1.48,3.5-.09.03-.19.07-.28.1-.26-.36-.49-.72-.78-1.06-.77-.92-2.27-1.02-3.09-.17-.97,1.01-1.89,2.06-2.83,3.08-.16.18-.34.35-.65.66,2.92-5.69,5.73-11.18,8.55-16.68-.09-.06-.17-.12-.26-.18-.68.26-1.36.52-2.04.78.04-.33.17-.55.37-.7.82-.59,1.68-1.15,2.5-1.75.41-.3.77-.66,1.15-.99-.06-.09-.11-.18-.17-.27-2.66.62-5.32.96-8.02.23,2.44-.45,5-.46,7.35-1.64-.5-.12-.85-.21-1.41-.35,1.85-.57,3.48-1.06,5.1-1.56-.02-.12-.04-.24-.06-.37-.83-.1-1.66-.19-2.49-.31-1-.15-1.74-.65-1.97-1.3.64.1,1.28.27,1.93.29,1.16.04,1.52-.4,1.2-1.35-.01-.03.05-.08.09-.14,1.16.25,2.32.54,3.49.76,1.93.35,2.8.23,3.36-.42-.84-.14-1.67-.28-2.49-.41.01-.07.03-.14.04-.22,1.39-.42,3-.19,4.29-.9,0-.08-.01-.17-.02-.25l-1.96-.35c.25-.26.49-.31.72-.41,2.07-.92,4.18-1.9,5.47-3.61,2.9-3.86,4.58-8.08,4.13-12.83-.28-2.97-1.68-5.3-4.5-6.95-.43-.25-.93-.42-1.39-.63-.05.06-.11.12-.16.18,2.25,1.69,3.49,3.84,3.84,6.4-.27-.23-.47-.5-.65-.77-.99-1.5-2.34-2.63-4.17-3.3-.56-.21-1.1-.45-1.62-.73-1.72-.91-3.4-.87-5.01.18-2.06,1.34-4.11,2.71-6.15,4.08-.28.19-.5.46-.74.69.13.13.17.2.24.24,2.71,1.41,4.89,3.38,7.14,5.28.6.51,1.29.95,2,1.32,2.02,1.05,3.76.93,5.6-.36,1.44-1.01,2.52-2.3,3.37-3.74.14-.23.28-.46.43-.69.11.24.1.44.04.62-.76,2.39-2.21,4.41-4.16,6.16-.35.31-.83.58-1.31.71-2.74.79-5.36.67-7.67-1.01-.93-.67-1.78-1.44-2.57-2.24-1.22-1.22-2.36-2.5-3.52-3.77-.6-.66-1.21-1.25-2.31-.85-.12.04-.3.04-.43,0-1.22-.34-2.01.28-2.65,1.02-.94,1.09-1.79,2.24-2.66,3.38-.85,1.12-1.56,2.34-2.55,3.35-4.03,4.14-7.56,8.6-11.15,13.03-4.36,5.38-8.98,10.6-12.94,16.24-.76,1.08-1.69,2.06-2.55,3.08-.23.28-.48.54-.71.81-.13-.08-.25-.15-.38-.23.22-.54.34-1.13.67-1.62,1.83-2.74,3.62-5.51,5.6-8.17,2.64-3.55,5.44-7.02,8.19-10.51.38-.48.37-.74-.24-1.08-1.1-.6-2.14-1.29-3.19-1.96-.21-.14-.35-.37-.52-.56.04-.03.08-.05.12-.08.84.42,1.68.84,2.68,1.34-.1-.48-.15-.7-.22-1.04.99.49,1.85.92,2.71,1.34.06-.08.13-.16.19-.24-.54-.64-1.08-1.29-1.62-1.93.05-.05.1-.1.16-.15.49.2.98.38,1.46.59.75.33,1.18.16,1.69-.47,1.5-1.83,3.1-3.6,4.72-5.35,1.2-1.3,2.53-2.51,3.76-3.79.62-.64.85-1.39.84-2.26-.01-1.14.08-2.29.23-3.43.23-1.77.54-3.53.84-5.3.15-.91.03-1.77-.41-2.6-.35-.68-.64-1.39-.96-2.09.04-.03.09-.06.13-.09.41.26.83.51,1.45.9-.22-2.37-1.77-4.04-2.59-5.95.14-.1.27-.19.41-.29.43.57.87,1.15,1.3,1.72.12-.08.24-.16.36-.24-.57-1.47-1.15-2.94-1.78-4.55.34.12.46.18.59.21.11.03.24.05.53.11-.94-2.17,1.14-3.51,1.55-5.31.53,4.08,1.18,8.14,1.18,12.21,0,4.06-.65,8.12-1.03,12.26,2.12-2.69,5.54-3.93,8.53-5.93-1.77-.32-3.44-.17-5-1.01.32-.1.45-.16.59-.19,1.29-.27,2.58-.51,3.87-.8,1.5-.34,2.97-.78,4.48-1.07,2.33-.44,3.87-1.57,4.53-3.63.69-2.16.6-4.33.15-6.51-.04-.2-.43-.43-.7-.49-.6-.14-1.23-.18-1.84-.26,0-.08.02-.16.03-.23.3-.04.61-.07.91-.12.31-.05.62-.13.93-.2-.01-.08-.03-.15-.04-.23-3.95-1.45-7.77-.51-11.59.65,1.75-1.18,3.68-2.03,5.85-2.18,2.16-.14,4.33-.03,6.56-.03,0,.03.04-.1.03-.22-.12-3.64-.24-7.28-.37-10.91,0-.08-.01-.15-.03-.23-.34-1.43-1.1-2.92-3.28-3.22-1.02-.14-2.05-.28-3.08-.34-5.49-.34-9.53,1.74-11.98,6.01-1.33,2.32-2.26,4.84-3.21,7.32-1.41,3.67-2.1,7.45-1.87,11.35.1,1.65.12,3.31.1,4.97,0,.77-.19,1.53-.29,2.29-.11.02-.23.05-.34.07-.48-.61-1.06-1.18-1.43-1.84-1.44-2.52-2.81-5.08-4.21-7.62-.18-.33-.39-.65-.62-1.03-.41.2-.73.37-1.06.52-2.09.98-4.14,2.02-6.27,2.9-2.41,1-4.94,1.71-7.68,1.49-.34-.03-.67-.11-1.01-.17.11-.19.21-.25.31-.26,5.35-.62,9.8-2.96,14.03-5.72.19-.13.24-.43.36-.65-.27,0-.59-.09-.8,0-1.23.56-2.43,1.17-3.64,1.75-.25.12-.51.22-.76.33-.06-.07-.11-.15-.17-.22,1.16-.98,2.28-1.99,3.49-2.92.66-.5.74-.91.24-1.53-2.38-2.97-3.92-6.27-5.03-9.75-.07-.23-.2-.45-.31-.71-.78.29-1.45.6-2.15.79-.7.2-1.44.28-2.16.42-.03-.09-.06-.18-.09-.27.27-.11.55-.21.81-.35.89-.46,1.78-.92,2.65-1.42.47-.26.52-.63.11-1.08-3.34,1.47-6.89,1.92-10.57,1.66.27-.17.56-.25.86-.27,2.18-.14,4.3-.49,6.11-1.66,1-.64,1.96-1.34,2.93-2.02.1-.07.18-.21.18-.32.06-.99-.72-1.68-1.83-1.61-.23.01-.46.05-.68.08-2.5.35-4.56,1.52-6.6,2.72-1.58.93-3.16,1.87-4.75,2.79-.26.15-.57.22-.86.33,0-.24.06-.36.16-.43,2.43-1.67,4.81-3.41,7.32-4.98,1.67-1.05,3.6-1.59,5.71-1.46.15,0,.31-.04.5-.07-2.55-6.61-5.08-13.17-7.62-19.77-1.27.61-2.51.83-3.88.5.84-.43,1.68-.87,2.7-1.39-3.04-.83-5.4.38-7.87,1.21.16-.29.35-.46.58-.6,1.7-1.1,3.61-1.8,5.67-2.15,1.97-.33,2.03-.33,1.35-2.05-1.54-3.87-3.64-7.49-6.45-10.76-.65-.76-1.5-1.4-2.33-2.03-.95-.72-2.03-.79-3.12-.2-2.69,1.46-4.24,3.56-4.4,6.36-.07,1.22.13,2.44.16,3.66.1,4.52,1.11,8.89,2.78,13.16.72,1.85,1.23,3.77,1.68,5.69,1.18,5.06,2.34,10.13,3.37,15.21,1.51,7.47,2.86,14.96,4.37,22.43,1.72,8.51,2.91,17.07,4.02,25.65.91,7.06,1.6,14.14,2.46,21.2.31,2.52.86,5.03,1.31,7.54.04.24.21.47.32.7.69-1.53.91-3.12,1.96-4.44.06.34.03.67-.02.99-.3,1.79-.62,3.58-.9,5.37-.06.38,0,.78,0,1.17.11,0,.22.02.33.03.57-1.16,1.14-2.32,1.71-3.48.1.03.19.06.29.09-.08.3-.13.61-.23.91-.46,1.39-.95,2.78-1.39,4.18-.09.3-.01.64-.01.97.08.02.15.03.23.05l1.49-1.9c.09.05.18.09.26.14-.47.92-.92,1.84-1.43,2.74-.49.89-.1,1.69.16,2.75.58-.84,1.02-1.49,1.46-2.14.1.04.2.08.3.13-.27.71-.5,1.43-.81,2.12-.41.92-.58,1.84-.39,2.83.45,2.26.78,4.53,1.26,6.78.76,3.58,2.3,6.82,5.46,9.32.99.78,1.91,1.63,2.89,2.41,2.88,2.29,6.11,3.99,9.99,4.58.26.04.52.13.78.19Zm27.1-111.02c.09.05.19.1.28.15-.09.2-.18.41-.28.6-.7,1.28-1.42,2.56-2.1,3.85-.15.29-.33.68-.22.94.61,1.39.33,2.78.06,4.15-.24,1.21.65,2.03.9,3.17.37-.34.6-.56.84-.78.09.04.19.09.28.13-.47,1.21-.94,2.43-1.45,3.72.46-.04.77-.07,1.08-.1,3.15-.32,5.75.48,7.82,2.71,1.81,1.94,2.89,4.14,3.56,6.54.08.28.18.56.31,1,.28-.28.49-.42.58-.61.71-1.41,1.48-2.81,2.08-4.25.5-1.19.88-2.43,1.16-3.67.22-.98.24-2,.25-3,0-.48-.21-.97-.37-1.65.49.4.81.65,1.22.98.78-1.24,1.52-2.38,1.28-3.78-.33-1.91-.68-3.82-1.02-5.73-.03-.17-.02-.34-.03-.51.11-.03.22-.05.34-.08.49,1.15.99,2.3,1.48,3.44.21-.31.29-.6.23-.85-.46-1.96-.72-4-1.48-5.86-.88-2.13-2.57-3.66-5.36-4.07-3.54-.52-7-.28-10.46.41-.26.05-.53.23-.69.42-1.31,1.56-2.06,3.34-2.47,5.23,0,.02.07.05.13.1.68-.86,1.36-1.72,2.04-2.58Z"/>
      <path class="cls-2" d="m232.75,519.55c.13.26.3.51.39.78.8,2.46,2.6,4.37,4.5,6.16.71.67,1.96.89,2.97,1.3.28.11.58.18.9.27-.26.6-.75.59-1.25.55-1.97-.13-3.49-1.01-4.7-2.31-.91-.98-1.83-2-2.46-3.13-.49-.87-.56-1.93-.77-2.92-.04-.21.11-.45.18-.68.08,0,.16-.01.24-.02Z"/>
      <path class="cls-2" d="m235.79,529.33c-1.41-1.31-2.82-2.62-4.24-3.94,1.62.1,3.84,1.98,4.44,3.76-.07.06-.13.12-.2.18Z"/>
    </g>
  </g>
  <path class="cls-2" d="m513.45,521.65c1.92.7,3.92,1.11,5.81,1.97,1.66.75,3.24,1.67,4.69,2.76,2.66,2.01,4.82,4.6,6.45,7.5,3.24,5.75,4.57,12.39,5.87,18.79,2.05,10.03,1.26,21.2,11.16,28.95,2.56,2.01,1.65,8.87,1.61,15.26-.01,1.86-1.53,3.36-3.39,3.37-10.64.05-20.67.25-30.66-.34-1.74-.1-4.16-4.41-4.69-7.12-2.17-10.99-3.21-22.23-5.63-33.14-2.66-12.02-7.34-23.24-20.67-25.94-6.73-1.36-13.73-1.24-21.28-1.84v68.81c-12.32.5-24.12,1.08-35.93,1.27-1.11.02-3.2-2.34-3.24-3.65-.1-3.26-.92-6.69-.03-9.91.46-1.66,1.44-3.08,2.82-4.12.82-.61,1.73-.92,2.61-1.4.92-.5,1.49-1.45,1.87-2.39.94-2.37.93-4.88.89-7.38-.04-2.8-.01-5.61-.02-8.41-.01-5.65-.03-11.3-.05-16.95-.04-11.3-.09-22.61-.15-33.91-.06-11.3-.13-22.61-.22-33.91-.09-11.3-.19-22.6-.31-33.91,0-.79-.02-1.58-.03-2.37-.04-3.36-2.07-6.76-3.48-10-.85-1.98-2.5-3.57-3.4-5.53-4.68-10.13-2.94-12.99,7.73-13.23,18.97-.43,37.93-1.1,56.9-1.29,5.81-.06,11.73.62,17.42,1.84,22.9,4.9,35.96,22.24,36.72,48.51.23,7.99-.38,16.07-2.55,23.79-2.04,7.27-5.5,14.09-10.44,19.82-2.2,2.54-4.65,4.86-7.3,6.92-3.07,2.4-6.4,4.28-9.06,7.18Zm-51.1-88.35c0,19.79.02,37.88,0,55.96q-.02,15.88,15.45,15.58c20.45-.4,32.09-12.37,32.54-33.84.09-4.37-.57-8.79-1.19-13.14-1.56-10.96-7.49-19.07-17.55-21.57-9.34-2.33-19.27-2.08-29.25-2.99Z"/>
  <path class="cls-2" d="m831.38,532.05c0-16.59-.87-33.24.21-49.77,1.46-22.37,17.25-36.75,39.66-37.29,20.32-.49,39.63,2.94,55.54,17.01,14.78,13.07,19.51,30.56,19.95,49.15.67,28.05.46,56.14.11,84.2-.31,24.81-13.87,37.69-38.67,37.96-16.11.18-31.61-2.09-46.21-9.4-19.73-9.88-29.31-26.29-30.33-47.68-.7-14.7-.13-29.45-.13-44.18-.04,0-.09,0-.13,0Zm31.12,4.16c0,8.65-.18,17.3.05,25.93.22,8.61-.05,17.37,1.54,25.76,1.88,9.89,8.45,17.01,18.82,18.22,9.78,1.14,20.93,3.46,27.14-7.43,2.74-4.8,4.05-10.98,4.21-16.58.5-18.44.32-36.91.12-55.37-.12-10.96-.07-22-1.35-32.86-1.92-16.27-14.07-24.69-32.38-23.6-12.15.72-17.99,8.99-18.12,25.97-.1,13.32-.02,26.64-.03,39.96Z"/>
  <path class="cls-2" d="m694.16,511.68c0-16.59-.87-33.24.21-49.77,1.46-22.37,17.25-36.75,39.66-37.29,20.32-.49,39.63,2.94,55.54,17.01,14.78,13.07,19.51,30.56,19.95,49.15.67,28.05.46,56.14.11,84.2-.31,24.81-13.87,37.69-38.67,37.96-16.11.18-31.61-2.09-46.21-9.4-19.73-9.88-29.31-26.29-30.33-47.68-.7-14.7-.13-29.45-.13-44.18-.04,0-.09,0-.13,0Zm31.12,4.16c0,8.65-.18,17.3.05,25.93.22,8.61-.05,17.37,1.54,25.76,1.88,9.89,8.45,17.01,18.82,18.22,9.78,1.14,20.93,3.46,27.14-7.43,2.74-4.8,4.05-10.98,4.21-16.58.5-18.44.32-36.91.12-55.37-.12-10.96-.07-22-1.35-32.86-1.92-16.27-14.07-24.69-32.38-23.6-12.15.72-17.99,8.99-18.12,25.97-.1,13.32-.02,26.64-.03,39.96Z"/>
  <path class="cls-2" d="m604.4,540.04c0,15.29-.09,30.02.02,44.75.14,17.69.22,17.68-16.42,17.33-5.39-.11-10.78-.38-16.17-.21-4.04.13-6.24-1.05-5.97-5.79.19-3.43-.34-6.9-.19-10.33.06-1.44.78-3.8,1.68-4.09,5.77-1.85,5.34-6.46,5.33-11.27-.13-39.97-.23-79.93-.18-119.9.01-7.34-1.37-13.77-5.19-20.22-2.4-4.06-2.41-9.23-2.5-13.81,0-.37,0-.75.15-1.08.25-.53.84-.81,1.39-1,3.2-1.09,6.85-.43,10.17-.3,3.71.15,7.43.27,11.14.39,7.43.25,14.85.49,22.27.95,6.58.41,13.16.97,19.7,1.85,31.52,4.23,44.78,20.12,46.63,53.91.6,11,.15,22.3-1.51,33.17-3.45,22.53-18.81,35.17-41.73,35.62-9.13.18-18.26.03-28.61.03Zm-.58-101.42c0,24.9-.06,47.98.14,71.06.01,1.59,1.75,4.16,3.15,4.6,18.2,5.67,36.2-4.95,38.96-24.59,1.45-10.34-.19-21.43-1.94-31.9-1.43-8.51-7.81-14.3-15.69-16.25-7.61-1.88-15.63-1.94-24.62-2.93Z"/>
  <path class="cls-2" d="m404.09,597.15c-.04,1.17-2.7,3.07-4.28,3.22-29.12,2.86-58.26,5.55-87.41,8.12-.1.01-.21.01-.32.01-1.64,0-4.3-.92-4.37-1.58-.29-2.87-.81-7.14.78-8.53,4.7-4.1,4.28-9.08,4.28-14.2.01-50.76.05-101.53-.09-152.29-.01-3.88.51-6.53,4.84-6.81,26.87-1.68,53.74-3.34,80.62-4.98.03,0,.07,0,.1,0,.62,0,1.33.35,3.28.87,0,10.43-.13,20.54.07,30.64.07,3.74-1,5.68-4.81,5.68-.1,0-.2,0-.3,0-2.13-.05-4.25-.07-6.37-.07-3.19,0-6.36.03-9.47.03-.37-.8-.67-1.21-.76-1.66-1.84-9.07-2.28-11.23-7.72-11.23-1.72,0-3.93.22-6.83.5-5.6.54-11.26.67-16.77,1.66-1.83.33-4.68,2.71-4.71,4.21-.36,14.6-.22,29.21-.22,44.89,14.17-1.36,27.75-2.66,42.51-4.07-.44,7.57-.52,15.04-1.59,22.37-.25,1.71-3.76,3.83-6.02,4.18-9,1.39-18.09,2.3-27.16,3.09-5.23.46-8.01,2.2-7.88,8.23.34,15.77.11,31.56.11,48.25,13.84-1.11,26.99-2.16,40.1-3.22,1.61-5.66,3.62-7.96,9.49-7.96,2.74,0,6.33.5,11.11,1.39,0,9.63.15,19.44-.2,29.24Z"/>
  <path class="cls-2" d="m121.65,643.15c-19.83,5.43-39.06,10.76-58.33,15.95-8.75,2.36-17.62,4.33-26.37,6.68-1.51.4-2.79.62-3.86.62-3.16,0-4.47-1.92-4.31-6.68.47-14.08.26-28.18.21-42.27-.12-33.69-.3-67.38-.49-101.06-.03-5.52-1.82-10.08-6.79-13.75-8.07-5.96-7.19-11.89,2.34-14.77,11.92-3.61,24.13-6.39,37.35-9.83v155.49c10.67-2.68,20.39-4.9,29.89-7.75,1.46-.44,2.03-3.73,2.87-5.76.87-2.09,1.1-5.77,2.41-6.13,7.1-1.94,14.42-3.27,21.76-4.15,0,0,.02,0,.03,0,.84,0,3.05,4,3.14,6.17.37,8.76.15,17.55.15,27.23Z"/>
  <path class="cls-2" d="m1036.76,633.7v-14.45l26.91,10.81c.04,11.3.07,22.59.11,33.89-9.1-2.16-17.85-4.02-26.46-6.31-21.91-5.83-43.75-11.85-65.62-17.81-6.29-1.71-6.42-3.45-4.1-9.1,2.74-6.68,5.71-13.78,5.8-20.73.46-35.6.05-71.22-.13-106.82-.04-6.96-1.37-13.54-6.79-19.2-1.04-1.09-1.38-2.71-1.65-4.37s.81-3.22,2.46-3.55,3.33-.61,4.9-.38c9.66,1.42,19.23,3.29,28.85,4.93,4.87.83,5.29,3.87,5.29,7.47-.02,24.16.04,48.31.09,72.47.04,20.61.05,41.23.28,61.84.02,1.44,1.32,3.79,2.6,4.16,8.81,2.55,17.76,4.69,27.45,7.16Z"/>
  <path class="cls-2" d="m176.88,629.69c-14.52,3.78-28.97,7.81-43.46,11.74-.69-.47-1.39-.95-2.08-1.42,2.26-5.56,4.6-11.1,6.76-16.69,1.72-4.46,4.61-8.99,4.61-13.49-.05-41.05-.44-82.1-1.29-123.14-.11-4.93-3.08-10.07-5.67-14.62-4.79-8.4-3.59-11.65,6.02-13.51,8.91-1.73,17.83-3.44,26.73-5.2.98-.19,1.86-.29,2.64-.29,3.7,0,5.19,2.18,4.5,6.67-7.11,45.7-1.12,91.63-2.38,137.44-.14,5.19,3.05,10.49,4.92,15.67.9,2.51,2.4,4.82,3.46,7.28,2.06,4.78,1.07,8.05-4.75,9.56Z"/>
  <g>
    <path class="cls-2" d="m404.28,567.74c-4.79-.9-8.37-1.4-11.11-1.4-5.87,0-7.88,2.3-9.49,7.96-13.11,1.05-26.26,2.11-40.09,3.22,0-16.7.22-32.48-.11-48.25-.13-6.03,2.65-7.77,7.88-8.23,9.08-.8,18.16-1.71,27.16-3.09,2.26-.35,5.77-2.47,6.02-4.18,1.07-7.32,1.14-14.79,1.59-22.37-14.76,1.42-28.35,2.72-42.51,4.07,0-15.68-.14-30.29.22-44.89.03-1.5,2.88-3.88,4.71-4.21,5.51-.99,11.17-1.12,16.77-1.66,2.91-.28,5.12-.5,6.83-.5,5.45,0,5.89,2.16,7.72,11.23.09.45.39.86.76,1.66,3.11,0,6.28-.03,9.47-.03,2.12,0,4.25.01,6.37.07.1,0,.2,0,.3,0,3.81,0,4.88-1.93,4.81-5.67-.19-10.1-.07-20.2-.07-30.64-1.95-.52-2.65-.87-3.28-.87-.03,0-.07,0-.1,0-26.87,1.63-53.75,3.29-80.62,4.97-4.34.27-4.85,2.92-4.84,6.81.14,50.76.11,101.52.09,152.29,0,5.12.42,10.1-4.28,14.2-1.59,1.39-1.08,5.65-.78,8.53.07.66,2.73,1.58,4.37,1.58.11,0,.22,0,.32-.01,29.15-2.57,58.29-5.26,87.41-8.12,1.58-.16,4.24-2.06,4.28-3.22.35-9.79.2-19.6.2-29.24Zm-7.22,25.52c-25.1,2.46-51.72,4.94-81.2,7.55,4.11-5.3,4.07-11.17,4.04-15.64,0-.38,0-.76,0-1.14v-17.62c.02-44.06.03-89.61-.09-134.43,26.35-1.65,50.81-3.16,74.56-4.6,0,.78,0,1.56,0,2.33-.03,6.93-.05,13.52.06,20.21-1.32-.02-2.73-.03-4.32-.03-1.37,0-2.75,0-4.1.01-.68-3.05-1.36-5.26-2.56-7.23-3.44-5.64-9.35-5.64-11.29-5.64-2.04,0-4.43.23-7.46.52h-.06c-1.72.17-3.43.3-5.24.43-3.93.29-7.99.59-12.1,1.32-4.33.78-10.45,5.37-10.59,11.09-.28,11.42-.25,22.72-.23,34.68,0,3.38.01,6.88.01,10.39v7.89l7.8-.75,5.53-.53,28.78-2.76c-.19,3.92-.4,7.69-.84,11.38-.15.07-.28.12-.39.16-9.17,1.41-18.6,2.32-26.63,3.03-12.14,1.07-14.53,9.04-14.39,15.54.24,11.13.2,22.16.15,33.84-.02,4.64-.04,9.44-.04,14.26v7.77l7.69-.62,31.51-2.53,8.58-.69,4.92-.4,1.36-4.78c.47-1.65.82-2.36.98-2.63.23-.06.72-.14,1.65-.14,1.05,0,2.35.1,4,.32,0,.21,0,.42,0,.62.02,6.17.05,12.52-.11,18.8Z"/>
    <path class="cls-2" d="m121.5,615.74c-.09-2.17-2.3-6.17-3.14-6.17,0,0-.02,0-.03,0-7.34.88-14.66,2.21-21.76,4.15-1.32.36-1.55,4.03-2.41,6.13-.84,2.02-1.4,5.32-2.87,5.76-9.5,2.84-19.22,5.06-29.89,7.75v-155.49c-13.22,3.44-25.43,6.22-37.35,9.83-9.53,2.88-10.41,8.82-2.34,14.77,4.97,3.67,6.75,8.23,6.79,13.75.19,33.69.37,67.37.49,101.06.05,14.09.25,28.19-.21,42.27-.16,4.76,1.15,6.69,4.31,6.69,1.07,0,2.35-.22,3.86-.62,8.75-2.35,17.62-4.33,26.37-6.68,19.27-5.19,38.5-10.52,58.33-15.95,0-9.68.22-18.47-.15-27.23Zm-85.34,9.26c-.01-2.58-.03-5.17-.04-7.75-.13-34.88-.32-70.46-.5-101.07-.05-8.08-3.16-14.29-9.51-18.98-1.2-.89-1.93-1.63-2.34-2.14.51-.28,1.31-.65,2.47-1,8.09-2.45,16.34-4.52,25.09-6.71.98-.24,1.96-.49,2.95-.74v155.45l8.97-2.25c2.66-.67,5.29-1.32,7.84-1.94,7.76-1.91,15.08-3.71,22.37-5.89,4.64-1.39,5.98-5.57,6.87-8.34.17-.52.34-1.06.47-1.37.41-.99.68-2.01.92-2.94,4.03-.98,8.27-1.81,12.69-2.47.23,5.92.19,11.92.15,18.26,0,.93-.01,1.87-.02,2.83-4.06,1.11-8.09,2.22-12.11,3.33-14.11,3.88-27.44,7.54-41.08,11.21-4.34,1.17-8.82,2.27-13.16,3.33-4.02.99-8.17,2.01-12.27,3.09.36-11.35.29-22.82.23-33.92Z"/>
    <path class="cls-2" d="m181.63,619.95c-1.06-2.46-2.56-4.77-3.46-7.28-1.86-5.18-5.06-10.49-4.92-15.67,1.26-45.81-4.73-91.74,2.38-137.44.7-4.48-.8-6.67-4.5-6.67-.78,0-1.66.1-2.64.29-8.9,1.76-17.82,3.48-26.73,5.2-9.61,1.86-10.81,5.11-6.02,13.51,2.6,4.55,5.57,9.69,5.67,14.62.86,41.04,1.24,82.09,1.29,123.14,0,4.5-2.89,9.03-4.61,13.49-2.16,5.6-4.5,11.13-6.76,16.69.7.47,1.39.95,2.08,1.42,14.48-3.93,28.93-7.96,43.46-11.74,5.82-1.51,6.81-4.79,4.75-9.56Zm-6.63,3.02c-10.41,2.71-20.93,5.59-31.11,8.37-.53.15-1.06.29-1.59.44.85-2.09,1.69-4.2,2.5-6.3.41-1.07.94-2.21,1.49-3.42,1.67-3.64,3.56-7.77,3.55-12.41-.06-43.97-.48-84.3-1.3-123.27-.14-6.52-3.63-12.63-6.44-17.55l-.1-.18c-.78-1.35-1.23-2.31-1.49-2.97.6-.19,1.46-.42,2.67-.65,1.81-.35,3.61-.7,5.42-1.05,6.47-1.25,13.14-2.54,19.74-3.84-4.4,29.49-3.54,59.26-2.71,88.07.46,15.97.94,32.48.49,48.61-.14,5.16,1.88,9.88,3.66,14.04.6,1.41,1.18,2.74,1.63,4.01.67,1.86,1.54,3.53,2.31,5.01.49.94.95,1.82,1.3,2.65.06.14.12.27.16.39-.06.02-.13.04-.2.05Z"/>
  </g>
</svg>