<?xml version="1.0" encoding="UTF-8"?>
<svg id="Capa_1" data-name="Capa 1" xmlns="http://www.w3.org/2000/svg" viewBox="0 0 1080 1080">
  <defs>
    <style>
      .cls-1, .cls-2 {
        fill: #d4d5d8;
      }

      .cls-3 {
        font-size: 37.05px;
      }

      .cls-3, .cls-4, .cls-5 {
        fill: #8e8e8e;
      }

      .cls-3, .cls-4, .cls-2 {
        font-family: Fraunces-Bold, Fraunces;
        font-variation-settings: 'opsz' 9, 'wght' 700, 'SOFT' 0, 'WONK' 1;
        font-weight: 700;
      }

      .cls-4, .cls-2 {
        font-size: 139.1px;
      }
    </style>
  </defs>
  <text class="cls-2" transform="translate(425.14 394.79)"><tspan x="0" y="0">LOS</tspan></text>
  <text class="cls-4" transform="translate(350.52 548.03)"><tspan x="0" y="0">GARCIA</tspan></text>
  <text class="cls-3" transform="translate(708.3 625.01)"><tspan x="0" y="0">DESDE 1994.</tspan></text>
  <circle class="cls-1" cx="195.21" cy="521.29" r="126.51"/>
  <g>
    <g>
      <path class="cls-5" d="m208.15,461.02c1.68-1.94,4.27-4.89,7.53-8.44,5.9-6.43,6.56-6.73,7.42-8.67,2.48-5.64-.9-8.02,1.03-15.52.64-2.48,2.24-8.75,7.19-10.61,3.99-1.51,8.09.64,9.47,1.37,5.26,2.76,7.65,7.99,8.9,10.73,3.01,6.58,1.86,10.08,5.02,11.98,2.32,1.4,3.55-.11,7.53.8,6.37,1.45,11.54,7.21,10.61,9.47-.8,1.96-5.99.68-6.5,2.4-.79,2.64,10.17,6.17,9.81,10.73-.29,3.65-7.68,5.8-8.56,6.05-7.35,2.07-9.77-1.78-15.4.23-4.1,1.46-4.47,4.09-11.41,11.07-3.92,3.94-7.46,6.79-9.81,8.56l-22.82-30.12Z"/>
      <path class="cls-5" d="m150.42,567.13l13.69-23.5c-2.81-4.34-5.66-9.14-8.44-14.38-3.59-6.75-6.51-13.2-8.9-19.17-2.12-.71-4.58-1.73-7.19-3.19-3.98-2.24-6.99-4.8-9.13-6.95-.18-.18-.14-.48.08-.61,2.21-1.32,4.41-2.65,6.62-3.97,1.17-.7,2.68-.37,3.45.75l1.6,2.33c2.49.93,4.83.33,5.66-1.09.15-.26.49-.95.27-2.1,0-.07.12-.81.82-1.17.72-.37,1.41,0,1.46.03,2.13,2.55,4.26,5.11,6.39,7.66l23.96,16.53c1.32-.87,2.79-2.09,4.09-3.79.8-1.05,1.94-2.57,2.52-4.88.36-1.42.38-2.65.34-3.47-.26-.05-4.37-.96-5.5-4.03-.49-1.32-.32-2.6-.32-2.6.16-1.23.73-2.09,1.03-2.48-.71-.8-2.83-3.33-2.05-4.69.17-.31.44-.65.64-.56,6.05,2.8,12.16,1.73,14.76-1.79,1.59-2.16,1.56-4.82,1.37-6.39-1.79.33-4.33.65-7.36.52-3.56-.16-7.42-.33-8.24-2.38-.12-.31-.65-1.85,1.71-4.66,1.13-1.25,2.26-2.5,3.39-3.75-1.56-2.93-3.12-5.86-4.68-8.79,3.84,1.41,7.68,2.81,11.52,4.22,1.13-1.27,3.36-3.44,6.85-4.91,3-1.26,5.68-1.48,7.3-1.48,2.1.67,17.25,5.79,22.11,20.37,1.73,5.19,1.6,9.92,1.17,13.18-.73,2.72-2.6,8.24-7.5,13.35-4.17,4.34-8.65,6.44-11.21,7.42,0,0,.02.01.03.02,1.68,1.36,3.06,3.04,4.08,4.95,1.2,2.26,2.4,4.52,3.6,6.78,2.39,4.93,4.98,9.99,7.79,15.15,4.6,8.45,9.29,16.3,13.95,23.53-10,4.05-27.6,9.65-49.97,8.9-18.12-.61-32.55-5.16-41.76-8.9Z"/>
    </g>
    <line class="cls-5" x1="180.77" y1="518.29" x2="195.04" y2="526.22"/>
    <g>
      <path class="cls-5" d="m124.75,556.17c-4.34,9.13-8.67,18.26-13.01,27.38,14.24,7.7,47.03,22.9,90.71,20.88,35.12-1.62,61.47-13.64,75.3-21.22-4.22-9.01-8.44-18.03-12.66-27.04-14.15,5.76-36.8,12.96-65.38,13.69-33.56.86-59.92-7.58-74.96-13.69Z"/>
      <polygon class="cls-5" points="128.97 550.7 110.72 542.48 113.91 550.7 99.77 559.14 115.97 567.58 128.97 550.7"/>
      <polygon class="cls-5" points="261.33 550.7 277.76 542.48 276.16 552.52 290.99 559.6 276.16 567.58 264.75 551.84 261.33 550.7"/>
    </g>
    <g>
      <path class="cls-5" d="m103.14,486.08c.46-1.73,2.09-2.88,3.88-2.76,5.67.37,13.61.18,22.64-2.28,10.62-2.9,18.47-7.78,23.4-11.5,1.91-1.44,4.45-1.83,6.67-.94,1.05.42,2.11,1.09,3.02,2.17,2.2,2.62,2.5,6.48.68,9.58-1.83,4.27-4.03,7.07-5.48,8.67-11.68,12.94-31.81,12.19-40.39,11.87-1.62-.06-3.11-.17-4.44-.29-5.26-.5-9.67-4.47-10.32-9.71-.03-.24-.05-.47-.07-.72-.1-1.55.1-2.93.4-4.08Z"/>
      <path class="cls-5" d="m98.06,488.12c.19-1.63,1.72-2.78,3.36-2.62,7.1.72,18.62.89,31.78-3.38,11.77-3.82,20.19-9.69,25.22-13.81,2.63-2.85,5.89-3.64,7.16-2.65,1.34,1.06,1.31,4.82-1.56,8.24-5.43,4.51-15.51,11.7-30.01,15.86-13.89,3.99-25.79,3.46-32.87,2.6-.5-.06-1-.23-1.4-.54-1.17-.9-1.81-2.28-1.67-3.65,0-.02,0-.03,0-.05Z"/>
      <path class="cls-5" d="m103.93,487.45c.46-1.73,2.09-2.88,3.88-2.76,5.67.37,13.61.18,22.64-2.28,10.62-2.9,18.47-7.78,23.4-11.5,1.91-1.44,4.45-1.83,6.67-.94,1.05.42,2.11,1.09,3.02,2.17,2.2,2.62,2.5,6.48.68,9.58-1.83,4.27-4.03,7.07-5.48,8.67-11.68,12.94-31.81,12.19-40.39,11.87-1.62-.06-3.11-.17-4.44-.29-5.26-.5-9.67-4.47-10.32-9.71-.03-.24-.05-.47-.07-.72-.1-1.55.1-2.93.4-4.08Z"/>
      <path class="cls-5" d="m111.18,476.99c-1.76-1.12-13.27-8.27-20.65-3.65-.37.23-.73.49-1.08.79-.41.35-.62.89-.56,1.42.09.73.26,1.62.62,2.58.26.71.57,1.32.89,1.85.51.85,1.58,1.17,2.47.73,1.13-.55,2.37-1.08,3.71-1.56,5.69-2.03,10.88-2.32,14.6-2.17Z"/>
      <path class="cls-5" d="m114.83,474.89c.09-1.38.6-10.34-4.43-13.17-.25-.14-.52-.27-.8-.38-.33-.13-.71-.08-1.01.13-.4.28-.86.67-1.3,1.18-.33.38-.59.75-.79,1.1-.33.57-.18,1.29.36,1.67.68.49,1.38,1.04,2.08,1.66,2.99,2.67,4.8,5.59,5.9,7.8Z"/>
      <path class="cls-5" d="m147.65,467.76c1.25-2.46,9.57-18.35,21.09-18.05.57.01,1.16.07,1.77.17.71.12,1.31.59,1.6,1.25.4.89.79,2.02,1.03,3.35.18.98.23,1.9.23,2.71-.01,1.32-1.01,2.39-2.33,2.5-1.66.14-3.43.37-5.28.72-7.86,1.51-13.97,4.67-18.11,7.35Z"/>
      <path class="cls-5" d="m142.78,458.73c-.08-1.71-.46-12.84,5.85-16.21.31-.17.65-.32,1.01-.45.42-.15.89-.08,1.24.18.49.36,1.05.85,1.58,1.5.4.48.71.95.95,1.39.4.71.19,1.6-.49,2.06-.86.58-1.74,1.25-2.63,2.01-3.78,3.23-6.11,6.8-7.52,9.52Z"/>
    </g>
  </g>
  <path class="cls-1" d="m323.2,569.27c-6.65,18.24-15.79,30.46-22.05,37.57,0,0-28.8,32.74-75,41.36,0,0-.12.02-.12.03.02.14,171.63-34.99,353.28-53.15,129.7-12.97,221.19-12.95,221.11-15.66-.08-2.69-90.39-1.17-214.66-2.76-110.97-1.42-201.8-4.72-262.57-7.37Z"/>
</svg>