<?xml version="1.0" encoding="UTF-8"?>
<svg id="Capa_1" data-name="Capa 1" xmlns="http://www.w3.org/2000/svg" viewBox="0 0 1080 1080">
  <defs>
    <style>
      .cls-1 {
        fill: #8e8e8e;
      }
    </style>
  </defs>
  <path class="cls-1" d="m255.55,415.47c.62-3.43,1.2-6.6,1.78-9.76.1-.54.1-1.15.36-1.61,6.05-11.1,11.78-22.4,18.29-33.23,7.11-11.83,16.29-22,27.29-30.48,1.16-.89,1.79-2.95,1.97-4.55.58-4.98.39-10.09,1.35-14.98.59-2.98,2.37-5.98,4.35-8.36,2.16-2.58,5.33-3.51,8.73-1.78,4.48,2.27,9.32,4,13.37,6.87,4.11,2.91,8.33,5.01,13.2,5.96,10.67,2.07,21.32,4.25,32.03,6.13,4.94.87,9.06,2.43,11.35,7.36,1.35,2.9,3.22,5.56,4.87,8.32,3.9,6.54,9.97,10.23,16.66,13.49,7.86,3.83,15.8,7.82,22.86,12.91,7.22,5.19,6.65,10.74.55,17.32-4.63,4.99-8.86,10.41-12.69,16.04-1.23,1.81-.63,4.88-.77,7.39-.06,1.06.58,2.4.14,3.17-2.89,5.06-5.98,9.99-9,14.95-11.61-9.77-25.67-13.32-39.97-15.35-14.03-1.99-21.18,5.17-21.51,19.41-.32,14,3.82,27.06,8.16,40.05,7.98,23.88,6.86,38.52,6.91,42.86.08,6.85-.37,12.53-.8,16.38-.08,1.74-.17,3.48-.25,5.23-3.31,29.28-12.01,58.37-11.24,87.59,1.79,1.51,4.1,2.87,3.92,3.41-.51,1.56-2.03,2.78-3.15,4.14-.44-.18-.88-.35-1.31-.53.68,12.83,1.32,25.67,2.15,38.5.07,1.08,1.22,2.42,2.24,3.05,3.92,2.44,8.02,4.56,11.98,6.94,6.55,3.93,10.88,13.48,9.71,21.48h-48.86c.55-12.78-9.42-21.13-14.76-31.64-1.22,1.14-3.14,2.92-5.04,4.71-32.95,31.04-72.22,46.53-117.15,41.8-65.62-6.9-110.03-43.19-132.34-105.06-13.63-37.8-12.06-76.12,4.56-112.9,25.66-56.82,70.66-87.09,132.24-92.97,17.96-1.72,35.73.96,52.99,6.4,1.31.41,2.64.73,4.84,1.34Zm96.51,145.02c.65-25.41-7.52-52.16-22.6-76.72-34.03-55.44-101.64-84.66-167.32-62.81-72.58,24.14-113.57,95.33-100.74,168.6,13.33,76.17,84.95,132.78,163.05,122.08,41.03-5.62,73.92-25.68,98.63-58.54,19.66-26.14,29.04-56.1,28.98-92.61Z"/>
  <path class="cls-1" d="m715.61,507.13c1.55-.13,3.09-.38,4.64-.37,16.22.02,32.44-.17,48.64.25,7.23.19,14.54,1.06,21.61,2.58,24.87,5.34,41.69,24.7,43.76,50.36,1.56,19.43-3.48,36.93-17.09,51.35-12.32,13.06-28.26,17.57-45.56,17.99-7.67.19-15.36-.72-23.04-.99-7.25-.26-14.51-.37-21.77-.5-3.01-.06-6.01,0-9.21-.77.48-.32.93-.83,1.44-.92,6.42-1.08,7.4-1.76,8.13-8.01.73-6.24,1.27-12.53,1.29-18.81.09-26.02-.05-52.04-.13-78.06,0-1.53-.16-3.08-.33-4.6-.54-4.83-2.61-6.88-7.47-7.5-1.66-.21-3.31-.4-4.97-.6.02-.47.04-.93.06-1.4Zm42.22,6.29c-3.35,0-6.71,0-10.06,0-3.91,0-5.64,1.56-5.59,5.84.2,17.76-.03,35.52.08,53.28.08,12.72.31,25.44.75,38.14.22,6.5,2.13,8.68,8.4,10.27,10.32,2.62,20.81,2.94,31.19.74,11.89-2.53,21.94-8.3,28.65-18.84,13.8-21.66,9.96-55.38-8.19-73.5-12.56-12.54-28.15-16.43-45.24-15.93Z"/>
  <path class="cls-1" d="m1041.18,568.01c.03,28.73-19.23,53.99-48.13,60.57-46.8,10.66-85.13-28.01-74.02-75.35,13.12-55.94,74.88-58.52,102.88-33.84,13.77,12.14,19.43,27.96,19.27,48.62Zm-15.55,7.21c.07-18.94-2.53-34.18-12.81-47.14-10.63-13.39-24.65-19.01-41.49-16.84-17.31,2.23-28.83,12.2-34.68,28.45-5.92,16.44-5,33.02.63,49.35,3.39,9.85,9.14,18.2,17.41,24.7,24.24,19.08,57.99,8.92,67.19-20.47,2.11-6.74,2.91-13.89,3.75-18.05Z"/>
  <path class="cls-1" d="m659.47,507.25h34.37c.05.27.1.54.15.8-.8.28-1.57.71-2.39.83-5.76.84-7.27,2.09-7.95,7.83-.49,4.15-.54,8.38-.59,12.57-.22,18.05-.03,36.11-.66,54.14-.42,11.91-3.24,23.51-11.8,32.43-15.03,15.67-33.59,17.49-53.08,11.04-18.22-6.03-26.05-20.76-26.94-38.78-1-20.24-.42-40.57-.58-60.85-.03-3.35-.17-6.72-.56-10.05-.68-5.86-2.73-7.69-8.63-8.24-1.18-.11-2.35-.31-3.52-.47.02-.37.04-.74.06-1.12h38c.07.24.15.49.22.73-1.29.29-2.57.74-3.87.83-3.62.26-5.68,2.18-6.23,5.66-.4,2.48-.78,4.99-.79,7.49-.08,19.17-.29,38.34.06,57.51.12,6.65.94,13.47,2.72,19.86,4.42,15.82,16.45,24.26,32.4,23.67,15.42-.57,26.72-10.15,30.02-26.15,1.32-6.4,2.07-13.02,2.13-19.55.18-19.02,0-38.05-.3-57.07-.14-9.01-1.58-10.24-10.73-11.59-.52-.08-1.01-.3-1.52-.46,0-.36.01-.72.02-1.07Z"/>
  <path class="cls-1" d="m508.78,515.22c-11.25,0-21.99-.13-32.73.07-3.85.07-6.5,2.26-7.4,6.25-.28,1.25-.84,2.43-1.28,3.64-.53-.12-1.06-.23-1.59-.35.91-6.54,1.82-13.09,2.65-19.06,32.44,2.73,64.23,1.35,96.7,1.04-.27,6.09-.57,12.95-.87,19.81-.36.04-.72.07-1.08.11-.26-.54-.65-1.06-.75-1.63-1.21-6.78-2.42-8.68-9.16-9.38-9.82-1.02-19.73-1.11-29.83-1.61-.18,1.62-.35,2.41-.35,3.2.04,28.54.06,57.08.2,85.62.02,4.89.32,9.8.93,14.65.77,6.06,2.18,7.25,8.2,8.14,1.83.27,3.68.44,5.53.66l-.06,1.07h-39.69c1.02-.68,1.46-1.18,1.97-1.28,6.04-1.19,7.02-1.87,7.66-8.03.69-6.66,1.08-13.38,1.11-20.08.13-26.72.07-53.45.07-80.17,0-.96-.15-1.91-.22-2.66Z"/>
  <path class="cls-1" d="m450.13,506.69c-.42,8.03-.76,14.55-1.1,21.07-.49.02-.97.03-1.46.05-.2-1.26-.45-2.5-.61-3.77-.66-5.36-3.33-9.5-8.58-10.78-5.21-1.27-10.81-2.55-16.02-1.94-15.19,1.79-21.09,19.27-10.73,31.78,4.33,5.22,9.86,9.46,14.93,14.05,5.07,4.6,10.53,8.81,15.31,13.68,14.05,14.3,14.28,37.09.22,49.6-4.03,3.58-9.34,6.36-14.54,7.85-10.74,3.08-21.58,2.06-32.11-1.89-2.92-1.1-4.25-2.8-3.98-5.96.42-5.01.57-10.05.95-15.06.1-1.26.65-2.49,1.91-3.62.27,2.39.54,4.77.81,7.16.47,4.2,2.72,7.29,6.19,9.5,7.45,4.74,15.51,6.28,24.08,3.9,12.67-3.52,18.71-17.89,12.35-30.57-2.44-4.87-6.22-9.3-10.14-13.17-6.57-6.46-13.96-12.08-20.6-18.47-6.81-6.56-11.45-14.39-11.64-24.3-.32-17.29,9.78-29.33,27.12-30.53,9.06-.62,18.26.87,27.64,1.42Z"/>
  <path class="cls-1" d="m896.94,627.58h-39.31c.74-.88.93-1.33,1.23-1.41,7.85-2.1,8.75-3.07,9.19-11.26.37-6.84.7-13.68.73-20.53.09-21.81.05-43.62,0-65.44,0-3.63-.26-7.26-.57-10.88-.61-6.95-2.11-8.4-8.92-9.11-1-.1-1.99-.38-2.98-.58l.08-1.03h37.11c.08.29.16.58.23.88-1.28.29-2.55.72-3.84.85-3.36.33-5.52,1.98-5.99,5.37-.46,3.31-.98,6.66-.97,9.99.06,28.52.24,57.04.39,85.56,0,.84.02,1.68.09,2.51.97,11.05,1.54,13.57,12.35,13.53.44,0,.87.45,1.31.69-.04.29-.08.57-.12.86Z"/>
  <path class="cls-1" d="m722.89,685.46c-3.39-9.71-6.78-19.43-10.47-30.01-3.99,10.48-7.71,20.24-11.42,30-.35.03-.71.06-1.06.08-.53-1.3-1.15-2.58-1.56-3.92-2.94-9.62-5.75-19.27-8.8-28.85-.7-2.2-2.17-4.15-3.27-6.19h8.95c-.25,1.91-1.09,3.98-.65,5.72,2.01,7.95,4.39,15.81,6.91,24.67,4.01-10.75,7.7-20.64,11.38-30.52l1.07-.1c3.44,9.95,6.88,19.89,10.32,29.84.28-.02.55-.03.83-.05,2.47-8.37,5.05-16.7,7.32-25.12.34-1.26-.72-2.91-1.16-4.47h7.5c-1.21,2.37-2.87,4.9-3.86,7.67-3.27,9.21-6.29,18.5-9.43,27.75-.41,1.21-1,2.36-1.5,3.54-.36-.02-.72-.04-1.09-.06Z"/>
  <path class="cls-1" d="m648.8,646.58c-.56,2.01-1.53,3.94-1.57,5.89-.16,9.36-.06,18.73-.09,28.1,0,1.48-.16,2.95-.32,5.73-10.12-10.65-19.38-20.41-28.64-30.16-1.97,8.1-.03,26.26,3.27,28.51h-8.25c.46-2.16,1.32-4.46,1.37-6.78.2-8.94.13-17.89.17-26.84,0-1.36,0-2.72,0-5.45,10.21,10.77,19.53,20.61,28.72,30.31,0-8.64.12-17.33-.14-26.01-.03-1.14-1.97-2.23-2.99-3.3h8.47Z"/>
  <path class="cls-1" d="m882.19,646.55c-.63,1.96-1.71,3.85-1.77,5.76-.25,9.22-.22,18.45-.28,27.68-.01,1.61,0,3.22,0,4.83-.38.17-.76.34-1.13.51-9.26-9.72-18.53-19.45-27.58-28.95,0,8.09-.12,16.37.13,24.63.04,1.2,1.83,2.35,2.85,3.57h-7.96c.46-2,1.35-4.19,1.39-6.39.15-10.45.07-20.91.07-32.72,10.12,10.77,19.41,20.64,29.57,31.45,0-2.21.02-3.45,0-4.69-.12-6.29-.22-12.58-.39-18.87-.12-4.72-.16-4.72-4.18-6.8h9.29Z"/>
  <path class="cls-1" d="m837.98,665.09c.2,11.68-7.99,20.11-19.78,20.37-11.27.25-19.31-7.56-19.55-18.99-.24-11.44,7.99-20.06,19.41-20.34,11.75-.28,19.72,7.31,19.92,18.96Zm-4.43,1.57c-1.08-3.7-1.68-7.63-3.35-11.04-2.6-5.34-7.32-7.92-13.35-7.47-5.88.44-9.9,3.6-11.8,9.14-2.23,6.54-1.99,13.24,2.04,18.82,2.17,3.01,5.94,5.77,9.49,6.7,9.24,2.43,16.25-4.82,16.96-16.14Z"/>
  <path class="cls-1" d="m924.21,655.3c-1.97-5.7-6.65-6.6-11.5-6.98-5.86-.46-11.37.61-14.66,6.05-3.95,6.53-3.55,13.46.06,19.93,3.4,6.1,8.99,8.93,16.06,8.66,4.51-.17,8.13-1.66,9.71-7.48.31,7.89-.47,9.03-6.77,9.63-3.3.31-6.73.41-9.99-.11-11.02-1.76-17.05-9.22-16.59-20.04.47-10.92,7.37-18.04,18.55-18.75,3.59-.23,7.23.3,10.85.47,3.41.16,5.12,1.62,4.31,5.28-.23,1.06-.04,2.21-.04,3.32Z"/>
  <path class="cls-1" d="m971.38,667.34c8.12-2.41,10.53-5.8,9.23-11.84-1.13-5.25-4.7-7.5-11.18-6.63,0,3.21,0,6.51,0,9.81.02,6.84-.09,13.69.18,20.53.07,1.84,1.33,3.63,2.02,5.38-2.2,0-5.42,0-8.65,0,3.02-4.42,2.77-34.46-.41-37.97,4.12,0,8.15-.12,12.17.03,7.32.27,11.21,4.45,10.52,11.09-.67,6.47-6.15,10.59-13.87,9.61Z"/>
  <path class="cls-1" d="m792.27,646.81v7.64c-2.14-1.66-4.29-4.23-7.01-5.21-2.87-1.03-6.34-1.02-9.46-.65-6.77.81-10.48,4.79-11.74,11.74-1.76,9.7,2.99,18.71,11.46,21.72,7.29,2.59,12.45.99,16.85-5.25.1,6.75-.47,7.75-6.83,8.25-4.12.33-8.43.25-12.45-.59-9.15-1.9-14.54-9.84-14.22-19.99.29-9.11,6.35-16.7,15.29-17.76,5.96-.71,12.08.01,18.11.09Z"/>
  <path class="cls-1" d="m679.06,652.53c-2.99-5.04-7.33-3.27-11.52-3.41v14.01h11.31c-.13,1.74-.25,3.36-.32,4.17-3.52-.72-6.98-1.43-11.12-2.27,0,5.43-.11,9.85.09,14.27.05,1.03.92,2.43,1.82,2.95,3.09,1.79,8.84.26,11.19-2.72.58,5.03.12,5.53-4.61,5.48-5.02-.05-10.04-.01-15.26-.01,3.31-5.76,2.61-35.45-.82-38.31h19.89c-.22,1.97-.42,3.71-.66,5.84Z"/>
  <path class="cls-1" d="m933.52,684.99c2.99-5.75,2.5-35.12-.55-38.38h19.06v5.87c-3.21-4.98-7.48-3.33-11.7-3.44v14.07h10.82v4.21c-3.42-.76-6.83-1.52-11.04-2.45,0,4.8-.1,8.53.04,12.25.08,2.12-.37,4.89,2.8,5.27,3.23.39,6.73,1.45,9.17-2,.16-.22.15-.56.31-.77.14-.18.41-.26.63-.38.27,5.53-.05,5.82-5.53,5.74-4.59-.07-9.18-.01-14-.01Z"/>
  <path class="cls-1" d="m991.11,646.46h30.29v5.43c-3.45-4.57-8.27-2.27-12.87-3,0,10.92-.09,21.22.11,31.51.03,1.42,1.52,2.81,2.34,4.22h-8.9c.45-1.59,1.29-3.22,1.31-4.86.12-10.03.06-20.06.06-30.63-4.39.54-9.07-1.71-13.41,3.08.44-2.4.75-4.07,1.06-5.74Z"/>
  <path class="cls-1" d="m209.76,395.45c-1.65,1.27-2.67,2.66-3.6,2.6-.96-.06-1.84-1.52-2.75-2.37.87-.91,1.64-2.4,2.63-2.55.9-.14,2.01,1.19,3.72,2.32Z"/>
  <path class="cls-1" d="m104.34,691.66c1.31,1.56,2.75,2.53,2.73,3.46-.02.96-1.49,1.88-2.32,2.81-.92-.84-2.42-1.59-2.58-2.56-.15-.9,1.12-2.04,2.17-3.71Z"/>
  <path class="cls-1" d="m53.74,617.34c-1.48,1.22-2.65,2.81-3.35,2.63-1.07-.28-2.36-1.71-2.53-2.8-.11-.72,1.55-2.37,2.48-2.41.92-.05,1.92,1.39,3.4,2.59Z"/>
  <path class="cls-1" d="m76.29,662.44c1.14,1.63,2.48,2.72,2.37,3.64-.11.96-1.67,2.48-2.51,2.43-.96-.06-2.46-1.55-2.53-2.51-.07-.92,1.38-1.96,2.66-3.56Z"/>
  <path class="cls-1" d="m191.65,734.08c-1.06-1.7-2.36-2.89-2.16-3.72.23-.98,1.78-2.33,2.7-2.29.87.04,2.31,1.67,2.32,2.61.01.91-1.47,1.85-2.86,3.4Z"/>
  <path class="cls-1" d="m195.92,395.84c-1.69,1.29-2.61,2.52-3.63,2.6-.78.07-2.45-1.43-2.36-2,.18-1.08,1.2-2.57,2.15-2.8.83-.2,2.02,1.09,3.84,2.2Z"/>
  <path class="cls-1" d="m59.04,630.44c-1.69,1.15-2.79,2.47-3.7,2.36-.93-.12-2.37-1.69-2.32-2.54.05-.91,1.55-2.35,2.51-2.42.9-.07,1.91,1.34,3.51,2.6Z"/>
  <path class="cls-1" d="m64.82,642.74c-1.51,1.24-2.41,2.5-3.46,2.65-.73.1-1.68-1.32-2.53-2.06.9-1.01,1.64-2.32,2.76-2.89.45-.23,1.72,1.19,3.22,2.29Z"/>
  <path class="cls-1" d="m71.82,654.85c-1.72,1.07-2.87,2.33-3.74,2.17-.95-.18-2.36-1.77-2.27-2.61.1-.92,1.65-2.28,2.62-2.33.88-.04,1.84,1.42,3.39,2.77Z"/>
  <path class="cls-1" d="m88.37,676.3c-1.59,1.28-2.6,2.72-3.48,2.64-.93-.08-2.19-1.49-2.44-2.52-.15-.63,1.33-2.33,2.09-2.34,1.04-.01,2.08,1.13,3.83,2.22Z"/>
  <path class="cls-1" d="m316.23,690.54c-1.13-1.53-2.44-2.56-2.29-3.28.22-1.07,1.49-1.92,2.31-2.87.86.76,2.45,1.57,2.4,2.26-.08,1.11-1.25,2.14-2.42,3.89Z"/>
  <path class="cls-1" d="m298.73,703.79c-1.59,1.23-2.6,2.6-3.54,2.57-.87-.04-1.69-1.59-2.53-2.47.92-.81,1.75-2.06,2.79-2.27.74-.15,1.76,1.11,3.28,2.17Z"/>
  <path class="cls-1" d="m155.91,721.73c-1.63,1.21-2.67,2.57-3.6,2.51-.95-.07-1.79-1.55-2.68-2.41.87-.88,1.68-2.36,2.63-2.46.93-.1,2,1.22,3.66,2.36Z"/>
  <path class="cls-1" d="m169.11,725.64c-1.73,1.33-2.75,2.71-3.61,2.61-.96-.11-2.19-1.43-2.49-2.46-.16-.55,1.33-2.22,2.15-2.27,1-.07,2.07,1.04,3.95,2.12Z"/>
  <path class="cls-1" d="m82.49,454.89c-1.07-1.82-2.35-3.05-2.13-3.89.26-.99,1.75-2.04,2.86-2.24.55-.1,2.07,1.7,2,2.54-.09,1.02-1.39,1.94-2.72,3.59Z"/>
  <path class="cls-1" d="m45.17,549.85c-1.59,1.25-2.63,2.68-3.5,2.58-.86-.1-2.04-1.68-2.15-2.71-.08-.75,1.4-2.35,2.12-2.32,1,.04,1.94,1.28,3.52,2.46Z"/>
  <path class="cls-1" d="m223.41,395.72c-1.71,1.31-2.63,2.55-3.67,2.64-.8.08-2.54-1.42-2.45-1.96.19-1.06,1.24-2.54,2.17-2.74.9-.19,2.09,1.02,3.94,2.06Z"/>
  <path class="cls-1" d="m261.9,721.82c-1.36,1.09-2.34,2.44-3.07,2.31-1-.17-1.82-1.45-2.72-2.25.88-.87,1.64-2.2,2.67-2.44.67-.16,1.72,1.25,3.12,2.38Z"/>
  <path class="cls-1" d="m236.07,728.92c-1.71,1.2-2.69,2.35-3.77,2.47-.67.07-2.25-1.58-2.12-2.19.22-1.05,1.36-2.51,2.28-2.65.87-.13,1.97,1.22,3.61,2.37Z"/>
  <path class="cls-1" d="m128.02,412.73c.93,1.62,2.11,2.76,1.9,3.51-.3,1.05-1.62,1.82-2.51,2.71-.8-.91-2.3-1.88-2.22-2.71.09-1.03,1.48-1.95,2.83-3.51Z"/>
  <path class="cls-1" d="m56.03,486.62c1.28,1.73,2.69,2.81,2.59,3.71-.12,1-1.62,1.84-2.52,2.76-.81-.81-2.25-1.62-2.27-2.45-.02-1.07,1.1-2.15,2.2-4.02Z"/>
  <path class="cls-1" d="m156.53,404.48c-1.74,1.34-2.75,2.71-3.65,2.65-.96-.07-1.82-1.5-2.72-2.34.78-.85,1.51-2.29,2.37-2.38.99-.1,2.09,1.01,4,2.07Z"/>
  <path class="cls-1" d="m139.47,413.54c-1-1.51-2.26-2.61-2.07-3.31.28-1.04,1.6-1.8,2.48-2.67.85.88,2.38,1.78,2.36,2.64-.02.96-1.47,1.87-2.76,3.34Z"/>
  <path class="cls-1" d="m108.47,431.12c-1.68,1.18-2.66,2.38-3.71,2.43-.77.04-1.62-1.42-2.44-2.21.9-.86,1.69-2.18,2.74-2.44.72-.18,1.8,1.11,3.4,2.21Z"/>
  <path class="cls-1" d="m205.83,727.54c1.05,1.55,2.38,2.74,2.15,3.35-.38,1.02-1.75,1.68-2.7,2.49-.7-.88-1.96-1.77-1.94-2.64.01-.88,1.28-1.74,2.49-3.2Z"/>
  <path class="cls-1" d="m363.94,618.14c-1.48,1.16-2.39,2.38-3.43,2.5-.64.07-2.2-1.66-2.07-2.34.2-1.05,1.35-2.29,2.38-2.67.53-.19,1.68,1.3,3.12,2.51Z"/>
  <path class="cls-1" d="m44.72,563.38c-1.59,1.35-2.61,2.85-3.44,2.75-.96-.12-2.21-1.53-2.45-2.58-.15-.65,1.32-2.33,2.12-2.36,1-.05,2.05,1.12,3.77,2.2Z"/>
  <path class="cls-1" d="m127.84,707.2c1.03,1.67,2.25,2.8,2.03,3.47-.33,1.03-1.65,1.75-2.55,2.6-.76-.84-2.17-1.74-2.11-2.52.08-1.01,1.34-1.92,2.62-3.55Z"/>
  <path class="cls-1" d="m283.12,714.74c-1.17-1.52-2.52-2.55-2.37-3.26.23-1.08,1.51-1.93,2.34-2.87.82.78,2.31,1.57,2.29,2.33-.02,1.06-1.17,2.1-2.26,3.8Z"/>
  <path class="cls-1" d="m46.59,600.37c1.08,1.86,2.16,2.91,2.13,3.92-.03.85-1.37,1.65-2.13,2.48-.91-.85-2.43-1.64-2.54-2.58-.1-.91,1.25-1.99,2.54-3.81Z"/>
  <path class="cls-1" d="m139.43,712.91c1.28,1.67,2.71,2.75,2.57,3.56-.16.99-1.54,2.22-2.59,2.46-.62.14-2.29-1.4-2.31-2.22-.03-1,1.17-2.03,2.34-3.81Z"/>
  <path class="cls-1" d="m234.43,394.3c.51,1.07,1.55,2.22,1.39,3.17-.17,1.02-1.32,2.25-2.33,2.61-.55.2-2.35-1.17-2.38-1.89-.04-1,1.04-2.05,1.64-3.08.56-.27,1.12-.54,1.68-.81Z"/>
  <path class="cls-1" d="m246.4,397.55c1.14,1.37,2.52,2.35,2.38,3.02-.22,1.06-1.46,1.9-2.26,2.84-.86-.89-2.16-1.68-2.43-2.72-.17-.66,1.2-1.71,2.31-3.13Z"/>
  <path class="cls-1" d="m119.8,422.97c-1.57,1.16-2.56,2.44-3.32,2.32-1.03-.17-1.89-1.41-2.82-2.2.77-.86,1.52-2.39,2.3-2.4,1.03-.02,2.08,1.16,3.83,2.28Z"/>
  <path class="cls-1" d="m369.46,560.45c1.14,1.63,2.39,2.65,2.25,3.42-.19,1.01-1.46,1.83-2.27,2.73-.82-.76-2.31-1.55-2.29-2.28.03-1.06,1.17-2.08,2.31-3.87Z"/>
  <path class="cls-1" d="m97.12,441.25c-1.52,1.24-2.4,2.47-3.44,2.62-.68.1-2.35-1.57-2.22-2.12.26-1.08,1.32-2.32,2.34-2.71.58-.22,1.75,1.12,3.31,2.21Z"/>
  <path class="cls-1" d="m372.14,577.85c-1.44,1.24-2.51,2.68-3.05,2.51-1.03-.34-2.22-1.49-2.45-2.51-.15-.65,1.31-2.35,2.03-2.35.97.01,1.92,1.22,3.47,2.35Z"/>
  <path class="cls-1" d="m116.28,707.1c-1.29-1.67-2.7-2.7-2.61-3.59.09-.96,1.47-2.2,2.51-2.49.58-.16,2.26,1.37,2.29,2.19.04,1.02-1.1,2.08-2.19,3.88Z"/>
  <path class="cls-1" d="m41.59,573.56c1.29,1.61,2.61,2.58,2.49,3.29-.19,1.08-1.38,2-2.14,2.98-.82-.75-2.25-1.45-2.31-2.25-.07-1.02.96-2.12,1.95-4.01Z"/>
  <path class="cls-1" d="m245.95,729.46c-1.35-1.43-2.88-2.43-2.73-3.04.25-1.1,1.36-2.34,2.42-2.76.52-.21,2.4,1.25,2.44,2.01.05,1.02-1.1,2.09-2.12,3.8Z"/>
  <path class="cls-1" d="m46.86,590.71c-1.49,1.18-2.38,2.39-3.42,2.55-.68.1-2.4-1.67-2.26-1.99.51-1.15,1.46-2.32,2.56-2.88.42-.21,1.67,1.2,3.13,2.32Z"/>
  <path class="cls-1" d="m94.11,689.86c-1.12-1.59-2.43-2.68-2.24-3.36.28-1.02,1.51-2.15,2.55-2.43.53-.15,2.21,1.48,2.17,2.23-.06,1.01-1.28,1.96-2.47,3.56Z"/>
  <path class="cls-1" d="m222.81,730.68c-1.79,1.08-2.85,2.2-3.88,2.17-.77-.02-1.5-1.51-2.25-2.35.93-.82,1.77-2.1,2.82-2.3.72-.14,1.72,1.23,3.31,2.48Z"/>
  <path class="cls-1" d="m75.59,463.43c-1.65,1.09-2.66,2.25-3.72,2.3-.77.04-1.62-1.39-2.43-2.17,1-.91,1.88-2.17,3.06-2.58.55-.19,1.67,1.27,3.09,2.45Z"/>
  <path class="cls-1" d="m169.09,400.45c-1.58,1.21-2.5,2.44-3.52,2.53-.7.06-2.28-1.65-2.14-2.25.24-1.03,1.4-2.22,2.42-2.55.61-.19,1.7,1.14,3.23,2.27Z"/>
  <path class="cls-1" d="m39.76,536.01c1.72-1.15,2.72-2.3,3.74-2.32.71-.02,2.16,1.64,2.03,2.32-.19,1.03-1.38,2.46-2.3,2.58-.83.11-1.86-1.31-3.47-2.58Z"/>
  <path class="cls-1" d="m46.31,526.21c-1.14-1.62-2.44-2.69-2.27-3.4.26-1.04,1.56-1.82,2.42-2.71.76.77,2.17,1.59,2.13,2.31-.06,1.06-1.17,2.06-2.29,3.79Z"/>
  <path class="cls-1" d="m49.91,512.8c-1.04-1.88-2.1-2.96-2.05-3.99.04-.74,1.62-2.02,2.4-1.94.86.08,2.28,1.49,2.23,2.24-.07,1.02-1.29,1.97-2.58,3.7Z"/>
  <path class="cls-1" d="m370.41,591.49c-1.32,1.17-2.36,2.65-2.93,2.49-1.04-.29-1.81-1.57-2.7-2.43.87-.89,1.61-2.17,2.66-2.5.55-.18,1.63,1.29,2.97,2.44Z"/>
  <path class="cls-1" d="m306.22,699.18c-1.17-1.55-2.49-2.57-2.33-3.25.25-1.05,1.36-2.24,2.38-2.61.5-.18,2.31,1.36,2.29,2.11-.02,1.03-1.19,2.03-2.35,3.76Z"/>
  <path class="cls-1" d="m178.5,725.27c1.1,1.55,2.43,2.66,2.24,3.32-.29,1.01-1.65,1.71-2.55,2.54-.7-.85-1.93-1.69-1.94-2.55,0-.9,1.16-1.8,2.25-3.32Z"/>
  <path class="cls-1" d="m181.92,398.15c-1.52.98-2.51,2.12-3.41,2.05-.82-.07-2.32-1.78-2.15-2.17.45-1.05,1.54-2.24,2.59-2.48.62-.15,1.64,1.38,2.97,2.61Z"/>
  <path class="cls-1" d="m368.78,554.05c-.93-1.73-2.06-2.89-1.83-3.61.33-1,1.68-1.67,2.59-2.48.64.94,1.78,1.89,1.76,2.82-.01.87-1.26,1.72-2.53,3.27Z"/>
  <path class="cls-1" d="m63.01,480.56c-1.16-1.55-2.49-2.6-2.32-3.27.25-1.03,1.42-2.19,2.45-2.51.52-.16,2.24,1.41,2.22,2.18-.02,1-1.22,1.98-2.35,3.6Z"/>
  <path class="cls-1" d="m364.91,608.73c-1.27-1.64-2.64-2.68-2.48-3.38.24-1.05,1.54-1.87,2.39-2.78.72.86,1.91,1.65,2.02,2.58.1.86-.94,1.86-1.93,3.58Z"/>
  <path class="cls-1" d="m270.84,720.49c-.93-1.62-2.05-2.71-1.87-3.5.2-.88,1.59-1.49,2.46-2.22.71.85,2,1.73,1.96,2.55-.04.89-1.31,1.72-2.55,3.17Z"/>
  <path class="cls-1" d="m346,575.89c-2.8,48.22-29.18,94.05-84.99,119.22-42.13,19-84.58,16.08-124.72-7.55-39.19-23.07-61.89-57.81-69.32-102.41-9.42-56.52,17.96-115.13,67.05-144.68,66.54-40.05,149.35-19.81,190.39,46.55,14.55,23.53,21.71,48.93,21.6,88.87Zm-278.24-12.52c-.08,27.35,7.96,53.09,24.78,79.35,29.44,45.93,88.46,70.29,141.72,58.48,60.91-13.5,106.9-68.4,108.99-130.8,1.48-44.09-13.24-82.23-46.19-111.76-37.7-33.77-81.87-44.64-130.68-29.69-58.73,17.99-98.43,72.99-98.62,134.42Z"/>
  <path class="cls-1" d="m137.79,642.78c3.12-.48,6.13-.99,9.15-1.39,6.08-.81,9.61-4.31,10.49-10.27.59-4,1.03-8.06,1.04-12.1.07-44.2.07-88.4.01-132.6,0-3.76-.31-7.56-.83-11.29-.92-6.71-4.11-9.85-10.82-10.93-2.89-.46-5.82-.69-8.99-1.06v-5.21h66.78v5.19c-2.34.28-4.78.53-7.22.86-8.25,1.12-11.85,4.77-12.62,13.07-.39,4.17-.67,8.37-.68,12.56-.06,39.3-.13,78.61,0,117.91.02,7.38.65,14.79,1.5,22.12.69,5.98,4.55,10,10.52,10.19,13.8.45,27.66.98,41.41.04,12.69-.87,20.5-9.14,23.63-21.21,2.31-8.89,3.66-18.03,5.5-27.34h5.48c.42,19.15.84,38.08,1.26,56.95h-135.62v-5.5Z"/>
</svg>