<?xml version="1.0" encoding="UTF-8"?>
<svg id="Capa_1" data-name="Capa 1" xmlns="http://www.w3.org/2000/svg" viewBox="0 0 1080 1080">
  <defs>
    <style>
      .cls-1 {
        fill: #8e8e8e;
      }
    </style>
  </defs>
  <path class="cls-1" d="m74.82,611.73c-13.81,0-24.37-4.13-31.67-12.4-7.3-8.27-10.95-20.21-10.95-35.84v-81.3c0-14.65,3.62-25.77,10.85-33.36,7.23-7.59,17.82-11.38,31.77-11.38s24.53,3.79,31.77,11.38c7.23,7.59,10.85,18.71,10.85,33.36v81.3c0,15.63-3.65,27.57-10.95,35.84-7.3,8.27-17.86,12.4-31.67,12.4Zm.29-31.51c5.24,0,7.86-5.02,7.86-15.07v-83.54c0-8.43-2.55-12.64-7.66-12.64-5.76,0-8.64,4.31-8.64,12.93v83.44c0,5.32.65,9.13,1.96,11.43,1.31,2.3,3.47,3.45,6.48,3.45Z"/>
  <path class="cls-1" d="m131.39,610.17v-171.16h45.66c9.56,0,17.14,2.11,22.73,6.32,5.6,4.22,9.61,10.21,12.03,17.99,2.42,7.78,3.63,17.05,3.63,27.81s-1.02,19.4-3.04,27.08c-2.03,7.68-5.65,13.63-10.85,17.85-5.2,4.22-12.59,6.32-22.14,6.32h-14.04v67.78h-33.98Zm33.98-98.51h1.96c6.42,0,10.34-1.78,11.78-5.35,1.44-3.56,2.16-8.82,2.16-15.75,0-6.48-.7-11.49-2.11-15.02-1.41-3.53-4.73-5.3-9.97-5.3h-3.83v41.43Z"/>
  <path class="cls-1" d="m226.34,610.17v-171.16h69.13v33.06h-33.98v33.36h32.6v32.19h-32.6v39.19h36.24v33.36h-71.39Z"/>
  <path class="cls-1" d="m309.13,610.17v-171.16h35.55l15.91,81.98v-81.98h33.39v171.16h-33.78l-17.28-85.58v85.58h-33.78Z"/>
  <path class="cls-1" d="m456.43,610.17v-171.16h52.64l14.53,104.35,14.44-104.35h53.13v171.16h-31.62v-123.31l-19.84,123.31h-31.03l-21.01-123.31v123.31h-31.23Z"/>
  <path class="cls-1" d="m601.76,610.17l16.69-171.16h58.63l16.4,171.16h-32.7l-2.45-27.62h-20.82l-2.16,27.62h-33.58Zm38.2-54.95h15.71l-7.56-87.04h-1.57l-6.58,87.04Z"/>
  <path class="cls-1" d="m704.09,610.17v-171.16h53.03c8.84,0,15.52,1.99,20.03,5.98,4.52,3.99,7.54,9.56,9.08,16.73,1.54,7.16,2.31,15.58,2.31,25.24s-1.2,16.79-3.58,22.37c-2.39,5.58-6.89,9.43-13.5,11.57,5.43,1.1,9.25,3.78,11.44,8.02,2.19,4.25,3.29,9.74,3.29,16.48v64.77h-34.08v-67c0-4.99-1.03-8.09-3.09-9.29-2.06-1.2-5.39-1.8-9.97-1.8v78.09h-34.96Zm35.16-107.75h8.35c4.78,0,7.17-5.15,7.17-15.46,0-6.68-.52-11.05-1.57-13.13-1.05-2.07-3.01-3.11-5.89-3.11h-8.05v31.7Z"/>
  <path class="cls-1" d="m799.93,610.17v-171.16h34.17v68.56l16.1-68.56h34.76l-19.35,78.38,23.37,92.78h-35.84l-18.85-82.86v82.86h-34.37Z"/>
  <path class="cls-1" d="m894.89,610.17v-171.16h69.13v33.06h-33.98v33.36h32.6v32.19h-32.6v39.19h36.24v33.36h-71.39Z"/>
  <path class="cls-1" d="m992.5,610.17v-138.29h-20.52v-32.87h75.61v32.87h-20.52v138.29h-34.57Z"/>
</svg>