<?xml version="1.0" encoding="UTF-8"?>
<svg id="Capa_1" data-name="Capa 1" xmlns="http://www.w3.org/2000/svg" viewBox="0 0 1080 1080">
  <defs>
    <style>
      .cls-1 {
        fill: #8e8e8e;
      }
    </style>
  </defs>
  <path class="cls-1" d="m103.76,374.65c0-26.85,21.59-48.63,48.2-48.63h776.7c26.61,0,48.17,21.78,48.17,48.63v1.55H103.76v-1.55Zm873.08,344.27v1.21c0,26.85-21.56,48.63-48.17,48.63H151.96c-26.61,0-48.2-21.78-48.2-48.63v-1.21h873.08Z"/>
  <g>
    <path class="cls-1" d="m829.97,620.54c40.33,0,73-32.99,73-73.67s-32.67-73.7-73-73.7-73.02,32.99-73.02,73.7,32.7,73.67,73.02,73.67Z"/>
    <path class="cls-1" d="m468.66,584.37l-61.26,78.89c-11.01,14.17-21.1,24.68-31.95,32.36h601.39v-296.12h-181.88c-40.91,5.82-63.24,32.43-85.6,61.26l-68.51,88.19,63.31,81.21c19.83,25.43-17.97,55.44-37.79,30.01l-56.02-71.91-55.13,70.97c-19.78,25.48-57.64-4.47-37.86-29.94l62.37-80.31-26.03-33.42,29.75-39.96,26.78,34.1,61.24-78.87c10.53-13.57,20.24-23.74,30.52-31.32H103.76v296.12h168.91c48.22-2.22,72.51-30.96,96.86-62.3l68.51-88.21-63.31-81.18c-19.83-25.43,17.97-55.44,37.79-30.04l56.02,71.93,55.1-70.99c19.8-25.48,57.66,4.47,37.86,29.94l-62.35,80.31,26.03,33.44-29.77,39.96-26.75-34.12Zm239.35-37.5c0-68,54.6-123.1,121.97-123.1s121.97,55.1,121.97,123.1-54.62,123.08-121.97,123.08-121.97-55.1-121.97-123.08Zm-337.56,0c0,67.97-54.62,123.08-121.97,123.08s-121.99-55.1-121.99-123.08h0c0-68,54.62-123.1,121.99-123.1s121.97,55.1,121.97,123.1Z"/>
    <path class="cls-1" d="m248.48,473.17c-40.33,0-73.02,32.99-73.02,73.7s32.7,73.67,73.02,73.67,73-32.99,73-73.67-32.7-73.7-73-73.7Z"/>
  </g>
</svg>