<?xml version="1.0" encoding="UTF-8"?>
<svg id="Capa_1" data-name="Capa 1" xmlns="http://www.w3.org/2000/svg" viewBox="0 0 1080 1080">
  <defs>
    <style>
      .cls-1 {
        fill: #8e8e8e;
      }
    </style>
  </defs>
  <path class="cls-1" d="m852.8,585.94c11.95-3.84,23.49-7.19,34.76-11.26,13.65-4.93,26.8-11.12,38.09-20.4,5.06-4.16,9.45-9.22,13.69-14.26,1.97-2.34,2.86-5.6,4.64-9.29-6.6,3.58-11.98,6.92-17.69,9.51-32.22,14.59-68.11-.02-83.18-34.42-16.44-37.55-3.83-76.61,31.42-99.22,38.74-24.86,91.49-18.94,122.87,13.99,14.84,15.57,22.59,34.58,22.56,55.85-.08,60.43-25.65,106.1-80.23,134.14-22.14,11.37-45.77,17-70.61,17.85-3.18.11-4.37-.98-5.2-3.98-3.55-12.87-7.39-25.67-11.13-38.51Zm96.83-117.3c-.74-11.09-4.04-21.13-13.87-27.81-6.69-4.54-13.62-4.15-19.91.7-16.24,12.51-17.22,38.92-1.97,52.59,6.9,6.18,15.14,6.65,22.55,1.04,8.69-6.58,12.37-15.76,13.19-26.52Z"/>
  <path class="cls-1" d="m501.46,549.44v69.4h-67.84v-221.37c1.47-.08,2.9-.22,4.34-.22,32.73,0,65.47-.12,98.2.09,10.55.07,20.98,1.52,31.06,5.09,21.56,7.63,35.08,22.75,41.41,44.4,4.94,16.89,4.72,33.9-.33,50.79-7.07,23.67-23.05,38.51-46.04,46.39-17.58,6.03-35.7,7.09-54.07,5.96-2.01-.12-4.02-.31-6.73-.53Zm.16-48.05c5.01,0,9.59-.17,14.15.03,14.14.64,25.62-8.33,27.75-24.34,2.03-15.21-4.51-28.24-17.03-33.38-8.07-3.32-16.39-1.65-24.88-1.84v59.53Z"/>
  <path class="cls-1" d="m143.21,732.59h-69.81v-351.77h69.81v351.77Z"/>
  <path class="cls-1" d="m353.97,732.55h-69.49v-351.75h69.49v351.75Z"/>
  <path class="cls-1" d="m246.58,732.61h-69.6v-351.84h69.6v351.84Z"/>
  <path class="cls-1" d="m812.82,618.96h-61.07v-152.46c-14.78,9.06-28.96,17.74-43.61,26.72-9.02-13.74-17.89-27.26-26.91-41,1.16-.95,2.01-1.78,2.98-2.42,23.06-15.13,46.11-30.26,69.22-45.31,1.28-.83,2.95-1.47,4.45-1.48,17.45-.1,34.9-.07,52.35-.06.78,0,1.56.14,2.59.25v215.76Z"/>
  <path class="cls-1" d="m987.76,684.21c-2.6.05-5.45,1.34-6.8-2.67-.3-.9-2.46-1.63-3.77-1.65-8.51-.14-17.03-.06-25.54-.06-3.5,0-4.65,1.89-4.64,5.18,0,3.38,1.4,5.03,4.81,5.02,8.51-.03,17.03-.05,25.54-.01,8.02.04,11.23,3.5,11.21,11.93-.03,8.66-3.35,12.23-11.4,12.25-8.78.03-17.57.14-26.35.05-6.94-.07-10.43-4.03-10.14-11.37,2.77-.17,5.8-1.65,7.04,2.79.24.84,2.43,1.59,3.73,1.6,8.65.11,17.3,0,25.95,0,3.6,0,4.57-2.02,4.58-5.22.01-3.35-1.31-5.03-4.79-5.01-8.51.04-17.03,0-25.54-.04-7.98-.04-11.24-3.65-11.28-12.42-.04-7.97,3.45-11.78,11.03-11.84,8.92-.07,17.84-.1,26.76.03,6.95.1,10.94,4.84,9.62,11.45Z"/>
  <path class="cls-1" d="m933.67,672.98v6.74h-39.34v9.97h34.17c1.86,6.57,1.44,7.19-4.8,7.22-9.71.04-19.43.01-29.48.01v10.08h39.59v6.87h-46.36v-40.9h46.22Z"/>
  <path class="cls-1" d="m730.9,714.21c-4.73,0-9.46.04-14.2-.01-7-.08-11.37-3.86-11.71-10.75-.33-6.61-.35-13.26,0-19.86.38-7.23,4.31-10.76,11.5-10.84,9.46-.11,18.93-.12,28.39-.04,7.4.06,11.41,3.55,11.89,10.98.44,6.73.42,13.52.06,20.26-.34,6.38-4.48,9.98-10.92,10.15-5,.13-10,.03-15.01.03v.09Zm-.31-7.08v-.02c4.59,0,9.19.07,13.78-.02,4.37-.09,5.75-1.5,5.82-5.93.08-5.27-.01-10.54.01-15.8.02-3.64-1.67-5.53-5.39-5.53-9.19,0-18.37,0-27.56-.05-3.83-.02-5.85,1.84-5.91,5.61-.08,5.54-.09,11.08.04,16.61.08,3.38,1.94,5.16,5.43,5.13,4.59-.04,9.19,0,13.78,0Z"/>
  <path class="cls-1" d="m697.26,713.82h-6.34v-27.13c-.3-.12-.6-.23-.89-.35-1.81,2.22-3.65,4.42-5.44,6.67-3.53,4.45-7.04,8.91-10.54,13.38-2.42,3.1-5.51,3.21-8,.13-4.16-5.16-8.22-10.39-12.33-15.59-1.14-1.45-2.32-2.87-4.27-5.29v27.99h-6.5v-40.38c3.45-1.13,6.1-.71,8.57,2.65,5.83,7.94,12.09,15.58,18.52,23.78,1.93-2.34,3.65-4.34,5.27-6.42,4.41-5.65,8.93-11.22,13.1-17.04,2.31-3.23,4.93-4.26,8.85-2.94v40.54Z"/>
  <path class="cls-1" d="m608.31,714.21c-4.73,0-9.47.05-14.2-.01-6.87-.1-11.22-4.12-11.49-11.01-.25-6.48-.24-12.99-.06-19.47.18-6.51,4.25-10.75,10.72-10.89,10.41-.22,20.83-.19,31.24,0,5.88.1,9.92,4.2,10.2,10.52.31,7.02.29,14.07-.04,21.09-.27,5.82-4.64,9.53-10.96,9.73-5.13.17-10.28.03-15.42.03,0,0,0,0,0,.01Zm-.03-7.1v-.02c4.87,0,9.73-.03,14.6.01,3.46.03,5.42-1.62,5.48-5.07.09-5.67.05-11.35-.09-17.03-.08-3.35-1.81-5.22-5.36-5.21-9.46.03-18.92,0-28.38,0-3.46,0-5.3,1.64-5.31,5.17-.02,5.54-.1,11.08-.04,16.62.05,4.14,1.46,5.46,5.72,5.51,4.46.05,8.92.01,13.38.01Z"/>
  <path class="cls-1" d="m466.37,713.38c-5.98,1.59-6.91,1.44-9.6-3.42-1.68-3.03-3.75-3.94-7.12-3.83-7.96.26-15.93.21-23.89.03-2.67-.06-4.48.67-5.37,3.16-1.82,5.08-5.56,5.59-10.37,4.3.35-.83.59-1.69,1.04-2.42,7.46-12.05,14.91-24.1,22.43-36.11,2.12-3.38,7.63-3.44,9.68-.11,7.56,12.3,15.07,24.64,22.58,36.98.26.43.41.93.63,1.43Zm-16.62-14.43c-3.89-6.4-7.49-12.31-11.49-18.88-3.97,6.59-7.53,12.51-11.36,18.88h22.85Z"/>
  <path class="cls-1" d="m514.59,672.98h6.45c.15,1.04.37,1.93.38,2.83.04,8.78.13,17.57.04,26.35-.08,7.94-4.15,11.94-12.08,12.02-8.78.09-17.57.12-26.35.08-6.58-.03-11.07-3.58-11.27-9.71-.34-10.38-.09-20.78-.09-31.48h6.5c0,8.01,0,15.93,0,23.86,0,1.89-.06,3.79.02,5.67.13,2.91,1.71,4.51,4.62,4.52,9.05.03,18.11.05,27.16-.03,3.37-.03,4.66-2.03,4.64-5.3-.07-9.44-.03-18.87-.03-28.8Z"/>
  <path class="cls-1" d="m760.1,673.25q7.39-1.2,10.66,4.26c5.78,9.58,11.58,19.15,17.7,29.26,2.41-3.95,4.56-7.48,6.73-11,3.75-6.1,7.52-12.19,11.28-18.28,3.31-5.38,3.7-5.54,10.85-4.21-4.16,6.72-8.25,13.33-12.34,19.94-3.84,6.2-7.67,12.42-11.56,18.59-2.1,3.34-7.7,3.53-9.76.19-7.85-12.76-15.58-25.61-23.56-38.76Z"/>
  <path class="cls-1" d="m549.69,679.91h-21.23v-6.86h48.51v6.65h-20.59v33.95h-6.69v-33.74Z"/>
  <path class="cls-1" d="m837.62,713.82v-40.78c2.03-.09,3.96-.17,6.33-.28v34.27h36.11v6.79h-42.44Z"/>
  <path class="cls-1" d="m823.03,673.01h6.37v40.75h-6.37v-40.75Z"/>
  <path class="cls-1" d="m737.51,659.19c-.79,2.5-1.46,4.65-2.16,6.8q-1.73,5.33-7.62,4.52c.77-9.59,3-12.3,9.78-11.32Z"/>
</svg>