<?xml version="1.0" encoding="UTF-8"?>
<svg id="Capa_1" data-name="Capa 1" xmlns="http://www.w3.org/2000/svg" viewBox="0 0 1080 1080">
  <defs>
    <style>
      .cls-1, .cls-2 {
        fill: #d4d5d8;
      }

      .cls-3 {
        fill: #8e8e8e;
      }

      .cls-3, .cls-2 {
        fill-rule: evenodd;
      }

      .cls-4 {
        fill: #231f20;
      }
    </style>
  </defs>
  <g>
    <path class="cls-3" d="m82.6,644.94h-7.25c0-2.36-.94-7.47-2.81-15.34h-19.97c-1.07,2.31-2,4.4-2.81,6.27-1.89,4.49-2.93,7.52-3.1,9.07h-6.99c.12-.7,3.95-8.48,11.48-23.32,7.43-14.72,11.22-22.76,11.37-24.12h8.02c0,2.19,2.01,10.12,6.01,23.8,4.03,13.68,6.05,21.56,6.05,23.65Zm-11.15-20.12c-3.84-14.04-5.76-21.62-5.76-22.74h-.33c-.07.75-3.69,8.33-10.86,22.74h16.94Z"/>
    <path class="cls-3" d="m121.56,609.59c-1.7,13.51-2.55,22.47-2.55,26.89,0,2.55.19,5.3.58,8.24l-6.16.91c-.15-2.14-.22-4.97-.22-8.49h-.29c-3.16,5.9-7.51,8.85-13.05,8.85-6.34,0-9.51-3.61-9.51-10.82,0-1.92.27-5.82.8-11.7.56-5.88.84-10.26.84-13.15l6.3-.73c0,1.05-.38,4.53-1.13,10.46-.75,5.9-1.13,10.35-1.13,13.34s.51,4.82,1.53,5.94c1.04,1.09,2.67,1.64,4.88,1.64,2.65,0,5.19-1.74,7.62-5.21,2.45-3.47,3.88-7.29,4.3-11.44.58-5.92.87-10.59.87-13.99l6.3-.73Z"/>
    <path class="cls-3" d="m149.76,638.27l-.91,4.84c-2.55,1.73-5.17,2.59-7.87,2.59-3.33,0-5.65-.81-6.96-2.44-1.31-1.65-1.97-4.27-1.97-7.87,0-3.01.69-9.51,2.08-19.5-1.29,0-3.27.07-5.94.22l.77-5.29c2.28.15,4.28.22,5.98.22.15-1,.67-4.46,1.57-10.39l5.47-.58c-.44,2.48-1.01,6.14-1.71,10.97,2.26,0,5.49-.12,9.69-.37l-.73,5.43c-4.01-.15-7.28-.22-9.8-.22-1.27,8.16-1.89,14.01-1.89,17.53,0,2.77.35,4.67,1.06,5.69.7,1.02,1.89,1.53,3.57,1.53,2.43,0,4.97-.79,7.62-2.37Z"/>
    <path class="cls-3" d="m189.19,624.6c0,5.86-1.77,10.95-5.32,15.27-3.52,4.32-8.17,6.49-13.96,6.49-3.82,0-7.11-1.53-9.88-4.59-2.75-3.08-4.12-7.07-4.12-11.95,0-5.76,1.76-10.71,5.28-14.87,3.52-4.15,8.21-6.23,14.06-6.23,3.86,0,7.14,1.43,9.84,4.3,2.72,2.87,4.08,6.73,4.08,11.59Zm-6.19,1.06c0-3.4-.78-6.3-2.33-8.71-1.53-2.43-3.75-3.64-6.67-3.64-3.62,0-6.51,1.7-8.67,5.1-2.16,3.38-3.24,7.05-3.24,11,0,3.4.78,6.32,2.33,8.75,1.58,2.4,3.84,3.61,6.78,3.61,3.57,0,6.43-1.69,8.57-5.07,2.16-3.4,3.24-7.08,3.24-11.04Z"/>
    <path class="cls-3" d="m247.89,620.01c0,2.72-.28,6.88-.84,12.46-.54,5.59-.8,9.74-.8,12.46l-6.16.36c0-1.87.34-5.65,1.02-11.33.7-5.69,1.06-9.62,1.06-11.81,0-2.89-.43-4.93-1.28-6.12-.82-1.21-2.15-1.82-3.97-1.82-3.06,0-5.7,1.6-7.91,4.81-2.19,3.21-3.51,7.15-3.97,11.84-.58,5.93-.87,10.62-.87,14.07l-6.16.36c0-1.63.35-5.37,1.06-11.22.7-5.86,1.06-9.83,1.06-11.92,0-2.89-.43-4.93-1.28-6.12-.83-1.21-2.15-1.82-3.97-1.82-2.94,0-5.54,1.69-7.8,5.07-2.26,3.35-3.62,7.22-4.08,11.59-.58,5.88-1,10.57-1.24,14.07l-5.94.36c1.7-12.58,2.55-21.09,2.55-25.51,0-2.55-.19-5.66-.58-9.33l6.16-.91c.15,2.38.22,5.21.22,8.49h.29c2.82-5.9,6.91-8.85,12.28-8.85,2.89,0,5.06.84,6.52,2.52,1.46,1.65,2.17,3.77,2.15,6.34h.33c3.01-5.9,7.21-8.85,12.61-8.85,6.36,0,9.55,3.61,9.55,10.82Z"/>
    <path class="cls-3" d="m288.63,624.6c0,5.86-1.77,10.95-5.32,15.27-3.52,4.32-8.17,6.49-13.96,6.49-3.82,0-7.1-1.53-9.88-4.59-2.75-3.08-4.12-7.07-4.12-11.95,0-5.76,1.76-10.71,5.28-14.87,3.52-4.15,8.21-6.23,14.07-6.23,3.86,0,7.14,1.43,9.84,4.3,2.72,2.87,4.08,6.73,4.08,11.59Zm-6.19,1.06c0-3.4-.78-6.3-2.33-8.71-1.53-2.43-3.75-3.64-6.67-3.64-3.62,0-6.51,1.7-8.67,5.1-2.16,3.38-3.24,7.05-3.24,11,0,3.4.78,6.32,2.33,8.75,1.58,2.4,3.84,3.61,6.78,3.61,3.57,0,6.43-1.69,8.56-5.07,2.16-3.4,3.24-7.08,3.24-11.04Z"/>
    <path class="cls-3" d="m316.47,638.27l-.91,4.84c-2.55,1.73-5.18,2.59-7.87,2.59-3.33,0-5.65-.81-6.96-2.44-1.31-1.65-1.97-4.27-1.97-7.87,0-3.01.69-9.51,2.08-19.5-1.29,0-3.27.07-5.94.22l.77-5.29c2.28.15,4.27.22,5.98.22.14-1,.66-4.46,1.57-10.39l5.47-.58c-.44,2.48-1.01,6.14-1.71,10.97,2.26,0,5.49-.12,9.69-.37l-.73,5.43c-4.01-.15-7.28-.22-9.8-.22-1.26,8.16-1.89,14.01-1.89,17.53,0,2.77.35,4.67,1.06,5.69.7,1.02,1.89,1.53,3.57,1.53,2.43,0,4.97-.79,7.62-2.37Z"/>
    <path class="cls-3" d="m347.23,609.92l-2.19,5.79c-1.7-.49-3.33-.73-4.88-.73-5.56,0-8.66,2.87-9.29,8.6-.9,8.31-1.54,15.43-1.93,21.35l-5.94.36c1.7-12.58,2.55-21.09,2.55-25.51,0-2.55-.19-5.66-.58-9.33l6.16-.91c.19,1.99.29,3.78.29,5.36h.29c2.92-3.86,6.04-5.79,9.37-5.79,1.75,0,3.8.27,6.16.8Z"/>
    <path class="cls-3" d="m359.73,609.62c0,1.53-.27,4.46-.8,8.78-.82,6.49-1.24,9.78-1.24,9.88-.37,3.45-.77,9-1.2,16.65l-6.34.36c.56-3.84,1.31-9.51,2.26-17.02.51-4.86.77-9.34.77-13.45,0-1.72-.05-3.13-.14-4.23l6.7-.99Zm9.04-16.07c0,.29-1.8,2.24-5.39,5.83-3.57,3.6-5.36,5.59-5.36,5.98h-4.15c0-.39,1.24-2.38,3.72-5.98,2.48-3.62,3.72-5.56,3.72-5.83h7.47Z"/>
    <path class="cls-3" d="m392.92,610.32l-.98,5.32c-1.92,1.99-5.59,6.27-11,12.83-5.42,6.54-8.13,10.29-8.13,11.26v.33c6.97,0,12.97-.21,18-.62l-.77,5.5h-25.22l.91-5.28c1.31-1.19,4.93-5.28,10.86-12.28,5.95-7.02,8.93-10.96,8.93-11.81v-.37c-7.44,0-13.25.15-17.46.44l.77-5.32h24.09Z"/>
    <path class="cls-3" d="m93.79,514.25c7.39,0,12.69-1.66,15.89-4.99,3.33-3.45,4.99-7.88,4.99-13.3s-1.66-9.42-4.99-12.75c-3.2-3.33-8.5-4.99-15.89-4.99h-24.39v36.03h24.39Zm-50.07,65.41v-122.68h54.14c6.04,0,11.46,1.05,16.26,3.14,4.81,1.97,8.93,4.8,12.38,8.5,3.45,3.57,6.1,7.76,7.94,12.57,1.85,4.81,2.77,9.98,2.77,15.52s-.93,10.72-2.77,15.52c-1.85,4.68-4.5,8.75-7.94,12.19-3.45,3.33-7.58,5.97-12.38,7.95-4.8,1.85-10.22,2.77-16.26,2.77h-28.46v44.53h-25.68Z"/>
    <path class="cls-3" d="m199.35,525.33c-.13-3.33-.74-6.22-1.85-8.69-.99-2.59-2.34-4.68-4.06-6.28-1.73-1.72-3.7-2.95-5.91-3.69-2.22-.86-4.5-1.29-6.84-1.29-4.8,0-8.99,1.79-12.56,5.36-3.45,3.45-5.42,8.31-5.91,14.6h37.14Zm-37.88,15.15c.37,6.9,2.34,12.38,5.91,16.45,3.7,4.06,8.5,6.09,14.41,6.09,3.94,0,7.39-.86,10.35-2.58,3.08-1.85,5.05-4.37,5.91-7.58h24.76c-2.83,9.36-7.76,16.57-14.78,21.62-7.02,5.05-15.39,7.57-25.13,7.57-30.3,0-45.45-16.5-45.45-49.51,0-7.02.98-13.37,2.95-19.03,1.97-5.67,4.81-10.53,8.5-14.6,3.82-4.07,8.44-7.14,13.86-9.24,5.42-2.22,11.64-3.32,18.66-3.32,14.04,0,24.63,4.5,31.78,13.49,7.27,8.99,10.9,22.54,10.9,40.65h-62.64Z"/>
    <path class="cls-3" d="m272.02,562.47c5.79,0,10.59-2.4,14.41-7.21,3.94-4.81,5.91-11.09,5.91-18.85,0-19.71-6.71-29.56-20.14-29.56s-20.69,9.36-20.69,28.09c0,8.13,1.91,14.78,5.73,19.95,3.82,5.05,8.75,7.58,14.78,7.58Zm19.95,17.18l-.18-11.09c-5.54,8.99-13.98,13.48-25.31,13.48-5.79,0-11.09-1.11-15.89-3.32-4.8-2.22-8.93-5.42-12.38-9.61-3.45-4.19-6.16-9.3-8.13-15.34-1.97-6.03-2.96-12.87-2.96-20.51,0-6.9.8-13.18,2.4-18.85,1.73-5.79,4.19-10.78,7.39-14.96,3.2-4.19,7.09-7.39,11.64-9.61,4.68-2.34,9.98-3.51,15.89-3.51,11.21,0,20.2,4.74,26.98,14.23v-45.08h23.65v124.16h-23.1Z"/>
    <path class="cls-3" d="m322.14,579.65v-90.9h22.54v10.9c1.97-3.08,4-5.48,6.1-7.2,2.22-1.73,4.43-3.02,6.65-3.88,2.34-.98,4.68-1.6,7.02-1.85,2.34-.24,4.74-.37,7.21-.37h3.14v24.57c-2.21-.37-4.43-.55-6.65-.55-14.66,0-21.99,7.33-21.99,21.99v47.3h-24.02Z"/>
    <path class="cls-3" d="m433.06,535.12c-1.23,1.23-3.02,2.22-5.36,2.96-2.34.74-5.73,1.54-10.16,2.4-6.9,1.35-11.64,3.08-14.23,5.17-2.58,2.1-3.88,5.11-3.88,9.06,0,6.77,3.88,10.16,11.64,10.16,3.08,0,5.91-.49,8.5-1.48,2.71-1.11,4.99-2.52,6.83-4.25,1.97-1.85,3.51-3.94,4.62-6.28,1.23-2.46,1.85-5.05,1.85-7.76l.19-9.98Zm1.66,44.53c-.74-2.34-1.23-5.05-1.48-8.13-2.83,3.2-6.59,5.79-11.27,7.76-4.68,1.85-10.1,2.77-16.26,2.77-10.47,0-18.17-2.28-23.1-6.83-4.8-4.68-7.21-10.72-7.21-18.11,0-6.53,1.05-11.7,3.14-15.52,2.09-3.94,4.99-7.02,8.68-9.24,3.69-2.22,8.07-3.82,13.12-4.81,5.18-1.11,10.78-2.09,16.82-2.95,6.03-.86,10.1-1.97,12.19-3.33,2.1-1.48,3.14-3.82,3.14-7.02,0-2.96-1.42-5.24-4.25-6.84-2.71-1.73-6.41-2.59-11.09-2.59-5.54,0-9.55,1.23-12.01,3.7-2.34,2.46-3.82,5.73-4.43,9.79h-22.36c.12-4.68.86-8.99,2.22-12.93,1.48-3.94,3.76-7.33,6.84-10.16,3.2-2.83,7.33-4.99,12.38-6.47,5.05-1.6,11.21-2.4,18.48-2.4s13.18.8,18.11,2.4c5.05,1.6,9.06,3.94,12.01,7.02,3.08,2.96,5.3,6.71,6.65,11.27,1.35,4.43,2.03,9.48,2.03,15.15v57.46h-22.35Z"/>
    <path class="cls-3" d="m507.76,561.54c5.91,0,10.78-2.22,14.6-6.65,3.94-4.56,5.91-10.72,5.91-18.48,0-19.46-6.83-29.19-20.51-29.19s-20.51,9.24-20.51,27.72c0,8.13,1.91,14.59,5.73,19.4,3.94,4.8,8.87,7.21,14.78,7.21Zm19.77,5.91c-1.72,4.07-4.86,7.27-9.42,9.61-4.43,2.21-9.61,3.32-15.52,3.32-7.51,0-13.86-1.29-19.03-3.88-5.05-2.71-9.18-6.22-12.38-10.53-3.08-4.31-5.36-9.3-6.83-14.97-1.36-5.66-2.03-11.45-2.03-17.37,0-7.02,1.05-13.42,3.14-19.22,2.1-5.91,4.93-10.9,8.5-14.96,3.57-4.19,7.76-7.39,12.56-9.61,4.8-2.34,9.98-3.51,15.52-3.51,11.33,0,19.83,4.56,25.5,13.67v-11.27h24.02v91.82c0,6.9-1.17,12.94-3.51,18.11-2.34,5.29-5.54,9.67-9.61,13.12-4.06,3.57-8.87,6.28-14.41,8.13-5.54,1.85-11.45,2.77-17.74,2.77s-12.13-.92-17.55-2.77c-5.42-1.72-10.1-4.25-14.04-7.57-3.82-3.2-6.84-7.15-9.05-11.82-2.22-4.68-3.33-9.98-3.33-15.89h22.36c0,5.54,1.78,9.79,5.36,12.75,3.7,3.08,8.56,4.62,14.6,4.62,6.41,0,11.83-1.79,16.26-5.36,4.43-3.45,6.65-8.19,6.65-14.23v-14.97Z"/>
    <path class="cls-3" d="m603.34,561.91c14.66,0,21.99-9.24,21.99-27.71s-7.33-27.53-21.99-27.53-21.99,9.18-21.99,27.53,7.33,27.71,21.99,27.71Zm0,20.13c-7.39,0-13.98-1.17-19.77-3.5-5.79-2.34-10.72-5.61-14.78-9.79-3.94-4.19-6.96-9.24-9.05-15.15-2.1-5.91-3.14-12.38-3.14-19.4s1.05-13.67,3.14-19.59c2.22-5.91,5.35-10.96,9.42-15.15,4.07-4.19,8.93-7.39,14.59-9.61,5.79-2.34,12.32-3.51,19.59-3.51s13.55,1.17,19.22,3.51c5.67,2.22,10.47,5.42,14.41,9.61,4.06,4.07,7.14,9.05,9.24,14.96,2.22,5.91,3.32,12.51,3.32,19.77s-1.11,13.86-3.32,19.77c-2.1,5.79-5.18,10.78-9.24,14.97-3.94,4.19-8.81,7.46-14.6,9.79-5.66,2.21-12.01,3.32-19.03,3.32Z"/>
    <path class="cls-3" d="m712.97,579.65v-55.06c0-7.02-1.17-11.77-3.51-14.23-2.34-2.46-6.34-3.69-12.01-3.69-12.44,0-18.66,6.96-18.66,20.88v52.1h-24.02v-90.9h22.91v13.3c2.83-5.17,6.59-9.05,11.27-11.64,4.68-2.71,10.71-4.07,18.1-4.07,4.31,0,8.31.68,12.01,2.03,3.7,1.23,6.84,3.14,9.42,5.73,2.71,2.59,4.81,5.79,6.29,9.61,1.6,3.7,2.4,8.01,2.4,12.93v63.01h-24.2Z"/>
  </g>
  <g>
    <path class="cls-3" d="m871.43,395.47l.51,1.51c.74.03,1.32.22,1.46.47l1.32-.74c-.52-.93-1.84-1.3-3.29-1.24Z"/>
    <path class="cls-3" d="m834.38,524.26c-.39.47-.77.94-1.13,1.4-.04-.01-.07,0-.09,0l-.21-1.49c.44-.07.91-.04,1.43.09Z"/>
    <path class="cls-3" d="m838.75,512.59c-4.99,8.48-11.54,15.35-15.87,19.89-2.88,3.03-4.3,4.54-4.83,5.71-.74,1.64-.39,2.99-.1,4.08.34,1.33.57,2.22-.95,4.07-3.38,4.08-4.69,5.31-7.47,6.16-1.23.38-2.95,2.03-4.73,4.11l-.34-.39-1.43,1.9c-4.32,5.69-9,12.59-11.79,16.71l-.69,1.02c-5.44,7.99-10.56,15.53-4.92,19.91.9.69,1.53,1.23,2.01,1.64,2.27,1.94,2.79,2,6.82,1.88l.85-.03c2.92-.08,3.34.85,3.82,4.53.21,1.66,1.38,2.88,2.43,3.98.17.18.35.37.52.55-.87-.56-2.09-1.02-3.78-1.07-4.12-.12-4.84-.48-7.24-1.7l-.64-.33c-1.24-.61-1.62-1.15-2.1-1.83-1.32-1.89-2.63-3.17-8.61-3.65-8.27-.67-12.87.38-15.89,3.59-.72.77-3.38,2.23-5.52,3.39-5.28,2.9-7.49,4.26-7.92,6.01-.31.26-1.84.51-3.08.7-1.46.23-3.29.52-5.48,1.08-3.63.93-5.36,2.16-6.59,3.93-.17-.57-.29-1.23-.27-1.96.08-2.5,1.68-5.13,4.8-7.79,1.89-1.62,2.47-1.57,3.7-1.43,1.58.14,3.74.37,7.8-1.71,1.86-.95,4.33-2.48,4.26-4.76-.04-1.23-.8-2.24-2.09-2.8-1.77-.78-4.63-.68-6.34.81-1.76,1.54-12.22,4.2-15.55,3.91-3.05-.23-3.51-.5-4.86-1.29l-.43-.25c-1.03-.61-2.76-1.63-4.83-1.04-1.27.35-2.39,1.23-3.44,2.66-.07-.12-.13-.25-.16-.39-.2-.83.4-2.07,1.71-3.5,1.27-1.38,1.51-1.36,2.4-1.29.76.05,1.81.13,3.3-.26,1.8-.46,2.54-1.41,3.04-2.03.5-.64,1.07-1.36,5.7-1.43,2.27-.04,5.15-.26,7.67-.48l2.6-.22-.94-2.43c-.12-.33-.27-.78-.33-.98-.53-2.27-1.83-3.38-2.8-3.9-.68-.35-1.38-.55-2.05-.63.44-.12.98-.2,1.68-.18,2.33.01,2.7.3,2.96.52,1.07.85,2.07,1.21,4.89.94,1.33-.12,1.81.31,1.97.46.69.64.83,1.88.83,2.28l-.07,2.27,2.26-.27c7.06-.85,13.2-3.01,17.29-6.13,7.19-5.44,10.12-10.86,13.84-17.74,1.08-2,2.19-4.04,3.52-6.34,1.2-2.06,2.56-4.25,4.15-6.7l.93-1.42-.2-.18c4.17-6.51,7.86-13.17,8.86-19.91,1.46-10.02,4.41-24.53,12.96-34.91,9.86-11.95,15.91-11.2,20.07-9.22,2.46,1.17,4.76,4.39,5.99,8.4,1.67,5.46,1.17,11.26-1.32,15.49Z"/>
    <path class="cls-3" d="m927.8,580.29c-1.64,13.34-7.94,14.66-15.39,14.92-3.17.08-8.24-1.94-12-6.74-4.19-5.35-5.31-12.46-3.16-20.01.93-.08,1.83-.17,2.69-.27,8.57-1.11,20.54-2.01,25.46,2.87,2.11,2.11,2.9,5.13,2.4,9.23Z"/>
    <path class="cls-3" d="m952.16,581.71c-1.56,16.35-17.49,29.02-36.36,29.02h-.52c-11.39-.14-20.95-4.25-27.66-11.88-8.46-9.59-10.58-22.21-9.83-30.44l6.25.18c1.1.05,2.18.08,3.23.1l8.29.25c-1.94,7.69-.67,14.93,3.66,20.46,4.1,5.23,9.6,7.45,13.24,7.3,7.54-.26,15.05-1.73,16.84-16.24.55-4.54-.4-8.06-2.83-10.49-4.16-4.12-12.4-5.14-26.72-3.3-3.53.46-7.73.59-12.34.5l-3.43-.1c-9.91-.39-21.28-1.63-31.78-2.78-7.85-.85-15.26-1.66-20.72-1.94-11.12-.56-18.34-4.51-20.55-7.04,3.36-1.15,5.15-2.97,8.46-6.99,2.54-3.08,1.98-5.24,1.56-6.83-.23-.93-.34-1.41-.07-2.02.34-.76,2.24-2.74,4.25-4.85,2.27-2.39,5.14-5.4,8.11-8.96,1.25-.1,3.35.93,6.23,2.35,6.42,3.18,17.16,8.49,35.77,10.09,8.02.7,14.59,1.19,19.88,1.58,14.29,1.06,21.47,1.58,31.29,4.24,14.22,3.85,27.64,18.08,25.74,37.8Z"/>
    <path class="cls-3" d="m962.78,602.5c-8.4,16.52-20.59,23.57-44.98,25.98-23.78,2.37-43.68-19.76-53.5-39.41-.56-1.12-1.15-2.32-1.76-3.56-3.8-7.71-7.98-16.21-11.78-19.84.42.04.85.09,1.27.13,7.92.86,16.33,1.79,24.26,2.35-.8,8.54,1.38,21.71,10.2,31.7,7,7.96,16.95,12.23,28.77,12.39h.55c19.64,0,36.22-13.26,37.86-30.39,1.97-20.55-12.02-35.38-26.85-39.4-9.96-2.69-17.19-3.22-31.57-4.29-5.27-.39-11.84-.87-19.85-1.56-18.32-1.59-28.91-6.82-35.24-9.95-2.45-1.21-4.29-2.11-5.76-2.39,2.43-3.03,4.88-6.4,7.04-10.08,2.93-4.98,3.53-11.71,1.62-17.98-1.5-4.9-4.34-8.75-7.62-10.3-7.23-3.44-14.44-.72-22.54,8.56.27.56.55,1.07.8,1.55l-1.33.7c-.17-.31-.34-.65-.53-1-.08.08-.14.17-.21.25-9.05,10.97-12.12,26.04-13.64,36.43-.87,6.01-4.26,12.18-8.13,18.27-6.43-6.14-21.4-23.96-18.38-54.35l.08-.77-.47-.61c-.23-.31-24.87-30.83-32.71-28.72-.68.18-2.28.86-2.58,3.31-.86,6.86-1.43,7-3.87,7.58-.34.08-.68.16-1.06.25-2.97.78-5.28,2.88-5.86,5.36-.04.18-.08.38-.1.6-.7-1.42-.85-3.27-.4-5.53.87-4.43,2.39-8.46,3.72-12.02,1.68-4.54,3.16-8.45,2.97-12.09-.31-6.66-6.55-13.25-13.89-14.67-4.2-.81-7.26-2.1-7.72-2.6-.74-1.34-2.45-1.86-4.16-1.28-.56.18-1.1.5-1.59.91,2.66-3.38,3.35-3.73,3.9-4.02.64-.33,1.24-.68,2.19-1.62.21-.21.43-.43.65-.68,1.37-1.4,3.65-3.76,5.41-3.6.85.06,1.72.74,2.58,2,.53.78,1.08,1.68,1.66,2.65.87,1.46,1.77,2.97,2.82,4.32l3.47-1.53c-.27-1.59-.13-3.23-.01-4.68.13-1.53.22-2.73-.18-3.72-.33-.78-.33-.81-.09-1.56.25-.85.63-2.11.65-4.54.01-2.02-.81-3.16-1.6-3.77,3.59.1,7.81,5.49,9.25,9.34.51,1.38.04,1.98-1.42,3.34-1.02.95-2.41,2.26-2.1,4.2.23,1.54-.09,4.53-.89,7.99l-.18.78,6.6,10.62-.22-7.26c-.07-2.16.38-3.25.57-3.4,2.1-1.17,2.24-3.76,2.18-5.01.39-.8,1.03-2.02,1.38-2.4.16,0,.46.04.69.07.82.1,1.94.23,3.59.13,1.23-.08,2.26-.22,3.14-.38-.55.76-1.33,1.62-2.49,2.56-2.82,2.3-3.12,4.6-3.34,6.3-.18,1.43-.25,1.86-1.66,2.48l-3.51,1.51,3.27,1.97c5.5,3.29,13.03,8.96,16.76,13.42,2.66,3.18,8.75,6.1,14.65,8.93,1.46.7,2.88,1.38,4.19,2.05l1.79.9.86-1.8c13.03-27.18,40.51-43.86,43.73-45.12l8.1-3.87-6.98-.68c-9.96-.97-12.79-2.63-12.62-7.46.16-4.2.78-4.47,9.64-4.19,1.9.07,4.07.13,6.53.13,6.9,0,10.8-1.51,11.92-4.63,1.15-3.17-1.02-7.06-6.43-11.57-8.06-6.72-14.06-5.91-17.65-5.41-.47.07-.91.12-1.32.16l-.65.05c-2.71.26-3.95.38-5.19-5.84-1.08-5.4-5.44-8.32-9.22-9.86,3.91-.42,9.86.97,16.85,9.23l.52.63,20.44,1.59.5-1.41c1.15-3.23,3.4-6.95,4.71-7.11.31-.03.89.46,1.43,1.29,3.3,5.05,10.49,10.13,17.32,9.73,2.88-.18,6.82-1.46,9.3-6.55l.29-.6c3.91-8.05,8.24-16.95,17.66-23.75-.77,2.05-.87,4.23.48,6.21l.6.87c.94,1.33,2.1,3,1.94,3.52-.03.13-.35.83-3.13,2.05-7.51,3.26-7,6.47-5.39,11.01l.08.21c.35.98.74,2.1.72,2.36-.2.39-1.72,1.38-3.34,2.43-3.3,2.14-3.96,3.09-4.3,4.85-.08.43-.14.77-.55,1.45-.87,1.43-1.56,1.96-3.34,2.91l.42,1.25c-1.07.04-2.23.34-3.16.83-2.39,1.28-3.04,3.57-1.76,6.14,2.7,5.41.13,27.88-1.66,30.69-.56.89-.7,1.51-.81,2.02-.25,1.19-.48,2.31-10.88,9.36-9.81,6.68-11.15,13.15-12.57,19.99-.67,3.21-1.36,6.55-2.97,10.04-1.08,2.36-1.33,4.26-.73,5.83.87,2.28,3.36,3.38,5.79,4.43,3.18,1.4,6.19,2.71,6.19,6.48,0,7.37,3.85,7.59,6.94,7.77,1.17.07,2.27.13,3.1.55,6.01,3,8.16,9.1,6.39,18.14-1.3,6.7-1.33,8.71-.13,9.38,1.42.77,3.3-1.03,8.33-5.86.9-.86,1.89-1.81,2.97-2.83,10.15-9.59,18.38-3.53,26.34,2.32.52.38,1.04.77,1.56,1.15,2.13,1.54,3.29,1.97,4.12,1.56.87-.43.91-1.5.95-2.63.04-1.19.08-2.54.98-3.25.82-.67,2.37-.78,4.59-.35,15.51,3.03,30.92,13.41,42.28,28.46,11.12,14.74,13.62,40.74,5.45,56.78Z"/>
    <path class="cls-3" d="m1025.02,469.36c-.29,2.56-.69,5.67-1.27,9.38-1.33,8.66-6.29,20.87-14.35,35.29-3.72,6.65-9.38,15.1-12.1,17.8-.33-1.84.29-3.78,1.85-8.49l.22-.65c1.36-4.07.82-7.38-1.42-8.88-1.84-1.23-4.29-.85-6.39.98-1.15,1-4.92,1.88-8.91,2.82-5.31,1.24-11.89,2.78-17.83,5.67l-6.77,3.25,4.28,1.62c4.5,1.7,5.56,3.4,5.62,3.61-.03.04-.16.14-.44.26-.39.16-.78.31-1.17.46-2.78,1.07-5.65,2.16-6.3,4.8-.43,1.75.3,3.64,2.2,5.79,1.19,1.33,2.8,2.8,4.68,4.5,5.36,4.85,12.7,11.49,14.7,19.85.21.86.35,1.55.44,2.09-1.93-1.16-4.83-2.65-7.58-.76-5.46,3.76-5.15,13.16-1.43,19.58,3.22,5.57,6.34,13.26,2.91,18.31-1.03,1.5-1.72,2.8-2.28,3.85-.38.74-1.03,1.96-1.28,2.03-.3.09-1.33-.04-4.94-1.98-1.85-.99-3.57-1.13-5.13-.46-3.35,1.49-4.56,6.3-5.96,11.85-1.03,4.13-2.2,8.8-4.21,10.71-4.1,3.91-5.31,4.54-6.99,5.4-.7.36-1.51.77-2.6,1.43-.73.46-1.42.97-2.02,1.41-.1.08-.23.17-.37.26,0-.76.07-1.94.26-3.74.27-2.45-.3-4.17-1.72-5.11-2.97-2-7.86.68-14.06,4.07-3.69,2.02-7.5,4.11-10,4.55-10.52,1.88-19.71,1.89-21.34.67.09-.21.33-.64,1-1.34,1.63-1.68,3.39-3.91,2.62-6.21-.9-2.67-4.36-3.21-8.72-3.9-2.87-.44-6.12-.95-8.66-2.1-1.16-.51-2.49-1.07-3.89-1.64-4.41-1.83-12.64-5.24-12.9-7.76-.07-.64.69-1.54,2.07-2.48,6.1-4.12-.33-13.71-7.76-24.82-5.24-7.85-11.19-16.73-10.75-21.56l.17-1.9-1.92-.22c-7.69-.83-13.97-1.5-18.88-1.75-11.69-.59-16.55-4.53-18.85-6.95,1.13-1.34,2.03-2.3,2.69-2.87,2.49,3.1,10.25,7.21,21.82,7.8,4.37.22,10.03.8,16.16,1.45v.07c3.72.61,9.44,12.27,13.63,20.79.61,1.24,1.2,2.45,1.77,3.57,9.53,19.08,28.44,40.42,51.36,40.42,1.2,0,2.41-.07,3.64-.18,24.98-2.48,37.5-9.73,46.17-26.79,8.4-16.51,5.84-43.25-5.58-58.38-11.58-15.36-27.34-25.94-43.21-29.03-2.71-.52-4.62-.33-5.82.64-1.45,1.15-1.5,3.01-1.55,4.38-.01.48-.04,1.21-.08,1.32-.05.01-.56.04-2.6-1.42-.51-.38-1.03-.76-1.56-1.15-7.67-5.63-17.22-12.65-28.27-2.19-1.08,1.02-2.07,1.97-2.97,2.84-3.03,2.9-5.87,5.63-6.52,5.65-.55-.7.5-6.04.85-7.8,1.92-9.78-.51-16.43-7.2-19.78-1.11-.56-2.43-.63-3.7-.7-3.08-.17-5.5-.31-5.5-6.26,0-4.76-3.78-6.4-7.11-7.86-2.23-.98-4.33-1.89-4.98-3.59-.44-1.17-.21-2.69.69-4.66,1.7-3.66,2.4-7.08,3.09-10.38,1.41-6.82,2.63-12.72,11.93-19.04,10.89-7.41,11.15-8.62,11.5-10.32.1-.43.18-.85.61-1.51,2.07-3.26,4.71-26.2,1.73-32.16-.93-1.85-.56-3.25,1.11-4.15.98-.52,2.1-.69,2.96-.65l.3.9c.48-.08.82-.08,1.03-.05.17.42.31,1,.48,1.66.61,2.36,1.54,5.92,4.92,10.15,3.63,4.54,4.38,9.53,4.38,12.94v.38c0,.27.01.61-.01.83-.26.09-.95.23-2.56.23-2.01,0-3.66.8-4.79,2.31-2.16,2.88-1.81,7.69-.77,11.24,1.24,4.21,1.24,10.72.35,12.25-.78-.35-1.37-1.03-1.98-1.75-1.89-2.18-4.3-4.16-9.09-.09-5.53,4.71-4.6,10.37-4.04,13.75.1.65.21,1.24.25,1.77.05.6.14,1.16.23,1.68.05.33.13.74.14,1-.39.14-1.56.4-4.88.3-.2-.01-.4-.01-.6-.01-9.36,0-10.88,7.33-11.46,10.13l-.09.47c-.33,1.42,0,3.63,1.88,5.57,2.28,2.36,7.25,4.75,17.95,2.73,16.15-3.05,37.04-15.65,40.85-27.96l.46-1.43c3.48-11.18,5.4-17.33-4.76-29.83-2.06-2.52-2.75-4.68-2.14-6.6,2.03-6.34,17.84-10.62,26.33-12.92,14.22-3.85,32.84-7.84,63.2-8.14,17.03-.18,32.81.72,42.45,1.43-7.55,2.91-17.71,8.02-23.12,15.88-1.08,1.55-2.05,2.95-2.92,4.19-6.4,9.16-8.13,11.61-5.5,18.3,1.03,2.65.94,3.25.89,3.36-.39.6-3.73,1.2-6.96,1.79l-2.36.43c-1.07.2-2.22.39-3.43.6-10.96,1.9-27.52,4.8-34.61,14.62-6.99,9.68-6.9,11.65-5.11,21.91.16.94.34,1.94.52,3.05.01.1.01.17.03.18-.63.61-4.17.81-6.53.93-7.12.38-16.88.9-22.59,8.74-1.28,1.76-2.5,3.35-3.59,4.77-3.94,5.13-6.12,7.96-4.59,10.37,1.47,2.33,5.05,2.3,16.68-.18,4.9-1.04,7.45-1.29,8.74-1.32-.52.61-1.21,1.3-1.72,1.81-1.23,1.24-2.4,2.41-2.95,3.51-.59,1.19-1.45,4.28,3.44,7.39l.82.52.91-.34c1.1-.4,2.84-.82,4.86-1.3,2.86-.68,6.09-1.46,9.21-2.58,3.29-1.2,10.06-2.09,16.6-2.96,13.42-1.76,21.74-3.06,24.15-6.33.63-.83.86-1.8.7-2.79-.47-2.82-3.16-4.07-6.09-4.68,21.45-6.76,33.69-21.21,39.58-30.43Z"/>
  </g>
  <path class="cls-1" d="m825.79,424.7c-3.2,1.66-13.46,7.35-24.23,16.71,9.87-9.01,18.78-14.25,20.53-14.94l3.7-1.77Z"/>
  <g>
    <path class="cls-4" d="m789.74,550.8c.23.21.44.39.63.55l-.98,1.16c-.14-.12-.3-.26-.48-.42.27-.43.56-.86.83-1.29Z"/>
    <path class="cls-4" d="m812.89,494.44c.27.56.55,1.07.8,1.55l-1.33.7c-.17-.31-.34-.65-.53-1,.35-.43.7-.85,1.07-1.25Z"/>
    <path class="cls-4" d="m834.38,524.26c-.39.47-.77.94-1.13,1.4-.04-.01-.07,0-.09,0l-.21-1.49c.44-.07.91-.04,1.43.09Z"/>
  </g>
  <path class="cls-2" d="m908.6,422.2c24.93-7.98,73.56-19.96,73.56-19.96,0,0-68.03,10.4-74.15,16.96l.59,3Z"/>
  <path class="cls-2" d="m915.16,443.54c23.81-6.84,72.68-6.84,72.68-6.84,0,0-67.15-2.71-73.27,3.84l.59,3Z"/>
  <path class="cls-2" d="m905.93,466.07c23.69,7.22,36.09,15.57,36.09,15.57,0,0-26.25-20.57-34.95-18.41l-1.14,2.84Z"/>
  <path class="cls-2" d="m881.08,489.5c17.22,17.8,20.38,26.24,20.38,26.24,0,0-9.34-25.85-18.01-28.17l-2.37,1.93Z"/>
  <g>
    <path class="cls-1" d="m832.94,524.17l.21,1.49s.05-.02.09,0c.36-.46.74-.93,1.13-1.4-.52-.13-.99-.15-1.43-.09Z"/>
    <path class="cls-1" d="m826.82,424.19s-.37.17-.95.47l1.05-.5s-.07.02-.1.03Z"/>
    <path class="cls-1" d="m983.09,496.42c-5.53,1.63-7.6,2.24-7.39,4.35.19,1.91,1.99,2.06,4.5,2.29,4.6.4,7.1,1.05,7.44,1.95-1.48,2.08-13.97,3.72-21.48,4.71-7.07.93-13.74,1.81-17.43,3.16-2.9,1.05-6.02,1.8-8.78,2.45-1.65.39-3.13.74-4.33,1.11-.95-.73-1.49-1.45-1.31-1.83.28-.53,1.36-1.63,2.23-2.5,2.3-2.31,4.46-4.49,3.25-6.72-1.04-1.93-3.56-2.56-13.86-.35-7.71,1.63-10.94,1.94-12.23,1.79.57-1.23,2.41-3.63,4.06-5.78,1.11-1.44,2.35-3.05,3.66-4.84,4.6-6.34,12.93-6.78,19.62-7.13,4.52-.24,7.79-.42,9.39-2.42.5-.61,1.03-1.68.77-3.26-.18-1.11-.36-2.12-.52-3.06-1.63-9.37-1.8-10.34,4.42-18.97,6.17-8.52,21.78-11.24,32.12-13.04,1.22-.22,2.38-.41,3.46-.61l2.35-.43c5.62-1,8.45-1.51,9.69-3.72,1.05-1.91.29-4.26-.67-6.7-1.8-4.6-1.26-5.57,5.08-14.63.87-1.26,1.85-2.65,2.93-4.22,8.23-11.96,30.04-17.26,30.26-17.32l-.25-3.86c-.25-.02-24.77-2.54-52.6-2.27-24.5.25-43.7,2.73-64.19,8.29-13.33,3.61-26.54,7.78-29.02,15.49-1.04,3.23-.1,6.69,2.82,10.28,8.84,10.85,7.43,15.33,4.06,26.18l-.45,1.44c-3.35,10.85-23.1,22.5-37.85,25.27-9.8,1.86-13.34-.49-14.39-1.6-.89-.91-.94-1.75-.89-2l.12-.52c.75-3.65,1.98-7.22,8.11-7,4.68.16,6.87-.3,8.06-1.68,1.15-1.32.87-2.92.65-4.22-.08-.4-.16-.84-.19-1.31-.06-.64-.17-1.33-.29-2.09-.54-3.22-1.12-6.86,2.72-10.13,2.23-1.91,2.33-1.79,3.59-.33.84.97,1.97,2.28,3.82,2.94,1.35.48,2.68.22,3.67-.72,3.17-2.99,1.91-12.81.86-16.4-.95-3.2-.89-6.41.14-7.79.26-.34.68-.73,1.66-.73,2.42,0,4.27-.25,5.42-1.4,1.09-1.1,1.07-2.44,1.06-3.61v-.35c0-4.03-.91-9.97-5.24-15.38-2.86-3.57-3.62-6.54-4.18-8.69-.3-1.13-.54-2.11-1.03-2.94-.06-.12-.14-.24-.22-.34.5-.53.95-1.14,1.41-1.91.76-1.26.93-2.14,1.03-2.72.08-.39.14-.71,2.6-2.3,5.15-3.34,6.05-4.12,4.18-9.38l-.08-.22c-1.29-3.6-1.46-4.05,3.26-6.1,3.24-1.41,4.83-2.78,5.34-4.57.65-2.3-.73-4.3-2.49-6.83l-.6-.85c-1.57-2.28,2.79-7.13,5.02-9l-2.05-3.28c-16.76,7.51-22.65,19.64-27.86,30.33l-.28.6c-1.32,2.73-3.36,4.19-6.03,4.36-5.1.32-11.12-3.89-13.8-7.97-1.82-2.8-3.83-3.21-5.18-3.04-3.62.43-6.23,5.56-7.38,8.28l-15.86-1.24c-14.69-16.83-26.64-7.37-26.76-7.27l-3.54,2.9,4.55.55c.1.02,10.43,1.33,11.84,8.35,1.79,8.96,5.32,9.38,9.39,8.98l.61-.05c.47-.04.98-.1,1.53-.18,3.31-.46,7.86-1.07,14.6,4.55,4.78,3.98,5.56,6.42,5.26,7.23-.34.95-2.7,2.04-8.24,2.04-2.4,0-4.53-.06-6.41-.13-8.06-.26-13.36-.43-13.66,7.97-.26,7.14,4.64,9.61,10.01,10.68-8.91,5.44-29.48,20.51-40.99,43.12-.81-.39-1.64-.8-2.49-1.2-5.26-2.53-11.21-5.39-13.34-7.92-3.61-4.33-10-9.3-15.29-12.72.98-1.23,1.16-2.56,1.31-3.66.17-1.37.31-2.45,1.93-3.75,5.78-4.7,5.08-8.82,4.98-9.28l-.86-5.25-2.49,4.33c-.33.19-1.64.86-5.01,1.07-1.28.09-2.16-.02-2.87-.11-3.27-.39-4.17.67-6.3,4.99l-.27.56.09.61c.09.53.01,1.47-.13,1.66-.14.07-.29.15-.41.26.34-2.1.54-4.31.3-6,.16-.24.59-.64.89-.92,1.36-1.25,3.88-3.6,2.41-7.55-1.87-5.06-7.48-12.33-13.59-11.86-6.11.46-7.57,5.03-7.62,5.21l-1.28,4.19,3.98-1.84c1.16-.54,2.84-.85,3.19-.59,0,0,.1.16.1.64-.02,1.88-.28,2.75-.49,3.46-.38,1.28-.57,2.25.21,4.11.02.13.02.39.01.7-.3-.48-.59-.94-.9-1.38-1.56-2.27-3.4-3.51-5.48-3.68-3.61-.29-6.58,2.75-8.54,4.79-.22.22-.43.43-.61.62-.59.59-.84.72-1.21.9-1.22.63-2.25,1.33-5.29,5.19-3.14,4.01-2.07,6.61-1.16,7.81,1.32,1.74,3.78,2.4,5.1,1.86.9-.39,1.41-1.28,1.28-2.23-.14-.88-.01-1.59.35-2.02.12-.14.24-.23.34-.28,2.06,2.28,8.07,3.61,9.99,3.98,5.58,1.08,10.5,6.13,10.73,11.02.13,2.83-1.2,6.39-2.73,10.52-1.39,3.71-2.95,7.89-3.89,12.64-.74,3.78-.22,6.93,1.54,9.34,2.55,3.49,6.78,4,6.95,4.03l6.34.72-4.84-4.15c-.82-.69-2.14-2.06-1.83-3.37.24-1.04,1.49-2.06,3.03-2.45.34-.09.65-.17.95-.23,4.4-1.03,5.83-2.6,6.86-10.9v-.02c4.1.54,20.16,16.84,27.85,26.71-2.89,31.8,13.02,50.51,19.78,56.92-1.25,1.95-2.36,3.77-3.35,5.47-1.36,2.35-2.54,4.53-3.59,6.45-3.77,6.96-6.25,11.55-12.75,16.48-3.21,2.43-7.96,4.21-13.53,5.1-.27-.96-.79-2.09-1.75-2.97-.88-.82-2.46-1.74-5.03-1.5-1.53.14-1.88.01-1.9.01-.07-.04-.12-.09-.17-.13-.93-.74-1.97-1.36-5.39-1.37-2.69-.01-4.62.76-5.74,2.28-1.5,2.01-.82,4.39-.73,4.66l.59,1.88h-.03c-6,.1-7.5,1.38-8.71,2.92-.35.46-.43.55-.95.68-.85.22-1.4.18-2.02.14-1.78-.14-3.22-.04-5.58,2.56-2.25,2.46-3.13,4.82-2.63,7.01.67,2.9,3.46,4.07,3.79,4.19l1.63.65.81-1.55c1.14-2.17,1.95-2.6,2.24-2.69.42-.11.98.19,1.77.66l.46.26c1.79,1.05,2.74,1.52,6.53,1.81,1.22.1,3.24-.11,5.52-.51-3.73,3.33-5.65,6.81-5.73,10.36-.07,4.44,2.87,7.22,2.99,7.34l2,1.84,1.12-2.48c1.3-2.88,1.73-3.86,5.63-4.85,2.02-.52,3.74-.8,5.14-1.02,2.88-.46,5.37-.86,6.13-3.33.66-.83,4.07-2.68,6.12-3.8,2.87-1.58,5.34-2.94,6.49-4.16,1.53-1.63,4.12-3.06,12.72-2.36,4.59.37,5.06,1.05,5.72,1.99.6.86,1.42,2.02,3.55,3.09l.63.31c2.89,1.47,4.13,1.97,8.88,2.12,1.04.02,1.74.28,2.07.74.57.78.34,2.24.21,2.69l-1.94,6.53,5.11-4.5c2.33-2.05,3.51-4,3.59-5.96.11-2.5-1.52-4.22-2.83-5.59-.57-.59-1.34-1.4-1.39-1.78-.39-2.98-1.03-7.94-7.44-7.94-.12,0-.24,0-.36.01l-.86.02q-2.96.09-4.16-.94c-.52-.45-1.2-1.03-2.15-1.78-2.75-2.12,1.38-8.19,5.75-14.6l.69-1.02c2.48-3.65,6.43-9.49,10.28-14.69,2.92,2.85,8.63,6.84,20.79,7.46,4.45.23,10.11.8,16.95,1.54.63,6.08,6.09,14.24,11.39,22.15,4.93,7.38,11.68,17.47,8.82,19.42-2.73,1.84-4,3.9-3.77,6.1.48,4.85,8,7.97,15.29,10.98,1.36.56,2.65,1.1,3.77,1.61,3.03,1.35,6.55,1.9,9.67,2.4,1.93.3,4.77.74,5.55,1.29-.09.27-.44.95-1.67,2.23-2.07,2.15-2.66,4.11-1.73,5.83,1.23,2.29,5.37,3.02,10.15,3.02,5.47,0,11.79-.95,15.42-1.6,3.13-.56,7.23-2.8,11.19-4.98,3.28-1.79,8.73-4.79,9.95-4.31,0,0,.2.33.07,1.48-.53,4.8-.47,7.43,1.36,8.47,1.72,1,3.37-.23,4.97-1.4.56-.42,1.14-.85,1.73-1.22.95-.58,1.66-.95,2.33-1.29,1.9-.98,3.4-1.75,7.91-6.04,2.83-2.7,4.09-7.73,5.31-12.6.95-3.79,2.13-8.51,3.75-9.23.39-.17.95-.05,1.7.34,3.62,1.93,5.96,2.87,7.93,2.27,1.78-.55,2.62-2.11,3.58-3.94.55-1.02,1.15-2.16,2.06-3.48,3.68-5.4,2.76-12.96-2.75-22.47-2.72-4.7-3.21-12.01.26-14.4.84-.57,2.18.17,3.84,1.19,1.41.88,3.01,1.87,4.51.79,1.55-1.12,1.36-3.3.38-7.45-2.28-9.54-10.14-16.65-15.87-21.84-1.8-1.62-3.34-3.01-4.4-4.19-1.45-1.64-1.32-2.25-1.32-2.27.16-.63,2.59-1.56,3.89-2.07.4-.16.82-.31,1.23-.47,1.81-.73,2.88-2.15,2.87-3.82-.03-1.98-1.5-3.89-4.24-5.53,5.28-2.39,11.16-3.77,15.95-4.89,5.04-1.17,8.71-2.04,10.59-3.67.79-.7,1.43-.82,1.64-.67.37.23.81,1.61-.12,4.38l-.21.65c-2.02,6.04-2.93,8.79-1.29,12.76.41.97,1.26,1.59,2.26,1.65,4.58.3,14.46-17.1,16.39-20.57,5.78-10.34,13.05-25.09,14.82-36.62,1.98-12.87,2.01-18.74,2.01-18.97l-3.77-.75c-.12.28-11.56,27.57-42.78,36.81Zm-172.5-81.96c.15-4.2.78-4.47,9.63-4.18,1.91.06,4.07.13,6.54.13,6.9,0,10.8-1.52,11.92-4.63,1.15-3.17-1.02-7.06-6.43-11.57-8.06-6.72-14.06-5.91-17.65-5.41-.47.06-.91.11-1.31.15l-.66.06c-2.71.26-3.95.37-5.19-5.85-1.08-5.4-5.44-8.32-9.22-9.86,3.91-.41,9.86.97,16.85,9.24l.52.62,20.44,1.59.5-1.4c1.14-3.24,3.4-6.96,4.7-7.11.32-.03.89.45,1.44,1.29,3.3,5.05,10.48,10.13,17.32,9.73,2.88-.19,6.82-1.46,9.3-6.55l.28-.6c3.92-8.05,8.25-16.95,17.66-23.75-.77,2.05-.87,4.23.49,6.21l.6.87c.93,1.33,2.1,3,1.94,3.52-.03.13-.35.84-3.13,2.05-7.51,3.26-7.01,6.47-5.39,11.01l.08.21c.35.98.74,2.1.72,2.36-.2.39-1.72,1.38-3.34,2.42-3.3,2.14-3.97,3.1-4.3,4.86-.08.43-.15.77-.55,1.44-.88,1.44-1.57,1.96-3.34,2.91l.42,1.25c-1.07.04-2.23.34-3.16.84-2.39,1.28-3.04,3.57-1.76,6.14,2.7,5.41.13,27.88-1.66,30.69-.56.89-.7,1.51-.81,2.02-.24,1.19-.48,2.31-10.87,9.36-9.81,6.68-11.15,13.15-12.57,20-.67,3.21-1.36,6.54-2.98,10.04-1.08,2.36-1.33,4.26-.73,5.83.88,2.28,3.37,3.38,5.79,4.43,3.18,1.4,6.2,2.72,6.2,6.49,0,7.36,3.84,7.59,6.94,7.77,1.17.06,2.26.13,3.1.55,6.01,3,8.16,9.1,6.39,18.14-1.3,6.7-1.33,8.71-.13,9.37,1.42.77,3.3-1.03,8.33-5.85.9-.86,1.89-1.81,2.98-2.83,10.14-9.59,18.37-3.54,26.34,2.32.52.38,1.04.77,1.57,1.15,2.12,1.54,3.28,1.97,4.12,1.56.87-.43.91-1.5.95-2.63.04-1.19.08-2.54.98-3.25.82-.66,2.37-.78,4.59-.35,15.51,3.02,30.92,13.41,42.28,28.46,11.12,14.73,13.62,40.74,5.45,56.78-8.4,16.52-20.59,23.57-44.98,25.98-23.78,2.37-43.68-19.76-53.5-39.41-.56-1.12-1.15-2.32-1.76-3.56-3.79-7.71-7.98-16.21-11.78-19.84.42.04.85.09,1.27.13,7.92.86,16.33,1.79,24.26,2.35-.8,8.54,1.38,21.71,10.2,31.7,7,7.96,16.95,12.24,28.77,12.39h.54c19.65,0,36.22-13.26,37.87-30.38,1.96-20.56-12.03-35.39-26.86-39.4-9.96-2.69-17.19-3.23-31.57-4.3-5.27-.39-11.84-.87-19.85-1.56-18.33-1.59-28.92-6.82-35.24-9.95-2.45-1.21-4.29-2.11-5.77-2.39-.39.47-.77.94-1.13,1.4,1.25-.11,3.35.92,6.23,2.35,6.42,3.18,17.17,8.49,35.78,10.09,8.02.7,14.59,1.19,19.87,1.58,14.3,1.05,21.47,1.58,31.29,4.24,14.22,3.84,27.64,18.07,25.75,37.79-1.57,16.36-17.49,29.02-36.37,29.02h-.52c-11.38-.14-20.94-4.25-27.66-11.88-8.46-9.59-10.58-22.21-9.83-30.44l6.24.18c1.1.05,2.18.08,3.24.11l8.29.24c-1.94,7.7-.66,14.94,3.67,20.47,4.09,5.23,9.6,7.44,13.24,7.3,7.53-.26,15.05-1.73,16.83-16.24.55-4.54-.4-8.06-2.83-10.48-4.16-4.12-12.4-5.14-26.72-3.3-3.53.45-7.73.58-12.34.49l-3.43-.1c-9.91-.39-21.28-1.63-31.78-2.78-7.85-.85-15.26-1.66-20.72-1.94-11.13-.56-18.34-4.51-20.56-7.05,3.37-1.14,5.15-2.97,8.47-6.99,2.54-3.07,1.98-5.24,1.56-6.83-.23-.93-.34-1.41-.06-2.02.34-.76,2.24-2.74,4.25-4.85,2.27-2.39,5.14-5.4,8.11-8.96-.04-.02-.07,0-.09,0l-.21-1.49c.44-.06.91-.04,1.43.09,2.43-3.02,4.88-6.4,7.05-10.08,2.93-4.98,3.53-11.71,1.61-17.98-1.5-4.91-4.34-8.76-7.61-10.31-7.23-3.44-14.44-.71-22.54,8.56-1.13-2.27-2.41-5.24-3.22-9.51-2.79-14.59,8.1-27.02,17.89-36.22,13.54-12.71,22.21-21.93,20.53-25.53-.82-1.78-3.49-1.45-4.37-1.35-6.57.78-10.83.79-13.52.76h-.04l-6.94-.68c-9.96-.96-12.79-2.63-12.62-7.46Zm86.66,154c.93-.08,1.82-.17,2.69-.27,8.56-1.11,20.54-2.01,25.45,2.87,2.12,2.11,2.9,5.12,2.4,9.23-1.64,13.34-7.94,14.66-15.39,14.92-3.17.08-8.24-1.94-11.99-6.74-4.19-5.35-5.31-12.46-3.16-20.01Zm-127.26-74.86c-4.87-5.89-24.74-29.26-31.63-27.4-.68.18-2.28.86-2.58,3.31-.86,6.86-1.44,7.01-3.88,7.58-.33.08-.67.16-1.05.25-2.98.78-5.28,2.88-5.86,5.36-.04.18-.08.38-.1.6-.71-1.42-.85-3.28-.41-5.53.88-4.44,2.39-8.47,3.72-12.03,1.68-4.54,3.16-8.45,2.97-12.09-.31-6.66-6.54-13.25-13.89-14.67-4.19-.81-7.26-2.1-7.72-2.59-.74-1.35-2.45-1.87-4.16-1.28-.56.18-1.09.49-1.59.91,2.66-3.38,3.35-3.73,3.9-4.02.64-.32,1.24-.67,2.19-1.61.21-.21.43-.43.65-.68,1.37-1.4,3.66-3.76,5.42-3.6.84.06,1.72.74,2.58,1.99.53.79,1.08,1.69,1.66,2.65.87,1.46,1.77,2.98,2.81,4.32l3.47-1.53c-.27-1.59-.13-3.23-.01-4.68.13-1.52.22-2.72-.18-3.72-.33-.78-.33-.8-.1-1.56.25-.85.63-2.11.66-4.54.01-2.02-.81-3.16-1.61-3.77,3.59.11,7.82,5.49,9.25,9.34.51,1.38.04,1.98-1.42,3.34-1.02.95-2.41,2.25-2.1,4.2.23,1.54-.09,4.52-.89,7.99l-.18.78,6.6,10.62-.22-7.26c-.07-2.17.37-3.25.57-3.41,2.1-1.17,2.24-3.75,2.18-5.01.39-.79,1.03-2.02,1.38-2.4.16,0,.46.04.69.07.82.1,1.95.23,3.59.13,1.22-.08,2.25-.22,3.14-.38-.55.76-1.33,1.62-2.49,2.56-2.82,2.29-3.12,4.6-3.34,6.3-.18,1.43-.25,1.86-1.65,2.48l-3.51,1.51,3.27,1.97c5.5,3.28,13.03,8.96,16.76,13.42,2.66,3.18,8.75,6.1,14.65,8.93,1.44.7,2.84,1.36,4.12,2.02-2.54,5.61-4.41,11.67-5.3,18.16-.14,1-.26,1.99-.36,2.97Zm1.47,2.7l.08-.77-.2-.26c.13-1.45.3-2.94.51-4.45.87-6.31,2.68-12.21,5.13-17.68l.52.26.86-1.8c5.91-12.31,14.77-22.47,23-30.02.07-.06.14-.12.2-.17,9.87-9.01,18.78-14.25,20.53-14.94l3.7-1.77.08-.04c.58-.3.91-.46.95-.47.03-.01.06-.02.1-.03h.01c.43-.1,1.34-.09,2.57-.06,2.67.04,7.14.11,14.38-.76,1.58-.19,2.61-.01,2.84.49,1.56,3.35-14.82,18.74-20.2,23.79-10.08,9.46-21.27,22.28-18.35,37.61.93,4.84,2.42,8.07,3.64,10.47-.08.08-.14.17-.21.25-9.05,10.97-12.11,26.04-13.64,36.42-.87,6.02-4.26,12.19-8.12,18.28-6.43-6.15-21.41-23.96-18.38-54.35Zm-35.56,93.04c.18-.06.78-.23,1.4-.23.36,0,.73.06,1.03.22.08.04.25.13.43.38-1.57.11-3.16.22-4.53.26l1.67-.63Zm68.88-32.73l-.34-.39-1.43,1.9c-4.32,5.69-9,12.58-11.79,16.71l-.69,1.01c-5.44,8-10.57,15.54-4.92,19.92.9.69,1.53,1.22,2.01,1.64,2.27,1.94,2.79,2,6.82,1.88l.85-.03c2.92-.08,3.34.85,3.82,4.53.21,1.65,1.38,2.88,2.43,3.98.16.18.35.36.52.54-.88-.56-2.09-1.01-3.79-1.07-4.12-.11-4.83-.48-7.23-1.69l-.64-.33c-1.24-.61-1.62-1.14-2.1-1.82-1.32-1.89-2.64-3.17-8.61-3.65-8.27-.67-12.87.37-15.89,3.58-.71.77-3.37,2.23-5.51,3.39-5.28,2.9-7.49,4.27-7.92,6.02-.31.26-1.84.5-3.08.7-1.46.23-3.28.52-5.47,1.08-3.63.93-5.36,2.17-6.59,3.93-.17-.58-.29-1.23-.27-1.96.07-2.5,1.68-5.12,4.8-7.78,1.89-1.62,2.46-1.57,3.7-1.44,1.58.14,3.74.37,7.8-1.71,1.86-.95,4.33-2.48,4.26-4.76-.04-1.22-.79-2.24-2.08-2.8-1.78-.78-4.63-.68-6.34.81-1.76,1.54-12.22,4.2-15.55,3.91-3.05-.24-3.51-.5-4.86-1.29l-.43-.25c-1.03-.61-2.77-1.63-4.83-1.04-1.26.35-2.38,1.22-3.44,2.66-.07-.12-.13-.25-.16-.39-.19-.84.41-2.08,1.71-3.5,1.27-1.38,1.51-1.36,2.4-1.29.76.05,1.81.13,3.3-.26,1.8-.46,2.54-1.41,3.04-2.04.49-.63,1.07-1.35,5.7-1.43,2.27-.04,5.15-.26,7.67-.48l2.59-.22-.94-2.43c-.11-.33-.27-.78-.32-.98-.54-2.27-1.83-3.38-2.81-3.9-.68-.35-1.38-.55-2.04-.62.44-.12.97-.2,1.68-.19,2.33.02,2.7.3,2.96.52,1.07.85,2.07,1.22,4.89.94,1.33-.11,1.81.32,1.97.46.69.64.83,1.88.83,2.28l-.06,2.27,2.25-.27c7.06-.85,13.2-3.01,17.3-6.13,7.18-5.44,10.12-10.87,13.83-17.74,1.09-1.99,2.2-4.04,3.53-6.34,1.2-2.06,2.55-4.25,4.14-6.7l.93-1.42-.2-.18c4.18-6.51,7.87-13.18,8.86-19.92,1.46-10.02,4.41-24.53,12.96-34.91,9.86-11.95,15.91-11.21,20.07-9.22,2.47,1.17,4.76,4.39,5.99,8.4,1.67,5.46,1.17,11.25-1.32,15.49-4.99,8.48-11.54,15.35-15.87,19.89-2.88,3.02-4.3,4.54-4.82,5.71-.75,1.64-.4,2.99-.11,4.08.34,1.33.58,2.22-.95,4.07-3.38,4.08-4.7,5.31-7.47,6.16-1.23.38-2.95,2.03-4.74,4.11Zm-56.27,45.93c.47-.26.86-.52,1.17-.8.18-.17.54-.26.91-.3-.28.19-.65.4-1.11.63-.35.18-.67.34-.97.47Zm275.25-123.79c-1.34,8.66-6.29,20.86-14.35,35.29-3.72,6.65-9.38,15.1-12.1,17.8-.33-1.84.28-3.78,1.85-8.49l.22-.65c1.36-4.07.82-7.38-1.42-8.88-1.84-1.23-4.29-.85-6.39.97-1.15,1.01-4.92,1.88-8.91,2.82-5.31,1.24-11.89,2.78-17.83,5.67l-6.77,3.25,4.28,1.62c4.5,1.69,5.56,3.4,5.62,3.61-.02.04-.15.14-.44.26-.39.16-.78.32-1.18.46-2.77,1.07-5.64,2.16-6.29,4.8-.43,1.75.3,3.64,2.2,5.79,1.19,1.33,2.8,2.8,4.68,4.5,5.36,4.85,12.7,11.49,14.7,19.85.21.86.35,1.55.44,2.08-1.93-1.16-4.82-2.64-7.57-.75-5.47,3.75-5.16,13.16-1.44,19.57,3.22,5.57,6.34,13.27,2.91,18.31-1.03,1.5-1.72,2.81-2.28,3.85-.38.75-1.03,1.96-1.28,2.04-.3.09-1.33-.04-4.94-1.99-1.86-.99-3.58-1.13-5.13-.45-3.35,1.48-4.56,6.3-5.96,11.85-1.03,4.14-2.2,8.81-4.21,10.71-4.1,3.91-5.31,4.54-6.99,5.4-.71.36-1.51.77-2.6,1.43-.73.46-1.42.97-2.02,1.41-.1.08-.23.17-.36.26,0-.75.06-1.94.26-3.74.27-2.45-.3-4.17-1.72-5.11-2.98-2-7.87.68-14.06,4.07-3.69,2.02-7.5,4.11-10.01,4.55-10.52,1.88-19.7,1.89-21.33.66.09-.2.32-.64,1-1.34,1.63-1.68,3.39-3.91,2.62-6.21-.9-2.67-4.35-3.21-8.72-3.9-2.87-.44-6.12-.95-8.66-2.1-1.16-.51-2.49-1.07-3.89-1.64-4.41-1.83-12.64-5.24-12.9-7.76-.06-.64.69-1.54,2.08-2.48,6.1-4.12-.33-13.7-7.76-24.82-5.25-7.85-11.19-16.73-10.75-21.55l.17-1.91-1.92-.22c-7.69-.84-13.97-1.5-18.88-1.75-11.69-.58-16.55-4.52-18.85-6.95,1.14-1.34,2.04-2.29,2.69-2.87,2.49,3.11,10.25,7.21,21.82,7.8,4.37.22,10.03.8,16.16,1.45l-.02.06c3.73.62,9.46,12.28,13.65,20.79.61,1.24,1.2,2.45,1.77,3.58,9.53,19.08,28.44,40.41,51.36,40.41,1.2,0,2.41-.06,3.64-.18,24.97-2.48,37.49-9.73,46.16-26.79,8.4-16.51,5.85-43.25-5.58-58.37-11.58-15.37-27.33-25.94-43.2-29.03-2.72-.53-4.62-.33-5.82.63-1.45,1.15-1.5,3.02-1.55,4.39-.02.48-.04,1.21-.08,1.31-.05.02-.56.04-2.6-1.42-.51-.38-1.03-.75-1.56-1.15-7.67-5.63-17.22-12.65-28.28-2.19-1.08,1.02-2.07,1.97-2.97,2.85-3.03,2.89-5.87,5.63-6.52,5.64-.55-.7.49-6.04.85-7.8,1.91-9.78-.51-16.43-7.2-19.78-1.11-.56-2.43-.63-3.71-.7-3.07-.17-5.5-.32-5.5-6.26,0-4.76-3.78-6.41-7.11-7.87-2.23-.98-4.33-1.89-4.98-3.59-.44-1.17-.21-2.68.69-4.65,1.7-3.67,2.4-7.08,3.09-10.38,1.41-6.82,2.64-12.72,11.94-19.04,10.89-7.41,11.15-8.62,11.5-10.32.1-.43.18-.85.61-1.51,2.07-3.26,4.71-26.2,1.74-32.16-.93-1.86-.56-3.25,1.1-4.15.98-.52,2.1-.69,2.96-.65l.3.9c.49-.08.83-.08,1.04-.06.16.42.31,1.01.48,1.66.61,2.36,1.54,5.92,4.91,10.15,3.63,4.54,4.39,9.53,4.39,12.94v.37c0,.28,0,.62-.02.84-.26.09-.95.23-2.55.23-2.01,0-3.67.8-4.79,2.31-2.16,2.88-1.81,7.7-.77,11.24,1.24,4.22,1.24,10.72.35,12.25-.78-.35-1.37-1.03-1.98-1.75-1.89-2.18-4.3-4.16-9.09-.09-5.53,4.71-4.6,10.37-4.04,13.75.1.65.21,1.24.25,1.77.05.6.14,1.16.23,1.68.05.33.13.75.14,1.01-.39.14-1.56.4-4.87.3-.2-.02-.41-.02-.6-.02-9.37,0-10.88,7.33-11.47,10.14l-.09.47c-.32,1.42,0,3.62,1.88,5.57,2.28,2.36,7.25,4.74,17.94,2.72,16.15-3.05,37.04-15.65,40.85-27.96l.46-1.43c3.48-11.18,5.4-17.34-4.76-29.83-2.06-2.52-2.75-4.68-2.14-6.6,2.03-6.34,17.84-10.62,26.33-12.93,14.22-3.84,32.84-7.83,63.2-8.13,17.03-.19,32.82.71,42.45,1.43-7.55,2.91-17.71,8.02-23.12,15.89-1.08,1.55-2.05,2.94-2.92,4.18-6.4,9.16-8.13,11.61-5.51,18.3,1.04,2.65.94,3.25.89,3.37-.39.6-3.73,1.19-6.96,1.78l-2.36.43c-1.07.2-2.22.39-3.43.6-10.96,1.91-27.52,4.8-34.62,14.62-6.99,9.68-6.9,11.65-5.11,21.91.16.94.34,1.95.52,3.05.02.11.02.17.03.19-.63.61-4.17.81-6.54.92-7.12.38-16.87.9-22.58,8.74-1.28,1.76-2.51,3.35-3.59,4.77-3.94,5.13-6.12,7.96-4.59,10.37,1.47,2.34,5.05,2.3,16.68-.18,4.9-1.04,7.45-1.29,8.74-1.32-.52.62-1.22,1.31-1.72,1.82-1.23,1.23-2.4,2.41-2.95,3.5-.59,1.19-1.45,4.28,3.44,7.4l.82.52.92-.34c1.09-.4,2.84-.82,4.86-1.3,2.86-.68,6.09-1.46,9.21-2.59,3.29-1.2,10.05-2.08,16.6-2.96,13.42-1.76,21.74-3.06,24.15-6.32.63-.84.87-1.8.71-2.79-.47-2.82-3.16-4.07-6.09-4.68,21.45-6.76,33.69-21.21,39.58-30.43-.29,2.56-.69,5.67-1.26,9.38Z"/>
  </g>
</svg>