<?xml version="1.0" encoding="UTF-8"?>
<svg id="Capa_1" data-name="Capa 1" xmlns="http://www.w3.org/2000/svg" xmlns:xlink="http://www.w3.org/1999/xlink" viewBox="0 0 1080 1080">
  <defs>
    <style>
      .cls-1 {
        fill: #8e8e8e;
      }

      .cls-2 {
        clip-path: url(#clippath);
      }
    </style>
    <clipPath id="clippath">
      <path class="cls-1" d="m503.72,235.63c-190.18,0-344.34,154.17-344.34,344.34s154.17,344.34,344.34,344.34,344.34-154.17,344.34-344.34-154.17-344.34-344.34-344.34Zm-1.34,659.08c-173.82,0-314.74-140.91-314.74-314.74s140.91-314.74,314.74-314.74,314.74,140.91,314.74,314.74-140.91,314.74-314.74,314.74Z"/>
    </clipPath>
  </defs>
  <g>
    <path class="cls-1" d="m256.7,672.59h-12.68v-116.12h-13.6v-10.84h40.6v11.39h-13.5l-.83,115.57Z"/>
    <path class="cls-1" d="m428.95,672.59h-12.68v-116.12h-13.6v-10.84h40.6v11.39h-13.5l-.83,115.57Z"/>
    <path class="cls-1" d="m307.55,545.63h-5.6c-9.56,0-17.32,7.75-17.32,17.32v92.97c0,9.56,7.75,17.32,17.32,17.32h5.6c9.56,0,17.32-7.75,17.32-17.32v-92.97c0-9.56-7.75-17.32-17.32-17.32Zm3.81,110.32c0,3.24-2.41,6.01-5.64,6.36-.3.03-.6.05-.92.04-.3,0-.59-.02-.87-.06-3.18-.38-5.53-3.15-5.53-6.35v-93.27c0-3.31,2.52-6.13,5.83-6.38.31-.02.63-.03.97-.02.1,0,.19,0,.29.02,3.32.23,5.87,3.05,5.87,6.38v93.27Z"/>
    <path class="cls-1" d="m383.29,587.16h-12.68v-23.98c0-3.81-3.08-6.89-6.89-6.89h0c-3.81,0-6.89,3.08-6.89,6.89v3.26c0,3.49.63,6.96,1.86,10.23l23.8,63.1c.84,3,1.68,7.28,1.53,12.43-.12,4.04-.8,7.45-1.53,10.04-3.72,6.97-11.01,11.33-18.91,11.31-7.86-.02-15.11-4.37-18.82-11.31-.34-1.07-.8-2.69-1.14-4.7-.69-4.08-.47-7.23-.39-8.59.2-3.31.29-8.06.09-15.31-.04-1.67,1.25-3.07,2.91-3.15,1.31-.07,2.68-.1,4.1-.1,1.26,0,2.48.04,3.65.1,1.63.08,2.91,1.43,2.91,3.06v23.35c1.09,3.75,4.68,5.97,7.98,5.34,2.54-.48,4.63-2.59,5.31-5.34.43-3.38.23-6.13-.03-8.02-.29-2.05-.72-3.6-1.52-6.34-.86-3-1.72-5.45-2.37-7.2-7.25-19.49-14.49-38.98-21.74-58.47-.67-3.48-1.18-7.85-1.01-12.88.05-1.62-.03-2.92.33-4.56.92-4.17,3.33-6.9,4.17-7.84,5.79-6.42,14.23-6.51,15.71-6.52,2.26-.02,4.25.35,4.6.42,2.33.45,4.4,1.24,6.21,2.16,5.41,2.78,8.76,8.4,8.76,14.48v25.01Z"/>
    <g>
      <rect class="cls-1" x="693.43" y="545.63" width="13.6" height="127.51"/>
      <path class="cls-1" d="m701.6,526.07c-.49.64-1.22,1.67-1.93,3.03-1.28,2.47-2.73,5.24-1.55,7.04.91,1.39,2.92,1.49,3.2,1.5,1.45.07,2.44-.58,4.23-1.75,2.86-1.88,4.31-3.92,4.87-4.78.92-1.41,1.37-2.13,1.29-3.12-.16-1.85-2.07-3.19-3.49-3.67-3.37-1.16-6.47,1.61-6.61,1.75Z"/>
    </g>
    <path class="cls-1" d="m489.72,553.11c-.34-4.22-3.87-7.48-8.1-7.48h-8.49c-4.21,0-7.72,3.21-8.1,7.41l-10.64,119.55h12.68c1.01-13.78,2.02-27.56,3.03-41.34,1.46-.38,3.27-.72,5.36-.82,3.23-.16,5.93.32,7.87.82l2.76,41.89,13.23-.55-9.6-119.48Zm-18.24,66.7l5.14-53.24,6.98,53.24h-12.13Z"/>
    <path class="cls-1" d="m760.17,553.11c-.34-4.22-3.87-7.48-8.1-7.48h-8.49c-4.21,0-7.72,3.21-8.1,7.41l-10.64,119.55h12.68c1.01-13.78,2.02-27.56,3.03-41.34,1.46-.38,3.27-.72,5.36-.82,3.23-.16,5.93.32,7.87.82l2.76,41.89,13.23-.55-9.6-119.48Zm-18.24,66.7l5.14-53.24,6.98,53.24h-12.13Z"/>
    <path class="cls-1" d="m540.62,546.26c-10.5.29-22.21.37-23.21-.63-1.84-1.84,0,126.96,0,126.96l23.44.32c9.14.13,16.61-7.25,16.61-16.39v-93.89c0-9.23-7.62-16.63-16.84-16.38Zm3.98,108.38c0,4.23-3.71,7.67-8.29,7.67h-5.86v-106.2h5.86c4.58,0,8.29,3.43,8.29,7.67v90.86Z"/>
    <path class="cls-1" d="m575.93,545.61v107.42c0,10.83,8.39,19.95,19.21,20.54.18,0,.36.02.54.02.48.01.95.01,1.43,0,10.98-.41,19.61-9.57,19.61-20.56v-107.42h-13.78v109.75c0,3.58-2.9,6.48-6.48,6.48h-1.84c-2.82,0-5.1-2.28-5.1-5.1v-111.13h-13.6Z"/>
    <path class="cls-1" d="m672.75,614.62c-1.09-2.21-2.35-3.92-3.4-5.14,1.05-1.23,2.29-2.94,3.37-5.14,0-.02.02-.04.03-.06,1.22-2.49,1.84-5.23,1.85-8.01.06-11.13.11-22.25.17-33.38-.07-1.5-.5-6.83-4.73-11.44-4.89-5.33-11.26-5.77-12.54-5.83h-22.97v127.51h13.18v-58.06h7.69c3.1,0,5.62,2.52,5.62,5.62v52.44h13.75c-.06-17.82-.12-35.64-.18-53.47-.35-1.42-.9-3.16-1.84-5.05Zm-11.45-16.9c0,3.43-2.43,6.2-5.41,6.15l-7.63-.12s-.6-48.38,0-47.69c.33.37,4.14.34,7.56.24,3-.1,5.48,2.69,5.48,6.15v35.26Z"/>
    <polygon class="cls-1" points="786.11 681.66 779.93 680.74 747.84 680.25 638.4 679.02 490.95 679.02 409.93 679.02 332.76 679.02 274.61 679.85 221.33 681.66 281.32 683.71 356.92 684.26 479.1 684.72 573.26 684.72 688.37 683.98 769.12 682.88 781.15 682.42 786.11 681.66"/>
    <path class="cls-1" d="m269.79,700.03l-7.07,25.2h-8.97l13.32-38.31h5.43l13.45,38.31h-9.1l-7.07-25.2Zm7.34,15.42h-15.35l.95-3.79h13.32l1.09,3.79Z"/>
    <path class="cls-1" d="m414.21,700.03l-7.07,25.2h-8.97l13.32-38.31h5.43l13.45,38.31h-9.1l-7.07-25.2Zm7.34,15.42h-15.35l.95-3.79h13.32l1.09,3.79Z"/>
    <path class="cls-1" d="m724.6,700.03l-7.07,25.2h-8.97l13.32-38.31h5.43l13.45,38.31h-9.1l-7.07-25.2Zm7.34,15.42h-15.35l.95-3.79h13.32l1.09,3.79Z"/>
    <path class="cls-1" d="m331.48,686.92h7.48v.43c-.34.25-.56.51-.67.8-.1.29-.15.78-.15,1.48v30.99h13.73v4.61h-20.39v-38.31Z"/>
    <path class="cls-1" d="m481.95,725.51v-38.52h6.87l8.11,15.03,8.24-15.09h6.73v38.58h-7.56c.03-6.7.07-13.39.1-20.09-2.58,4.25-5.16,8.49-7.74,12.74-2.45-6.31-4.89-12.62-7.34-18.93l.14,26.28h-7.56Z"/>
    <path class="cls-1" d="m566.29,725.23v-38.31h19.57v4.37h-13.21v11.81h10.63v4.37h-10.63v13.4h13.21v4.37h-19.57Z"/>
    <path class="cls-1" d="m635.96,725.51v-39.32h9.71c2.21,0,4.14.16,5.77.47,1.64.32,3.07.83,4.3,1.54,1.23.71,2.25,1.66,3.07,2.84.82,1.13,1.49,2.38,2.03,3.75.53,1.37.92,2.96,1.17,4.79.25,1.83.37,3.98.37,6.46,0,3.19-.35,6.01-1.04,8.44-.7,2.44-1.76,4.47-3.19,6.11-1.43,1.64-3.26,2.87-5.47,3.69-2.21.82-4.79,1.23-7.74,1.23h-8.97Zm8.23-4.48h1.47c1.97,0,3.58-.56,4.85-1.67,1.27-1.11,2.23-2.77,2.89-4.98.65-2.2,1.02-4.9,1.11-8.09,0-3.23-.27-6-.8-8.31-.53-2.31-1.37-4.1-2.52-5.39-1.15-1.28-2.75-1.92-4.79-1.92h-2.21v30.36Z"/>
    <g>
      <path class="cls-1" d="m503.72,235.63c-190.18,0-344.34,154.17-344.34,344.34s154.17,344.34,344.34,344.34,344.34-154.17,344.34-344.34-154.17-344.34-344.34-344.34Zm-1.34,659.08c-173.82,0-314.74-140.91-314.74-314.74s140.91-314.74,314.74-314.74,314.74,140.91,314.74,314.74-140.91,314.74-314.74,314.74Z"/>
      <g class="cls-2">
        <g>
          <path class="cls-1" d="m425.25,286.03c15.28-18.54,30.55-37.09,45.83-55.63h0l-176.65,56.52,122.67,3.74c2.72-1.54,5.43-3.09,8.15-4.63Z"/>
          <path class="cls-1" d="m621.11,904.85l-92.26-42.94s-260.14-113.71-266.75-121.27c-6.61-7.56-42.96-137.39-42.96-137.39l72.48-194.6,85.21-105.24,21.92-13.32-142.15-5.92-142.22,149.24s-6.61,165.13-5.51,172.86,62.89,156.62,62.89,156.62c0,0,91.49,121.18,103.59,136.62,12.1,15.44,212.71,62.85,212.71,62.85,0,0,134.89-63.25,133.05-57.53Z"/>
          <polygon class="cls-1" points="567.39 879.85 628.27 907.81 651.42 847.18 567.39 879.85"/>
          <path class="cls-1" d="m647.7,856.93l83.21-61.72,93.4-38.6-101.79,164.57s-86.35,21.73-85.62,17.69-6.9-35.58-6.9-35.58l17.7-46.35Z"/>
          <path class="cls-1" d="m812.97,607.52c13.69,33.84,35.09,115.45,35.09,115.45l-35.09,38.32-98.51,40.7,98.51-194.47Z"/>
          <path class="cls-1" d="m703.6,341.8l116.9,29.16,52.87,243.71-17.64,74.88-16.22,6.61-61.07-141.52s-78.14-155.07-78.14-165.24,3.31-47.59,3.31-47.59Z"/>
          <path class="cls-1" d="m579.58,230.4c1.1,1.1,59.53,89.29,59.53,89.29l35.83,22.1,133.15,22.54-103.94-103.9-124.57-30.04Z"/>
          <polygon class="cls-1" points="624.31 297.37 414.91 283.53 488.56 208.35 619.71 213.31 624.31 297.37"/>
        </g>
      </g>
    </g>
  </g>
  <g>
    <path class="cls-1" d="m416.09,507.11c-.91-1.61-1.82-3.12-2.63-4.68-1.34-2.57-1.88-5.36-2.09-8.21-.15-2.12-.21-4.25-.22-6.37,0-.81-.28-.98-1.03-1.03-3.55-.22-7.12-.37-10.64-.8-3.17-.39-6.16-1.47-8.97-3.04-1.21-.68-1.88-1.67-1.83-3.06.04-1.28.15-2.57.29-3.84.07-.64,0-1-.67-1.33-.99-.48-1.87-1.17-2.78-1.81-3.84-2.68-7.91-2.97-12.21-1.24-1.26.51-2.51,1.13-3.96,1.02-1.99-.15-3.9-.56-5.71-1.38-.23-.1-.42-.28-.71-.47.92,0,1.71.04,2.49-.02.41-.03.9-.15,1.19-.4,1.85-1.65,3.64-3.36,5.47-5.03.37-.34.78-.67,1.23-.88,9.95-4.64,19.47-10.08,28.9-15.67,7.42-4.39,14.86-8.77,22.2-13.3,2.77-1.71,5.29-3.82,7.93-5.74,7.35-5.38,14.66-10.81,22.07-16.11,5.44-3.89,9.98-8.67,14.2-13.8.57-.69,1.21-1.33,1.75-2.05.19-.26.31-.72.22-1.01-.74-2.29-2.31-3.98-4.22-5.31-4.19-2.92-8.86-4.87-13.69-6.43-1.48-.48-2.93-1.09-4.43-1.47-2.52-.63-4.24-2.18-5.34-4.43-.47-.95-1.06-1.14-2.01-.95-.84.17-1.71.19-2.56.28-.03.08-.06.15-.09.23.96.77,1.92,1.53,3.07,2.44-6.87.54-12.88,2.97-18.56,6.62-.83-1.75-1.64-3.41-2.42-5.08-1.56-3.34-3.01-6.72-3.76-10.35-.57-2.75-1.13-5.51-1.76-8.25-.16-.71.2-.83.69-.97,2.66-.72,5.32-1.45,7.98-2.16,1.24-.33,1.24-.31.86-1.54-.23-.74-.45-1.49-.63-2.25-.35-1.51.05-2.49,1.5-3.03,1.19-.45,2.48-.66,3.73-.94.57-.13.77-.37.52-.94-1.56-3.57-3.11-7.14-4.66-10.71-.03-.08-.11-.14-.26-.32-1.25.55-2.53,1.1-3.8,1.69-.6.28-.6.7-.11,1.11.62.52,1.18,1.16,1.89,1.49,1.61.75,2.55,2.04,3.24,3.57.34.76.6,1.56.87,2.35.18.52,0,.81-.58.81-3.64-.04-7.3.16-10.9-.62-.34-.07-.8-.15-1.05.01-.6.39-1.16.17-1.77.16-.77,0-.96-.4-1.17-.95-1.01-2.65-1.6-5.41-1.69-8.23-.14-4.64-.26-9.28-.16-13.92.08-4.19,1.01-8.25,2.93-12.02.28-.54.51-.97,1.39-.93,3.32.15,6.09,1.63,8.8,3.31,3.86,2.39,7.41,5.21,10.46,8.56,1.01,1.11,1.46,2.72,2.23,4.06.48.84,1.08,1.61,1.66,2.39,1.33,1.8,2.82,3.51,3.99,5.4,2.13,3.42,4.58,6.58,7.21,9.61,2.81,3.24,5.25,6.71,7.18,10.59,1.83,3.66,4.2,7.05,6.08,10.68,2.41,4.67,4.71,9.42,6.81,14.24,1.99,4.57,3.66,9.28,5.47,13.93.08.21.21.4.55.6.09-.74.23-1.49.26-2.23.09-2.87.08-5.75.22-8.62.11-2.15.41-4.28.59-6.43.04-.49.04-1.02-.08-1.49-.61-2.38-.65-4.79-.44-7.22.21-2.44.35-4.89.63-7.33.38-3.41.85-6.82,1.3-10.22.41-3.08.69-6.19,1.31-9.23.71-3.48,1.61-6.93,2.65-10.33,1.23-4,2.66-7.94,4.07-11.88.33-.92.82-1.81,1.37-2.62,1.32-1.92,2.25-4,2.9-6.23,1.9-6.57,5.49-12.25,9.44-17.73.18-.25.63-.32.96-.47.05-.02.12.01.18.02q2.2.3,2.19,2.52c0,3.97-.69,7.86-1.34,11.76-.66,3.96-1.27,7.92-1.86,11.89-.16,1.05-.16,2.12-.24,3.37-1.15-.45-2.11-.81-3.18-1.23.31,1.66.64,3.18.88,4.7.23,1.48.35,2.97.57,4.45.1.7-.17.86-.79.76-.36-.06-.74-.05-1.28-.09.28.72.51,1.25.7,1.81.44,1.27.87,2.55,1.28,3.83.93,2.9.18,5.57-1.24,8.1-.93,1.66-1.09,3.4-.58,5.12.93,3.14.36,6.02-1.03,8.86-.24.49-.37,1.09-.35,1.64.06,2.24.28,4.48.3,6.72.02,2.75-.07,5.51-.17,8.26-.01.33-.28.74-.55.97-6.4,5.51-11.66,11.94-15.9,19.23-.81,1.4-1.74,2.72-2.54,4.13-.17.3-.16.9.03,1.19,1.03,1.58,2.11,3.13,3.23,4.64.34.45.42.77.15,1.27-.96,1.78-.94,1.79-2.88,1.29q-2.02-.51-2.69,1.51c-.19.56-.36,1.12-.57,1.82.46.04.8.08,1.14.09,1.44.05,2.87.09,4.31.15,2.43.1,4.69.82,6.89,1.84,3.3,1.54,6.75,2.63,10.45,2.72,1.26.03,2.27.69,3.16,1.54.67.63,1.35,1.25,2.14,1.97.26-1.01.55-1.99.75-2.99.03-.14-.32-.45-.55-.54-.99-.39-2.01-.72-3.26-1.16,1.13-1.29,2.13-2.44,3.27-3.74.65,1.35,1.18,2.47,1.78,3.73.73-.57,1.43-1.02,2.03-1.58,3.17-2.96,7.01-4.49,11.13-5.54,2.67-.68,5.31-1.49,7.64-3.05,1.35-.91,1.49-1.32.92-2.85-.16-.44-.32-.89-.55-1.52.59-.04,1.04-.07,1.5-.09,2.86-.11,5.72-.32,8.16-2.04,2.61-1.85,5.16-3.8,7.73-5.71,1.01-.75,1.57-1.71,1.38-3.02-.02-.15,0-.3,0-.45-.02-2.47.45-2.78,3-2.58,2.34.19,4.7.57,7.06-.01,1.36-.34,2.51-.83,2.68-2.44.01-.12.08-.23.12-.34,1.3-3.24,1.84-3.21,4.86-3.39.87-.05,1.74-.03,2.61-.05.51-.01.86-.2.89-.78.05-.99.11-1.97.2-2.96.05-.61-.21-.96-.78-1.13-.54-.16-1.08-.37-1.63-.47-.69-.13-1.04-.41-.77-1.16.17-.48.25-1.01.49-1.44.51-.88.46-1.69-.12-2.49-.57-.78-.25-1.14.53-1.54,1.22-.61,2.41-1.32,3.52-2.12,1.17-.84,1.71-2.13,2.02-3.51.16-.73.43-1.47.42-2.2-.04-1.67,1.15-2.03,2.51-2.56v3.88l.26.15c.57-.38,1.14-.76,1.8-1.19.02.31.06.56.06.81,0,3.87.02,7.73,0,11.6,0,1.25-.11,2.51-.17,3.76,0,.03,0,.07,0,.09-1.09,1.69-.4,3.6-.62,5.4-.42,3.32-.63,6.67-.84,10.01-.12,1.94-.08,3.89-.09,5.84,0,.23.1.45.14.66.12,0,.21.04.23.01,1.88-2.19,4.12-3.98,6.38-5.77,2.2-1.75,4.21-3.74,6.35-5.56,1.27-1.09,2.64-2.06,3.97-3.08.09-.07.2-.18.3-.18,2.37-.08,3.95-1.76,5.75-2.91,3.05-1.95,5.97-4.11,8.97-6.15,1.01-.69,2.12-1.24,3.16-1.89.49-.3.75-.16.97.32.22.48.49.95.84,1.61,1.72-2.35,3.6-4.35,5.71-6.11.08.05.16.1.24.14-.15.62-.27,1.26-.47,1.87-1.79,5.43-2.55,11.07-3.29,16.71-.23,1.75-.67,3.47-1.07,5.19-.08.36-.35.81-.66.98-3.92,2.09-6.87,5.28-9.71,8.58-2.13,2.47-4.14,5.04-6.19,7.58-.2.25-.34.54-.61.98,1.2.31,2.25.64,3.32.83.88.16,1.57.52,2.03,1.29.79,1.33,1.6,2.66,2.36,4.01.16.29.17.67.27,1.12-3.67-.93-7.21-1.82-10.83-2.73.86-1.37,1.71-2.71,2.55-4.05-.07-.05-.13-.11-.2-.16-.29.19-.59.37-.86.58-2.85,2.19-6.12,3.13-9.67,3.45-4.47.4-8.96.77-13.38,1.54-9.17,1.61-16.4,6.56-22.27,13.65-4.31,5.19-7.69,10.98-10.86,16.9-.1.18-.17.38-.24.56,1.11.74,1.44.68,2.01-.4,1.75-3.33,3.64-6.57,6.51-9.08,1.32-1.15,2.84-2.08,4.29-3.08,1.05-.73,2.13-1.41,3.44-2.27-.57,3.7-1.61,7.07-2.59,10.58.58.18,1.13.39,1.7.52.17.04.47-.11.57-.26,1.69-2.57,3.36-5.16,5.04-7.75.01-.02,0-.06-.03-.2-.63.08-1.26.17-1.89.24-.44.05-.89.05-.88-.57.01-1.65-.03-3.3.09-4.94.14-1.9,1.14-3.41,2.61-4.55,2.49-1.92,5.05-3.74,7.57-5.61,1.34-.99,2.85-1.09,4.26-.43,1.75.81,3.37.69,5.11.11,1.16-.39,2.44-1.01,3.54-.81,1.09.2,2.03,1.29,3.02,2.01.91.66,1.81,1.34,2.72,2.02-1.06,1.17-1.03,1.15-.34,2.6.14.29.06.77-.07,1.1-.19.48-.53.91-.8,1.35,5.42.4,10.73.79,16.04,1.18.01.1.02.19.04.29-.15.09-.29.23-.45.28-5.01,1.31-10.07,2.39-15.23,2.84-7.79.68-14.01,4.46-19.72,9.41-.08.07-.13.18-.36.55,1.39-.12,2.57-.14,3.72-.33,3.72-.62,7.43-1.31,11.15-1.95.93-.16,1.88-.23,3.04-.36-.84,1.38-1.56,2.57-2.28,3.75.07.06.14.13.22.19.25-.06.51-.1.75-.18,4.78-1.61,9.74-2.18,14.75-2.49,5.44-.34,10.88-.67,16.32-1.01,1.72-.11,3.44-.24,5.16-.48-2.41-1.16-5.24-.95-7.54-2.35,0-.09.01-.17.02-.26.5-.1,1-.21,1.5-.31,1.75-.35,3.5-.67,5.24-1.04.64-.14,1.9-2.33,1.71-2.96-.06-.2-.24-.44-.43-.52-3.28-1.43-5.83-3.98-8.91-5.71-2.05-1.15-4.13-2.27-6.35-3.48-.16.76-.3,1.27-.36,1.79-.06.49-.25.72-.75.82-3.76.71-7.39.43-10.8-1.42-.22-.12-.44-.34-.52-.56-.88-2.29-1.73-4.59-2.58-6.9-.04-.1,0-.22,0-.39.18.03.33.03.46.07,6.54,1.93,13.07,3.91,19.63,5.79,3.83,1.1,7.35,2.89,10.87,4.69,3.11,1.59,6.35,2.58,9.84,2.9,1.35.12,2.73.44,4,.93,2.7,1.03,4.87,2.76,6.26,5.38.32.6.8,1.12,1.2,1.68.61.84.56,1.12-.29,1.64-.66.41-1.33.81-2.02,1.18-.51.28-.78.62-.59,1.23.39,1.24.07,2.17-.83,3.2-1.59,1.81-2.84,3.93-4.38,5.79-1.93,2.33-3.96,4.58-6.03,6.78-1.39,1.48-2.91,2.85-4.41,4.23-.37.34-.43.57-.21,1.06.5,1.09,1.23,1.76,2.44,1.98.75.14,1.47.45,2.52.79-.98.62-1.71,1.16-2.51,1.57-.77.39-.87.78-.42,1.53,1.14,1.88,1.05,1.85-.45,3.46-2.13,2.27-4.19,4.61-6.24,6.95-.44.5-.73,1.12-1.09,1.69.05.05.11.11.16.16.47-.22.99-.38,1.42-.67,1.58-1.08,3.14-2.19,4.68-3.33.47-.35.88-.55,1.47-.37,2.12.66,4.24,1.29,6.36,1.92.6.17.74.46.69,1.11-.19,2.36-1.48,3.96-3.29,5.31-3.07,2.3-6.43,4.06-9.92,5.59-6.23,2.72-12.47,5.42-18.78,7.94-4.46,1.78-9.12,2.94-13.88,3.62-1.08.15-2.2,0-3.31-.04-2.3-.1-4.6-.18-6.9-.34-2.06-.14-4.13-.26-6.15-.63-.97-.18-2.06-.71-2.71-1.42-2.95-3.22-6.58-5.34-10.51-7.06-.59-.26-1.15-.65-1.64-1.07-1.8-1.53-3.56-3.12-5.37-4.64-.43-.36-1.02-.63-1.58-.74-4.84-1.01-9.74-1.64-14.69-1.76-.73-.02-1.32.17-1.88.65-2.25,1.91-4.74,3.41-7.44,4.63-3.1,1.41-6.09,3.08-9.13,4.62-.83.42-1.67.83-2.53,1.15-.75.28-.77.65-.42,1.29.79,1.44,1.51,2.93,2.3,4.37.38.69.23,1.05-.46,1.4-3.55,1.82-7.35,2.77-11.29,3-3.49.2-7,.15-10.51.22-1.44.03-2.87.16-4.31.13-1.61-.03-3.22-.2-4.82-.31-4.17-.27-8.17.25-11.56,2.95-1.92,1.52-3.06,3.68-4.01,5.89-.8,1.84-1.42,3.75-2.16,5.61-.13.31-.42.68-.72.79-1.29.47-2.63.79-3.91,1.27-4.1,1.54-8.24,1.21-12.4.34-7.86-1.65-15.28-4.46-22.32-8.29-2.11-1.15-4.04-2.58-5.64-4.4-.28-.31-.52-.66-.75-1-.52-.78-.58-1.58.06-2.31,1-1.15,2.02-2.28,3.05-3.4.38-.41.82-.77,1.19-1.12Zm36.32,17.83c2.25-1.18,4.28-2.38,4.99-5.01,1.81-6.68,2.92-13.5,3.7-20.36.87-7.66.77-15.36.6-23.05-.07-3.28-.26-6.62,1.85-9.48.38-.52.21-.91-.21-1.32-1.99-1.95-3.27-4.33-4.18-6.93-.09-.25-.2-.48-.34-.8-3.35,1.21-6.47,2.67-8.82,5.38-1.62,1.87-2.54,4.15-3.26,6.45-1.2,3.84-2.22,7.74-2.43,11.79-.15,2.99-.16,5.99-.5,8.96-.33,2.94.23,5.71,1.02,8.48.43,1.52.77,3.07,1.21,4.59.23.81-.04.99-.81.96-1.38-.05-2.77-.01-4.34-.01.4.18.66.29.92.42,1.51.72,3.02,1.46,4.54,2.16.62.29.84.73.91,1.4.36,3.48.76,6.96,2.31,10.18.97,2.02,1.86,4.07,2.83,6.22Zm8.99-83c.4.35.56.52.74.65,2.27,1.67,4.84,2.74,7.49,3.62,2.81.93,5.65,1.79,8.46,2.71.6.2,1.17.52,1.97.89-2.15.48-4.03.91-5.91,1.33.01.09.02.17.03.26,1.11.34,2.22.67,3.33,1.01-1.71,1.21-3.49,1.8-5.47,1.63-1.84-.16-3.46-.96-5.01-1.87-1.98-1.17-4.13-1.28-6.34-1.2-.07,0-.13.1-.29.22,1.46.84,2.87,1.65,4.39,2.52-.82.78-1.53,1.45-2.35,2.23.5.1.79.21,1.08.21,3.95.02,7.93.33,11.82-.47,4.02-.82,7.95-.69,11.9.38,1.99.54,4.01,1.04,6.04,1.31,1.76.23,3.36.77,4.94,1.51,3.33,1.57,6.68,3.11,10.02,4.65.43.2.88.38,1.32.57.05-.08.09-.16.14-.24-1.56-1.2-3.03-2.56-4.71-3.55-2.78-1.64-5.67-3.1-8.56-4.54-5.09-2.53-10.23-4.98-15.34-7.47-1.02-.5-1.73-1.31-2.38-2.44.42,0,.68-.02.94,0,3.36.3,6.63,1.01,9.8,2.17,7.89,2.89,14.95,7.27,21.65,12.27.32.24.63.47,1.11.83.07-.75.2-1.29.15-1.81-.04-.35-.26-.8-.55-.99-3.65-2.51-7.34-4.97-11.01-7.45-3.73-2.52-7.53-4.97-11.84-6.35-7.3-2.34-14.82-3.34-22.49-3.02-1.6.07-3.2.27-5.08.43Zm54.81,17.24c.08-.1.17-.21.25-.31-1.12-1.22-2.17-2.5-3.36-3.64-4.31-4.14-9.06-7.71-14.14-10.87-6.33-3.94-12.98-7.13-20.31-8.64-4.27-.88-8.63-1.34-12.95-1.97-4.76-.69-9.44-.31-13.97,1.36-1.94.71-3.8,1.65-5.7,2.49,1.87.46,3.67.54,5.39.96,1.33.33,2.6.38,3.9.17,3.37-.54,6.75-.45,10.11-.01,5.28.7,10.55,1.47,15.82,2.3,4.24.67,8.45,1.58,12.31,3.51,6.95,3.48,13.62,7.43,19.46,12.64.93.83,2.13,1.35,3.2,2.02Zm26.14,5.66c-.11.02-.23.05-.34.07-.56-1.04-1.47-2.04-1.6-3.14-.22-1.82-1.23-2.03-2.66-2.05-.64-.01-.98.07-.9.79.27,2.52.52,5.05.77,7.57.09.92.47,1.41,1.49,1.26.53-.08,1.08-.05,1.61.03.53.08,1.04.28,1.81.5-1.21,1.1-2.19,2.02-3.21,2.89-.37.32-.5.59-.13.95,1.68,1.65,2.17,3.72,2.19,5.98.02,1.52.61,2.75,1.93,3.64,1.16.78,2.25,1.69,3.38,2.52,1.26.92,2.51,1.85,3.81,2.69,1.06.68,1.56.5,1.96-.7.34-1.04.53-2.14.72-3.23.04-.22-.18-.56-.37-.73-3.71-3.45-6.03-7.78-7.91-12.38-.1-.26.04-.74.23-.97.54-.63,1.19-1.17,1.76-1.78.16-.17.32-.51.26-.7-.22-.69-.54-1.35-.82-2.02-.1-.04-.21-.09-.31-.13l-1.43,1.79-.23-.11c-.12-2.12-.24-4.25-.36-6.37-.06,0-.12,0-.18,0-.49,1.21-.97,2.43-1.46,3.64Zm-9.48-51.02c.05.09.09.18.14.27,2.47.64,4.97,1,7.56.82-1.22-1.33-2.48-2.55-3.78-3.73-.18-.16-.65-.29-.77-.19-1.08.91-2.11,1.88-3.15,2.83Zm93.91,30.74c-1.84-3.03-7.26-5.2-9.6-3.81,1.62,1.01,2.82,2.51,4.83,2.81,1.58.23,3.13.65,4.78,1Zm-135.02-13.62c.54.95.97,1.73,1.43,2.48.08.13.28.29.42.28,1.11-.05,2.21-.17,3.32-.69-.3-.48-.49-.89-.78-1.22-.3-.33-.67-.77-1.04-.82-1.03-.11-2.08-.04-3.35-.04Zm-60.75-66.89c1.69.36,3.15.68,4.88,1.05-.87-1.6-1.6-2.93-2.45-4.48-.86,1.22-1.58,2.24-2.43,3.43Zm162.35,64.88c-1.36-2.06-4.28-2.75-6.2-1.47,2.1.5,4.05.96,6.2,1.47Z"/>
    <path class="cls-1" d="m494,379.36c.08-1.07.1-1.96.22-2.84.54-3.94,1.17-7.87,1.65-11.82.19-1.57.06-3.17.13-4.75.07-1.43.21-2.86.35-4.29.16-1.62,1.14-2.57,2.6-3.12.6-.23,1.2-.47,1.78-.86-.9-.15-1.8-.33-2.71-.45-.7-.1-.95-.46-.89-1.17.41-4.65.77-9.3,1.18-13.95.54-6.13,1.8-12.13,3.34-18.08.27-1.06.35-2.18.42-3.28.27-4.12.36-8.25.78-12.36.26-2.45,1.01-4.85,1.56-7.27.04-.19.16-.36.36-.76.66,1.32,1.24,2.46,1.79,3.6,1.67,3.48,2.6,7.13,2.42,11.03-.11,2.33-.26,4.67-.16,7,.11,2.77.33,5.56.76,8.3.55,3.45.33,6.68-1.65,9.65-.14.22-.22.48-.38.86.92.41,1.8.83,2.7,1.19.53.21.74.51.81,1.11.63,5.31.52,10.64.5,15.97-.02,3.98-.12,7.96-.14,11.95,0,.77.08,1.56.26,2.31.15.6-.05.87-.53,1.14-1.6.89-3.22,1.74-4.75,2.73-1.84,1.18-3.57,2.51-5.39,3.73-2.06,1.39-4.16,2.73-6.24,4.08-.17.11-.37.18-.78.37Z"/>
    <path class="cls-1" d="m625.78,378.69c2.3.05,3.97,1.06,5.52,2.31.58.47,1.11,1.01,1.69,1.47.41.33.46.61.12,1.04-1.26,1.62-2.93,2.64-4.81,3.31-2.06.74-4.18,1.03-6.35.52-.15-.03-.29-.07-.43-.12-.08-.03-.14-.1-.36-.26,1.13-1.44,2.21-2.89,3.38-4.27,1.09-1.29,1.14-1.36.05-2.93-.33.31-.66.59-.96.9-2.22,2.31-4.57,4.51-6.6,6.98-1.79,2.18-3.83,3.92-6.26,5.29-.41.23-.84.4-1.51.71,0-.81-.05-1.42,0-2.02.65-6.38,2.5-12.42,5.19-18.21,1.17-2.53,3.1-4.22,5.91-4.95,4.85-1.25,9.68-2.5,14.75-2.29.44.02.87.09,1.54.16-3.14,4.64-7.25,8.15-10.88,12.37Z"/>
    <path class="cls-1" d="m434.45,423.71c-1.29.63-2.59,1.24-3.86,1.9-2.81,1.45-5.33,3.27-7.52,5.6-3.58,3.81-8.01,6.52-12.44,9.23-3.89,2.39-8.05,4.22-12.19,6.11-1.73.79-3.33,1.87-4.96,2.87-3.41,2.1-6.79,4.25-10.25,6.41-.57-.82-1.02-1.47-1.53-2.2.39-.17.69-.31.98-.43,3.73-1.53,7.23-3.45,10.33-6.06,2.18-1.83,4.77-2.98,7.4-4,4.65-1.79,8.67-4.51,12.4-7.79,1.99-1.75,4.3-3.13,6.47-4.68,3.24-2.31,6.49-4.6,9.71-6.94.52-.38,1-.57,1.64-.5,1.27.13,2.55.2,3.83.29,0,.06,0,.12,0,.18Z"/>
    <path class="cls-1" d="m613.7,411.33c-1.15.61-2.25,1.32-3.45,1.79-1.86.74-3.76,1.37-5.68,1.94-.63.19-1.36.14-2.02.05-2.16-.28-4.31-.63-6.47-.95-.26-.04-.51-.1-.99-.2.69-1.25,1.28-2.4,1.95-3.5.11-.18.53-.22.82-.23,2.35-.1,4.54-.65,6.47-2.08.25-.19.71-.32.98-.23,2.79.95,5.57,1.95,8.35,2.93.01.16.03.32.04.47Z"/>
    <path class="cls-1" d="m537.79,389.34c-.22,1.27-.37,2.27-.58,3.25-.05.25-.3.5-.52.65-1.76,1.18-3.57,2.3-5.31,3.52-.64.46-1.17.59-1.87.23-.5-.26-1.05-.4-1.76-.67,2.93-2.94,6.12-5.23,10.04-6.98Z"/>
    <path class="cls-1" d="m528.48,383.98c.3.91,1.16,1.6.32,2.55-.49.55-.81,1.45-1.4,1.65-.57.2-1.39-.27-2.17-.47-.23,1.08-.45,2.12-.67,3.16-.08.02-.16.05-.24.07-.68-1.62-1.36-3.24-2.1-4.99,2.15-.68,4.16-1.31,6.26-1.97Z"/>
    <path class="cls-1" d="m514.81,405.05c-.4-1.24-.8-2.39-1.13-3.56-.05-.19.13-.6.31-.69,1.2-.59,2.43-1.11,3.91-1.78.28,1.39.59,2.63.74,3.89.03.28-.43.75-.77.91-.96.46-1.98.8-3.07,1.22Z"/>
    <path class="cls-1" d="m545.22,378.67h4.09c-1.11,2.68-1.21,5.36.31,7.97-1.41-.44-2.71-.77-3-2.52-.25-1.52-.8-2.99-1.21-4.49-.08-.28-.12-.57-.2-.97Z"/>
    <path class="cls-1" d="m635.78,442.17c2.03-.05,3.84-.09,5.65-.15.5-.01.64.26.57.68-.11.68-.24,1.35-.41,2.02-.04.16-.25.35-.42.39-1.39.3-2.8.57-4.28.87-.37-1.25-.71-2.41-1.12-3.8Z"/>
    <path class="cls-1" d="m599.78,442.96c-1.49,1.3-9.81,2.5-12.73,1.84,3.97-2.55,8.24-2.71,12.73-1.84Z"/>
    <path class="cls-1" d="m502.51,413.85c-1.03-.61-1.97-1.14-2.88-1.73-.14-.09-.21-.5-.13-.68.46-.99.97-1.96,1.47-2.94,2.36,1.32,2.59,1.57,1.54,5.35Z"/>
    <path class="cls-1" d="m632.95,452.53c.21,1.22.44,2.44.63,3.66.03.2-.06.52-.21.63-1.19.82-2.41,1.6-3.62,2.39-.06-.05-.12-.11-.17-.16,1.01-2.17,2.03-4.34,3.04-6.51.11,0,.22,0,.33,0Z"/>
    <path class="cls-1" d="m546.58,359.77c1.9.31,3.64.6,5.38.88.02.1.04.19.05.29-.25.15-.49.36-.76.45-1.3.42-2.62.8-3.93,1.2-.41.13-.73.08-.74-.44-.01-.73,0-1.47,0-2.38Z"/>
    <path class="cls-1" d="m624.43,462.89c.06,1.41.13,2.82.2,4.45-1.28-.26-2.38-.49-3.79-.78,1.22-1.41,2.25-2.6,3.28-3.79.1.04.21.08.31.13Z"/>
    <path class="cls-1" d="m508.23,396.31c0,.96-.53,1.62-1.29,1.62-.9,0-1.59-.88-1.58-2.02.01-.98.51-1.65,1.24-1.66.94-.02,1.63.87,1.62,2.06Z"/>
    <path class="cls-1" d="m538.03,382.68c.15-1.6.27-2.98.4-4.37.12-.02.24-.04.37-.07.88,1.25,1.76,2.5,2.77,3.95-1.24.17-2.24.31-3.53.49Z"/>
    <path class="cls-1" d="m531.59,376.43c-.85,0-1.46-.72-1.46-1.71,0-.86.69-1.57,1.51-1.56.79.01,1.52.95,1.52,1.93,0,.83-.61,1.35-1.57,1.34Z"/>
    <path class="cls-1" d="m484.52,410.48c-.4,1.33-.74,2.46-1.13,3.74-.93-.54-1.74-.96-2.5-1.47-.13-.09-.14-.66,0-.77.43-.35.93-.64,1.44-.84.63-.25,1.3-.39,2.19-.65Z"/>
    <path class="cls-1" d="m537.11,360.82l4.78,1.29c0,.1.01.2.02.3-1.08.65-2.28.95-3.54,1.04-.13,0-.33-.23-.42-.4-.34-.66-.65-1.33-.97-2,.04-.07.09-.15.13-.22Z"/>
    <path class="cls-1" d="m501.08,388.12c-1.13.31-2.26.61-3.57.97.16-.94.23-1.74.47-2.49.08-.26.55-.51.87-.56.48-.07,2.04,1.42,2.23,2.08Z"/>
    <path class="cls-1" d="m551.55,370.47c-.65,1.02-1.21,1.89-1.9,2.98-.47-1.49-.87-2.78-1.27-4.06.06-.06.12-.12.18-.18.96.4,1.92.81,3,1.26Z"/>
    <path class="cls-1" d="m419.7,411.01c-.17.99-.31,2-.53,2.98-.05.21-.42.48-.64.48-.73,0-1.47-.11-2.22-.18,1.09-1.16,2.15-2.28,3.22-3.4.06.04.12.08.18.12Z"/>
    <path class="cls-1" d="m557.39,373c-.02.73-.69,1.61-1.21,1.58-.54-.03-1.33-1.06-1.33-1.73s.59-1.19,1.31-1.15c.67.04,1.25.65,1.23,1.3Z"/>
    <path class="cls-1" d="m494.24,397.46c-.51-1.24-.95-2.32-1.44-3.53,1.37.15,2.18.82,2.82,1.7.1.14.04.53-.09.68-.33.37-.74.67-1.29,1.16Z"/>
    <path class="cls-1" d="m408.25,422.27c-1.62.76-2.57.74-2.96,0-.31-.58.15-1.21,1.55-2.11.46.68.91,1.36,1.42,2.11Z"/>
    <path class="cls-1" d="m517.31,372.38c-.06.64-.49.93-1.19.92-.76,0-1.1-.42-1.06-1.12.04-.68.38-1.2,1.14-1.25.6-.04,1.13.63,1.12,1.45Z"/>
    <path class="cls-1" d="m596.87,434.48c1.6-1,3.75-.44,4.02,1.28-1.52,0-2.75-.7-4.02-1.28Z"/>
    <path class="cls-1" d="m539.8,369.32c-.3-.41-.84-.82-.84-1.23,0-.36.54-.88.95-1.04.49-.2,1.26.56,1.11,1.09-.12.43-.54.79-.82,1.17-.13,0-.27,0-.4.01Z"/>
    <path class="cls-1" d="m644.51,450.87c-.39.27-.75.67-1.19.77-.59.13-1.19-.58-1.14-1.2.05-.64.46-.95,1.07-.96.59,0,1.12.59,1.26,1.38Z"/>
    <path class="cls-1" d="m485.11,397.1c-.08-.11-.38-.33-.4-.58-.05-.68.77-1.44,1.49-1.36.33.04.83.34.89.61.14.63-.86,1.35-1.97,1.33Z"/>
    <path class="cls-1" d="m636.79,453.84c.65-.82,1.23-1.55,1.84-2.32.69.67.6,1.28.23,1.85-.43.65-1.03.94-2.07.47Z"/>
    <path class="cls-1" d="m499.9,396.2c-.26.09-.51.23-.77.25-.12,0-.4-.27-.37-.34.07-.21.23-.42.41-.55.07-.05.3.13.45.21l.28.43Z"/>
  </g>
</svg>